<svg width="12" height="12" viewBox="0 0 12 12" fill="none" xmlns="http://www.w3.org/2000/svg">
<path d="M6 7.5C6.39782 7.5 6.77936 7.34196 7.06066 7.06066C7.34196 6.77936 7.5 6.39782 7.5 6C7.5 5.60218 7.34196 5.22064 7.06066 4.93934C6.77936 4.65804 6.39782 4.5 6 4.5C5.60218 4.5 5.22064 4.65804 4.93934 4.93934C4.65804 5.22064 4.5 5.60218 4.5 6C4.5 6.39782 4.65804 6.77936 4.93934 7.06066C5.22064 7.34196 5.60218 7.5 6 7.5Z" fill="white"/>
<path fill-rule="evenodd" clip-rule="evenodd" d="M0.661294 5.7235C1.40529 3.488 3.51379 1.875 6.00029 1.875C8.48529 1.875 10.5928 3.4865 11.3378 5.72C11.3978 5.901 11.3978 6.096 11.3378 6.2765C10.5943 8.512 8.48529 10.125 5.99929 10.125C3.51429 10.125 1.40629 8.5135 0.661794 6.28C0.601668 6.09937 0.601668 5.90413 0.661794 5.7235H0.661294ZM8.62479 6C8.62479 6.69619 8.34823 7.36387 7.85595 7.85616C7.36367 8.34844 6.69599 8.625 5.99979 8.625C5.3036 8.625 4.63592 8.34844 4.14364 7.85616C3.65136 7.36387 3.37479 6.69619 3.37479 6C3.37479 5.30381 3.65136 4.63613 4.14364 4.14384C4.63592 3.65156 5.3036 3.375 5.99979 3.375C6.69599 3.375 7.36367 3.65156 7.85595 4.14384C8.34823 4.63613 8.62479 5.30381 8.62479 6Z" fill="white"/>
</svg>
