<svg width="27" height="20" viewBox="0 0 27 20" fill="none" xmlns="http://www.w3.org/2000/svg">
<path d="M10 14.1668V16.6668M12.6332 3.3332L12.5 2.5M7.5 2.5L7.3584 3.3332M15 17.5L14.4416 14.1668L14.3 13.3332L15 17.5ZM5.7 13.3332L5.5584 14.1668L5 17.5L5.7 13.3332Z" stroke="white" stroke-width="1.5" stroke-linecap="round" stroke-linejoin="round"/>
<path d="M16.6668 3.33325H3.3332C2.8732 3.33325 2.5 3.70645 2.5 4.16685V12.5001C2.5 12.9601 2.8732 13.3333 3.3332 13.3333H16.6668C17.1268 13.3333 17.5 12.9605 17.5 12.5001V4.16685C17.5 3.70685 17.1268 3.33325 16.6668 3.33325Z" stroke="white" stroke-width="1.5" stroke-linecap="round" stroke-linejoin="round"/>
<path d="M23.5 4V6.5M23.5 6.5V9M23.5 6.5H26M23.5 6.5H21" stroke="white" stroke-width="1.5" stroke-linecap="round" stroke-linejoin="round"/>
</svg>
