<svg width="14" height="17" viewBox="0 0 14 17" fill="none" xmlns="http://www.w3.org/2000/svg">
<path fill-rule="evenodd" clip-rule="evenodd" d="M1.51786 0C0.67919 0 0 0.68 0 1.51786V15.4821C0 16.32 0.68 17 1.51786 17H11.8393C12.6771 17 13.3571 16.32 13.3571 15.4821V9.10714C13.3571 8.30202 13.0373 7.52988 12.468 6.96057C11.8987 6.39126 11.1266 6.07143 10.3214 6.07143H8.80357C8.40101 6.07143 8.01494 5.91151 7.73028 5.62686C7.44563 5.34221 7.28571 4.95613 7.28571 4.55357V3.03571C7.28571 2.23059 6.96588 1.45845 6.39657 0.88914C5.82727 0.319833 5.05512 0 4.25 0H1.51786ZM3.03571 10.9286C3.03571 10.7675 3.09968 10.6131 3.21354 10.4993C3.3274 10.3854 3.48183 10.3214 3.64286 10.3214H9.71429C9.87531 10.3214 10.0297 10.3854 10.1436 10.4993C10.2575 10.6131 10.3214 10.7675 10.3214 10.9286C10.3214 11.0896 10.2575 11.244 10.1436 11.3579C10.0297 11.4717 9.87531 11.5357 9.71429 11.5357H3.64286C3.48183 11.5357 3.3274 11.4717 3.21354 11.3579C3.09968 11.244 3.03571 11.0896 3.03571 10.9286ZM3.64286 12.75C3.48183 12.75 3.3274 12.814 3.21354 12.9278C3.09968 13.0417 3.03571 13.1961 3.03571 13.3571C3.03571 13.5182 3.09968 13.6726 3.21354 13.7865C3.3274 13.9003 3.48183 13.9643 3.64286 13.9643H6.67857C6.8396 13.9643 6.99402 13.9003 7.10789 13.7865C7.22175 13.6726 7.28571 13.5182 7.28571 13.3571C7.28571 13.1961 7.22175 13.0417 7.10789 12.9278C6.99402 12.814 6.8396 12.75 6.67857 12.75H3.64286Z" fill="white"/>
<path d="M7.46436 0.255859C8.13344 1.02731 8.50115 2.01459 8.49974 3.03576V4.55362C8.49974 4.72119 8.63574 4.85719 8.80331 4.85719H10.3212C11.3423 4.85578 12.3296 5.22349 13.1011 5.89257C12.7449 4.538 12.0354 3.30234 11.045 2.31196C10.0546 1.32158 8.81893 0.612021 7.46436 0.255859Z" fill="white"/>
</svg>
