<svg width="16" height="17" viewBox="0 0 16 17" fill="none" xmlns="http://www.w3.org/2000/svg">
<path fill-rule="evenodd" clip-rule="evenodd" d="M7.29279 0.792908C7.48031 0.605437 7.73462 0.500122 7.99979 0.500122C8.26495 0.500122 8.51926 0.605437 8.70679 0.792908L15.7068 7.79291C15.8466 7.93276 15.9418 8.11092 15.9804 8.30488C16.0189 8.49883 15.9991 8.69986 15.9235 8.88256C15.8478 9.06526 15.7197 9.22143 15.5552 9.33131C15.3908 9.44119 15.1975 9.49987 14.9998 9.49991H13.9998V15.4999C13.9998 15.7651 13.8944 16.0195 13.7069 16.207C13.5194 16.3946 13.265 16.4999 12.9998 16.4999H10.9998C10.7346 16.4999 10.4802 16.3946 10.2927 16.207C10.1051 16.0195 9.99979 15.7651 9.99979 15.4999V12.4999C9.99979 12.2347 9.89443 11.9803 9.70689 11.7928C9.51936 11.6053 9.265 11.4999 8.99979 11.4999H6.99979C6.73457 11.4999 6.48022 11.6053 6.29268 11.7928C6.10514 11.9803 5.99979 12.2347 5.99979 12.4999V15.4999C5.99979 15.7651 5.89443 16.0195 5.70689 16.207C5.51936 16.3946 5.265 16.4999 4.99979 16.4999H2.99979C2.73457 16.4999 2.48022 16.3946 2.29268 16.207C2.10514 16.0195 1.99979 15.7651 1.99979 15.4999V9.49991H0.999787C0.802037 9.49987 0.608738 9.44119 0.444328 9.33131C0.279918 9.22143 0.151779 9.06526 0.076109 8.88256C0.000438951 8.69986 -0.0193641 8.49883 0.0192035 8.30488C0.057771 8.11092 0.152977 7.93276 0.292787 7.79291L7.29279 0.792908Z" fill="white"/>
</svg>
