<svg width="16" height="17" viewBox="0 0 16 17" fill="none" xmlns="http://www.w3.org/2000/svg">
<path fill-rule="evenodd" clip-rule="evenodd" d="M8.00002 1.30005C11.0928 1.30005 13.6 2.73205 13.6 4.50005C13.6 6.26805 11.0928 7.70005 8.00002 7.70005C4.90722 7.70005 2.40002 6.26805 2.40002 4.50005C2.40002 2.73205 4.90722 1.30005 8.00002 1.30005ZM12.5552 7.80405C12.9264 7.59285 13.2832 7.33765 13.6 7.04245V8.50005C13.6 10.268 11.0928 11.7 8.00002 11.7C4.90722 11.7 2.40002 10.268 2.40002 8.50005V7.04245C2.71682 7.33845 3.07362 7.59285 3.44482 7.80485C4.67042 8.50485 6.28322 8.90005 8.00002 8.90005C9.71682 8.90005 11.3296 8.50485 12.5552 7.80405ZM2.40002 11.0432V12.5C2.40002 14.268 4.90722 15.7 8.00002 15.7C11.0928 15.7 13.6 14.268 13.6 12.5V11.0424C13.2832 11.3384 12.9264 11.5928 12.5552 11.8048C11.3296 12.5048 9.71682 12.9 8.00002 12.9C6.28322 12.9 4.67042 12.5048 3.44482 11.804C3.0684 11.5916 2.7178 11.3363 2.40002 11.0432Z" fill="white"/>
</svg>
