<svg width="14" height="18" viewBox="0 0 14 18" fill="none" xmlns="http://www.w3.org/2000/svg">
<path fill-rule="evenodd" clip-rule="evenodd" d="M6.77768 0.800049C10.3 0.800049 13.1555 2.43094 13.1555 4.44449C13.1555 6.45805 10.3 8.08894 6.77768 8.08894C3.25532 8.08894 0.399902 6.45805 0.399902 4.44449C0.399902 2.43094 3.25532 0.800049 6.77768 0.800049ZM11.9655 8.20738C12.3883 7.96685 12.7947 7.6762 13.1555 7.34V9.00005C13.1555 11.0136 10.3 12.6445 6.77768 12.6445C3.25532 12.6445 0.399902 11.0136 0.399902 9.00005V7.34C0.760702 7.67712 1.16706 7.96685 1.58981 8.20829C2.98564 9.00552 4.82244 9.4556 6.77768 9.4556C8.73292 9.4556 10.5697 9.00552 11.9655 8.20738ZM0.399902 11.8965V13.5556C0.399902 15.5692 3.25532 17.2 6.77768 17.2C10.3 17.2 13.1555 15.5692 13.1555 13.5556V11.8956C12.7947 12.2327 12.3883 12.5224 11.9655 12.7638C10.5697 13.5611 8.73292 14.0112 6.77768 14.0112C4.82244 14.0112 2.98564 13.5611 1.58981 12.7629C1.1611 12.5209 0.761816 12.2302 0.399902 11.8965Z" fill="white"/>
</svg>
