<svg width="16" height="19" viewBox="0 0 16 19" fill="none" xmlns="http://www.w3.org/2000/svg">
<path fill-rule="evenodd" clip-rule="evenodd" d="M3.92857 2.5C3.13924 2.5 2.5 3.14 2.5 3.92857V17.0714C2.5 17.86 3.14 18.5 3.92857 18.5H13.6429C14.4314 18.5 15.0714 17.86 15.0714 17.0714V11.0714C15.0714 10.3137 14.7704 9.58694 14.2346 9.05112C13.6988 8.51531 12.972 8.21429 12.2143 8.21429H10.7857C10.4068 8.21429 10.0435 8.06378 9.77556 7.79587C9.50765 7.52796 9.35714 7.1646 9.35714 6.78571V5.35714C9.35714 4.59938 9.05612 3.87266 8.5203 3.33684C7.98449 2.80102 7.25776 2.5 6.5 2.5H3.92857ZM5.35714 12.7857C5.35714 12.6342 5.41735 12.4888 5.52451 12.3817C5.63167 12.2745 5.77702 12.2143 5.92857 12.2143H11.6429C11.7944 12.2143 11.9398 12.2745 12.0469 12.3817C12.1541 12.4888 12.2143 12.6342 12.2143 12.7857C12.2143 12.9373 12.1541 13.0826 12.0469 13.1898C11.9398 13.2969 11.7944 13.3571 11.6429 13.3571H5.92857C5.77702 13.3571 5.63167 13.2969 5.52451 13.1898C5.41735 13.0826 5.35714 12.9373 5.35714 12.7857ZM5.92857 14.5C5.77702 14.5 5.63167 14.5602 5.52451 14.6674C5.41735 14.7745 5.35714 14.9199 5.35714 15.0714C5.35714 15.223 5.41735 15.3683 5.52451 15.4755C5.63167 15.5827 5.77702 15.6429 5.92857 15.6429H8.78571C8.93727 15.6429 9.08261 15.5827 9.18977 15.4755C9.29694 15.3683 9.35714 15.223 9.35714 15.0714C9.35714 14.9199 9.29694 14.7745 9.18977 14.6674C9.08261 14.5602 8.93727 14.5 8.78571 14.5H5.92857Z" fill="white"/>
<path d="M9.52551 2.74072C10.1552 3.46679 10.5013 4.396 10.5 5.3571V6.78568C10.5 6.94339 10.628 7.07139 10.7857 7.07139H12.2143C13.1754 7.07006 14.1046 7.41614 14.8307 8.04587C14.4954 6.77098 13.8276 5.608 12.8955 4.67587C11.9634 3.74375 10.8004 3.07593 9.52551 2.74072Z" fill="white"/>
</svg>
