<svg width="17" height="17" viewBox="0 0 17 17" fill="none" xmlns="http://www.w3.org/2000/svg">
<path d="M2.71154 3.63461C2.71154 2.73696 3.06813 1.87607 3.70287 1.24133C4.33761 0.606592 5.1985 0.25 6.09615 0.25C6.99381 0.25 7.8547 0.606592 8.48944 1.24133C9.12418 1.87607 9.48077 2.73696 9.48077 3.63461C9.48077 4.53227 9.12418 5.39316 8.48944 6.0279C7.8547 6.66263 6.99381 7.01923 6.09615 7.01923C5.1985 7.01923 4.33761 6.66263 3.70287 6.0279C3.06813 5.39316 2.71154 4.53227 2.71154 3.63461ZM0.25 14.0961C0.25 12.5456 0.865932 11.0587 1.9623 9.96229C3.05867 8.86593 4.54566 8.24999 6.09615 8.24999C7.64665 8.24999 9.13364 8.86593 10.23 9.96229C11.3264 11.0587 11.9423 12.5456 11.9423 14.0961V14.0986L11.9415 14.1962C11.9397 14.3006 11.9115 14.4028 11.8594 14.4932C11.8073 14.5836 11.733 14.6593 11.6436 14.7132C9.96914 15.7215 8.05083 16.253 6.09615 16.25C4.06785 16.25 2.16918 15.6888 0.549487 14.7132C0.459929 14.6594 0.385522 14.5838 0.333271 14.4934C0.281021 14.4029 0.252646 14.3007 0.25082 14.1962L0.25 14.0961ZM13.7885 4.55769C13.7885 4.39448 13.7236 4.23795 13.6082 4.12255C13.4928 4.00714 13.3363 3.9423 13.1731 3.9423C13.0099 3.9423 12.8533 4.00714 12.7379 4.12255C12.6225 4.23795 12.5577 4.39448 12.5577 4.55769V6.40384H10.7115C10.5483 6.40384 10.3918 6.46868 10.2764 6.58408C10.161 6.69949 10.0962 6.85602 10.0962 7.01923C10.0962 7.18244 10.161 7.33896 10.2764 7.45437C10.3918 7.56977 10.5483 7.63461 10.7115 7.63461H12.5577V9.48076C12.5577 9.64397 12.6225 9.8005 12.7379 9.9159C12.8533 10.0313 13.0099 10.0961 13.1731 10.0961C13.3363 10.0961 13.4928 10.0313 13.6082 9.9159C13.7236 9.8005 13.7885 9.64397 13.7885 9.48076V7.63461H15.6346C15.7978 7.63461 15.9544 7.56977 16.0698 7.45437C16.1852 7.33896 16.25 7.18244 16.25 7.01923C16.25 6.85602 16.1852 6.69949 16.0698 6.58408C15.9544 6.46868 15.7978 6.40384 15.6346 6.40384H13.7885V4.55769Z" fill="white"/>
</svg>
