<svg width="14" height="17" viewBox="0 0 14 17" fill="none" xmlns="http://www.w3.org/2000/svg">
<path d="M2.39293 0.5C1.60359 0.5 0.964355 1.14 0.964355 1.92857V15.0714C0.964355 15.86 1.60436 16.5 2.39293 16.5H12.1072C12.8958 16.5 13.5358 15.86 13.5358 15.0714V9.07143C13.5358 8.31367 13.2348 7.58694 12.6989 7.05112C12.1631 6.51531 11.4364 6.21429 10.6786 6.21429H9.25007C8.87119 6.21429 8.50783 6.06378 8.23992 5.79587C7.97201 5.52796 7.8215 5.1646 7.8215 4.78571V3.35714C7.8215 2.59938 7.52048 1.87266 6.98466 1.33684C6.44884 0.80102 5.72212 0.5 4.96436 0.5H2.39293Z" fill="white"/>
<path d="M7.98999 0.740845C8.61972 1.46691 8.9658 2.39612 8.96447 3.35723V4.7858C8.96447 4.94351 9.09247 5.07151 9.25018 5.07151H10.6788C11.6399 5.07018 12.5691 5.41626 13.2951 6.04599C12.9599 4.7711 12.2921 3.60812 11.36 2.676C10.4279 1.74387 9.26488 1.07606 7.98999 0.740845Z" fill="white"/>
</svg>
