<svg width="14" height="16" viewBox="0 0 14 16" fill="none" xmlns="http://www.w3.org/2000/svg">
<path d="M6.99995 6C7.7956 6 8.55867 5.68393 9.12128 5.12132C9.68388 4.55871 9.99996 3.79565 9.99996 3C9.99996 2.20435 9.68388 1.44129 9.12128 0.87868C8.55867 0.316071 7.7956 0 6.99995 0C6.20431 0 5.44124 0.316071 4.87863 0.87868C4.31603 1.44129 3.99995 2.20435 3.99995 3C3.99995 3.79565 4.31603 4.55871 4.87863 5.12132C5.44124 5.68393 6.20431 6 6.99995 6ZM0.464955 12.493C0.37212 12.7411 0.361878 13.0126 0.435752 13.267C0.509625 13.5214 0.663667 13.7452 0.874955 13.905C2.62629 15.266 4.78193 16.0034 6.99995 16C9.30995 16 11.438 15.216 13.131 13.9C13.561 13.567 13.735 12.997 13.539 12.49C13.0312 11.168 12.1345 10.0311 10.9673 9.22922C9.80002 8.42737 8.41706 7.99829 7.00092 7.99861C5.58479 7.99894 4.20203 8.42865 3.03515 9.23104C1.86827 10.0334 0.972113 11.1708 0.464955 12.493Z" fill="white"/>
</svg>
