<svg width="17" height="17" viewBox="0 0 17 17" fill="none" xmlns="http://www.w3.org/2000/svg">
<path d="M6.09618 0.25C5.19852 0.25 4.33764 0.606592 3.7029 1.24133C3.06816 1.87607 2.71157 2.73696 2.71157 3.63461C2.71157 4.53227 3.06816 5.39316 3.7029 6.0279C4.33764 6.66263 5.19852 7.01923 6.09618 7.01923C6.99383 7.01923 7.85472 6.66263 8.48946 6.0279C9.12419 5.39316 9.48079 4.53227 9.48079 3.63461C9.48079 2.73696 9.12419 1.87607 8.48946 1.24133C7.85472 0.606592 6.99383 0.25 6.09618 0.25ZM6.09618 8.24999C5.32002 8.24999 4.55164 8.40454 3.83584 8.70462C3.12005 9.00471 2.47117 9.44432 1.92707 9.99782C1.38296 10.5513 0.954517 11.2076 0.666729 11.9285C0.37894 12.6493 0.237567 13.4202 0.250857 14.1962C0.252597 14.3006 0.280847 14.4028 0.33295 14.4932C0.385053 14.5836 0.459298 14.6593 0.548703 14.7132C2.2232 15.7215 4.1415 16.253 6.09618 16.25C8.12448 16.25 10.0231 15.6888 11.6428 14.7132C11.7324 14.6594 11.8068 14.5838 11.859 14.4934C11.9113 14.4029 11.9397 14.3007 11.9415 14.1962L11.9423 14.0978V14.0961C11.9423 12.5456 11.3264 11.0587 10.23 9.96229C9.13366 8.86593 7.64667 8.24999 6.09618 8.24999ZM10.7116 6.40384C10.5483 6.40384 10.3918 6.46868 10.2764 6.58408C10.161 6.69949 10.0962 6.85602 10.0962 7.01923C10.0962 7.18244 10.161 7.33896 10.2764 7.45437C10.3918 7.56977 10.5483 7.63461 10.7116 7.63461H15.6346C15.7978 7.63461 15.9544 7.56977 16.0698 7.45437C16.1852 7.33896 16.25 7.18244 16.25 7.01923C16.25 6.85602 16.1852 6.69949 16.0698 6.58408C15.9544 6.46868 15.7978 6.40384 15.6346 6.40384H10.7116Z" fill="white"/>
</svg>
