<svg width="17" height="18" viewBox="0 0 17 18" fill="none" xmlns="http://www.w3.org/2000/svg">
<path d="M13.5 5.25V7.75M13.5 7.75V10.25M13.5 7.75H16M13.5 7.75H11M9.125 4.3125C9.125 5.05842 8.82868 5.77379 8.30124 6.30124C7.77379 6.82868 7.05842 7.125 6.3125 7.125C5.56658 7.125 4.85121 6.82868 4.32376 6.30124C3.79632 5.77379 3.5 5.05842 3.5 4.3125C3.5 3.56658 3.79632 2.85121 4.32376 2.32376C4.85121 1.79632 5.56658 1.5 6.3125 1.5C7.05842 1.5 7.77379 1.79632 8.30124 2.32376C8.82868 2.85121 9.125 3.56658 9.125 4.3125ZM1 15.0292V14.9375C1 13.5285 1.55971 12.1773 2.556 11.181C3.55228 10.1847 4.90354 9.625 6.3125 9.625C7.72146 9.625 9.07272 10.1847 10.069 11.181C11.0653 12.1773 11.625 13.5285 11.625 14.9375V15.0283C10.0212 15.9942 8.18384 16.5032 6.31167 16.5C4.36917 16.5 2.55167 15.9625 1 15.0283V15.0292Z" stroke="white" stroke-width="1.5" stroke-linecap="round" stroke-linejoin="round"/>
</svg>
