<svg width="10" height="11" viewBox="0 0 10 11" fill="none" xmlns="http://www.w3.org/2000/svg">
<path fill-rule="evenodd" clip-rule="evenodd" d="M7.25 1.73897V1.85247C7.8995 1.91187 8.54635 1.99727 9.189 2.10847C9.23753 2.11688 9.28392 2.13476 9.32553 2.16109C9.36715 2.18743 9.40317 2.2217 9.43153 2.26195C9.4599 2.30221 9.48006 2.34765 9.49087 2.3957C9.50167 2.44375 9.50291 2.49345 9.4945 2.54197C9.4861 2.5905 9.46822 2.63689 9.44188 2.6785C9.41555 2.72012 9.38128 2.75614 9.34102 2.7845C9.30077 2.81287 9.25532 2.83303 9.20728 2.84384C9.15923 2.85464 9.10953 2.85588 9.061 2.84747L8.9565 2.82997L8.454 9.36497C8.42503 9.74177 8.25491 10.0937 7.97764 10.3505C7.70038 10.6073 7.33641 10.75 6.9585 10.75H3.042C2.6641 10.75 2.30013 10.6073 2.02287 10.3505C1.7456 10.0937 1.57548 9.74177 1.5465 9.36497L1.0435 2.82997L0.939003 2.84747C0.89048 2.85588 0.840776 2.85464 0.79273 2.84384C0.744684 2.83303 0.699236 2.81287 0.658982 2.7845C0.577685 2.72721 0.522477 2.63997 0.505503 2.54197C0.488529 2.44398 0.51118 2.34325 0.568472 2.26195C0.625765 2.18066 0.713006 2.12545 0.811003 2.10847C1.45364 1.99714 2.10049 1.91173 2.75 1.85247V1.73897C2.75 0.956974 3.3565 0.288974 4.158 0.263474C4.71936 0.245509 5.28115 0.245509 5.8425 0.263474C6.644 0.288974 7.25 0.956974 7.25 1.73897ZM4.182 1.01297C4.72736 0.995532 5.27314 0.995532 5.8185 1.01297C6.195 1.02497 6.5 1.34197 6.5 1.73897V1.79547C5.50092 1.7348 4.49908 1.7348 3.5 1.79547V1.73897C3.5 1.34197 3.8045 1.02497 4.182 1.01297ZM4.0045 3.98547C4.0026 3.93623 3.99101 3.88784 3.97041 3.84307C3.9498 3.7983 3.92058 3.75803 3.88442 3.72456C3.84825 3.69108 3.80584 3.66506 3.75961 3.64797C3.71339 3.63088 3.66425 3.62307 3.615 3.62497C3.56576 3.62688 3.51737 3.63846 3.4726 3.65907C3.42783 3.67967 3.38756 3.70889 3.35409 3.74506C3.32061 3.78123 3.29459 3.82364 3.2775 3.86986C3.26041 3.91609 3.2526 3.96523 3.2545 4.01447L3.428 8.51447C3.43185 8.61386 3.47502 8.70765 3.54802 8.77522C3.58416 8.80867 3.62654 8.83467 3.67274 8.85175C3.71893 8.86882 3.76804 8.87663 3.81725 8.87472C3.86647 8.87282 3.91482 8.86124 3.95956 8.84065C4.0043 8.82006 4.04454 8.79085 4.07799 8.75471C4.11145 8.71856 4.13745 8.67618 4.15453 8.62999C4.1716 8.58379 4.17941 8.53469 4.1775 8.48547L4.0045 3.98547ZM6.7445 4.01447C6.74817 3.96428 6.74169 3.91387 6.72547 3.86623C6.70924 3.81859 6.68359 3.77471 6.65004 3.73719C6.6165 3.69968 6.57574 3.6693 6.53021 3.64787C6.48468 3.62643 6.4353 3.61439 6.38501 3.61244C6.33472 3.61049 6.28456 3.61869 6.2375 3.63653C6.19045 3.65438 6.14747 3.68152 6.11112 3.71633C6.07478 3.75114 6.04581 3.79291 6.02595 3.83915C6.00608 3.88538 5.99573 3.93515 5.9955 3.98547L5.822 8.48547C5.81816 8.58493 5.85398 8.68184 5.92159 8.75489C5.98919 8.82793 6.08305 8.87113 6.1825 8.87497C6.28196 8.87882 6.37887 8.843 6.45192 8.77539C6.52496 8.70779 6.56816 8.61393 6.572 8.51447L6.7445 4.01447Z" fill="white"/>
</svg>
