<svg width="12" height="12" viewBox="0 0 12 12" fill="none" xmlns="http://www.w3.org/2000/svg">
<path d="M10.8651 1.13459C10.619 0.888495 10.2852 0.750244 9.93714 0.750244C9.58908 0.750244 9.25527 0.888495 9.00914 1.13459L8.43064 1.71309L10.2866 3.56909L10.8651 2.99059C11.1112 2.74445 11.2495 2.41065 11.2495 2.06259C11.2495 1.71453 11.1112 1.38072 10.8651 1.13459ZM9.75614 4.09959L7.90014 2.24359L3.70014 6.44359C3.39156 6.75201 3.16473 7.13248 3.04014 7.55059L2.64014 8.89309C2.62083 8.95787 2.61939 9.02667 2.63597 9.09221C2.65255 9.15775 2.68654 9.21758 2.73435 9.26538C2.78215 9.31318 2.84198 9.34717 2.90752 9.36376C2.97305 9.38034 3.04185 9.3789 3.10664 9.35959L4.44914 8.95959C4.86725 8.835 5.24772 8.60816 5.55614 8.29959L9.75614 4.09959Z" fill="white"/>
<path d="M2.625 2.625C2.22718 2.625 1.84564 2.78304 1.56434 3.06434C1.28304 3.34564 1.125 3.72718 1.125 4.125V9.375C1.125 9.77282 1.28304 10.1544 1.56434 10.4357C1.84564 10.717 2.22718 10.875 2.625 10.875H7.875C8.27282 10.875 8.65436 10.717 8.93566 10.4357C9.21696 10.1544 9.375 9.77282 9.375 9.375V6.75C9.375 6.65054 9.33549 6.55516 9.26517 6.48484C9.19484 6.41451 9.09946 6.375 9 6.375C8.90054 6.375 8.80516 6.41451 8.73483 6.48484C8.66451 6.55516 8.625 6.65054 8.625 6.75V9.375C8.625 9.57391 8.54598 9.76468 8.40533 9.90533C8.26468 10.046 8.07391 10.125 7.875 10.125H2.625C2.42609 10.125 2.23532 10.046 2.09467 9.90533C1.95402 9.76468 1.875 9.57391 1.875 9.375V4.125C1.875 3.92609 1.95402 3.73532 2.09467 3.59467C2.23532 3.45402 2.42609 3.375 2.625 3.375H5.25C5.34946 3.375 5.44484 3.33549 5.51516 3.26517C5.58549 3.19484 5.625 3.09946 5.625 3C5.625 2.90054 5.58549 2.80516 5.51516 2.73483C5.44484 2.66451 5.34946 2.625 5.25 2.625H2.625Z" fill="white"/>
</svg>
