<svg width="43" height="36" viewBox="0 0 43 36" fill="none" xmlns="http://www.w3.org/2000/svg">
<path fill-rule="evenodd" clip-rule="evenodd" d="M36.5 36C38.0913 36 39.6174 35.3679 40.7426 34.2426C41.8679 33.1174 42.5 31.5913 42.5 30V12C42.5 10.4087 41.8679 8.88258 40.7426 7.75736C39.6174 6.63214 38.0913 6 36.5 6H25.742C25.3443 5.99965 24.963 5.84139 24.682 5.56L20.44 1.32C20.0223 0.901776 19.5263 0.569943 18.9803 0.343453C18.4343 0.116964 17.8491 0.000257482 17.258 0H6.5C4.9087 0 3.38258 0.632141 2.25736 1.75736C1.13214 2.88258 0.5 4.4087 0.5 6V30C0.5 31.5913 1.13214 33.1174 2.25736 34.2426C3.38258 35.3679 4.9087 36 6.5 36H36.5ZM23 15C23 14.6022 22.842 14.2206 22.5607 13.9393C22.2794 13.658 21.8978 13.5 21.5 13.5C21.1022 13.5 20.7206 13.658 20.4393 13.9393C20.158 14.2206 20 14.6022 20 15V23.38L16.56 19.94C16.2757 19.675 15.8996 19.5308 15.511 19.5376C15.1224 19.5445 14.7516 19.7019 14.4768 19.9768C14.2019 20.2516 14.0445 20.6224 14.0376 21.011C14.0308 21.3996 14.175 21.7757 14.44 22.06L20.44 28.06C20.7213 28.3409 21.1025 28.4987 21.5 28.4987C21.8975 28.4987 22.2787 28.3409 22.56 28.06L28.56 22.06C28.7074 21.9227 28.8256 21.7571 28.9076 21.5731C28.9895 21.3891 29.0336 21.1905 29.0372 20.989C29.0407 20.7876 29.0037 20.5876 28.9282 20.4008C28.8528 20.214 28.7405 20.0444 28.5981 19.9019C28.4556 19.7595 28.286 19.6472 28.0992 19.5718C27.9124 19.4963 27.7124 19.4593 27.511 19.4628C27.3095 19.4664 27.1109 19.5105 26.9269 19.5924C26.7429 19.6744 26.5773 19.7926 26.44 19.94L23 23.38V15Z" fill="#00A2E3"/>
</svg>
