<svg width="40" height="36" viewBox="0 0 40 36" fill="none" xmlns="http://www.w3.org/2000/svg">
<path d="M19.9572 6.74999C19.9572 7.63642 19.7844 8.51416 19.4487 9.33311C19.1129 10.1521 18.6208 10.8962 18.0005 11.523C17.3801 12.1498 16.6436 12.647 15.833 12.9862C15.0224 13.3254 14.1537 13.5 13.2763 13.5C12.399 13.5 11.5302 13.3254 10.7197 12.9862C9.90909 12.647 9.17259 12.1498 8.55221 11.523C7.93183 10.8962 7.43972 10.1521 7.10397 9.33311C6.76822 8.51416 6.59541 7.63642 6.59541 6.74999C6.59541 4.95978 7.29929 3.2429 8.55221 1.97703C9.80512 0.711158 11.5044 0 13.2763 0C15.0482 0 16.7475 0.711158 18.0005 1.97703C19.2534 3.2429 19.9572 4.95978 19.9572 6.74999ZM1.28408 32.463C0.847454 32.188 0.496752 31.7939 0.272519 31.326C0.0482851 30.8582 -0.0403235 30.3358 0.0169358 29.8192C0.427491 26.5591 2.00061 23.5621 4.44151 21.3899C6.88241 19.2176 10.0236 18.0192 13.2763 18.0192C16.5291 18.0192 19.6702 19.2176 22.1111 21.3899C24.552 23.5621 26.1252 26.5591 26.5357 29.8192C26.6649 30.87 26.1527 31.8892 25.2664 32.4607C21.6882 34.7774 17.5262 36.006 13.2763 36C9.02594 36.0071 4.86316 34.7793 1.28408 32.463ZM33.8758 8.43749C33.8758 7.98994 33.6999 7.56072 33.3866 7.24425C33.0734 6.92778 32.6486 6.74999 32.2056 6.74999C31.7626 6.74999 31.3378 6.92778 31.0246 7.24425C30.7113 7.56072 30.5354 7.98994 30.5354 8.43749V12.9375H26.0814C25.6385 12.9375 25.2136 13.1153 24.9004 13.4317C24.5872 13.7482 24.4112 14.1774 24.4112 14.625C24.4112 15.0725 24.5872 15.5018 24.9004 15.8182C25.2136 16.1347 25.6385 16.3125 26.0814 16.3125H30.5354V20.8125C30.5354 21.26 30.7113 21.6893 31.0246 22.0057C31.3378 22.3222 31.7626 22.5 32.2056 22.5C32.6486 22.5 33.0734 22.3222 33.3866 22.0057C33.6999 21.6893 33.8758 21.26 33.8758 20.8125V16.3125H38.3298C38.7727 16.3125 39.1976 16.1347 39.5108 15.8182C39.824 15.5018 40 15.0725 40 14.625C40 14.1774 39.824 13.7482 39.5108 13.4317C39.1976 13.1153 38.7727 12.9375 38.3298 12.9375H33.8758V8.43749Z" fill="#00A2E3"/>
</svg>
