<svg width="32" height="36" viewBox="0 0 32 36" fill="none" xmlns="http://www.w3.org/2000/svg">
<path fill-rule="evenodd" clip-rule="evenodd" d="M2.28571 32.625V3.375H1.71429C1.25963 3.375 0.823593 3.19721 0.502102 2.88074C0.180612 2.56428 0 2.13505 0 1.6875C0 1.23995 0.180612 0.810725 0.502102 0.494257C0.823593 0.177789 1.25963 9.43147e-09 1.71429 0H30.2857C30.7404 9.43147e-09 31.1764 0.177789 31.4979 0.494257C31.8194 0.810725 32 1.23995 32 1.6875C32 2.13505 31.8194 2.56428 31.4979 2.88074C31.1764 3.19721 30.7404 3.375 30.2857 3.375H29.7143V32.625H30.2857C30.7404 32.625 31.1764 32.8028 31.4979 33.1193C31.8194 33.4357 32 33.8649 32 34.3125C32 34.7601 31.8194 35.1893 31.4979 35.5057C31.1764 35.8222 30.7404 36 30.2857 36H22.2857C21.8311 36 21.395 35.8222 21.0735 35.5057C20.752 35.1893 20.5714 34.7601 20.5714 34.3125V28.6875C20.5714 28.2399 20.3908 27.8107 20.0693 27.4943C19.7478 27.1778 19.3118 27 18.8571 27H13.1429C12.6882 27 12.2522 27.1778 11.9307 27.4943C11.6092 27.8107 11.4286 28.2399 11.4286 28.6875V34.3125C11.4286 34.7601 11.248 35.1893 10.9265 35.5057C10.605 35.8222 10.1689 36 9.71429 36H1.71429C1.25963 36 0.823593 35.8222 0.502102 35.5057C0.180612 35.1893 0 34.7601 0 34.3125C0 33.8649 0.180612 33.4357 0.502102 33.1193C0.823593 32.8028 1.25963 32.625 1.71429 32.625H2.28571ZM9.14286 7.875C9.14286 7.57663 9.26327 7.29048 9.47759 7.07951C9.69192 6.86853 9.98261 6.75 10.2857 6.75H12.5714C12.8745 6.75 13.1652 6.86853 13.3796 7.07951C13.5939 7.29048 13.7143 7.57663 13.7143 7.875V10.125C13.7143 10.4234 13.5939 10.7095 13.3796 10.9205C13.1652 11.1315 12.8745 11.25 12.5714 11.25H10.2857C9.98261 11.25 9.69192 11.1315 9.47759 10.9205C9.26327 10.7095 9.14286 10.4234 9.14286 10.125V7.875ZM10.2857 15.75C9.98261 15.75 9.69192 15.8685 9.47759 16.0795C9.26327 16.2905 9.14286 16.5766 9.14286 16.875V19.125C9.14286 19.4234 9.26327 19.7095 9.47759 19.9205C9.69192 20.1315 9.98261 20.25 10.2857 20.25H12.5714C12.8745 20.25 13.1652 20.1315 13.3796 19.9205C13.5939 19.7095 13.7143 19.4234 13.7143 19.125V16.875C13.7143 16.5766 13.5939 16.2905 13.3796 16.0795C13.1652 15.8685 12.8745 15.75 12.5714 15.75H10.2857ZM18.2857 7.875C18.2857 7.57663 18.4061 7.29048 18.6204 7.07951C18.8348 6.86853 19.1255 6.75 19.4286 6.75H21.7143C22.0174 6.75 22.3081 6.86853 22.5224 7.07951C22.7367 7.29048 22.8571 7.57663 22.8571 7.875V10.125C22.8571 10.4234 22.7367 10.7095 22.5224 10.9205C22.3081 11.1315 22.0174 11.25 21.7143 11.25H19.4286C19.1255 11.25 18.8348 11.1315 18.6204 10.9205C18.4061 10.7095 18.2857 10.4234 18.2857 10.125V7.875ZM19.4286 15.75C19.1255 15.75 18.8348 15.8685 18.6204 16.0795C18.4061 16.2905 18.2857 16.5766 18.2857 16.875V19.125C18.2857 19.4234 18.4061 19.7095 18.6204 19.9205C18.8348 20.1315 19.1255 20.25 19.4286 20.25H21.7143C22.0174 20.25 22.3081 20.1315 22.5224 19.9205C22.7367 19.7095 22.8571 19.4234 22.8571 19.125V16.875C22.8571 16.5766 22.7367 16.2905 22.5224 16.0795C22.3081 15.8685 22.0174 15.75 21.7143 15.75H19.4286Z" fill="#00A2E3"/>
</svg>
