<svg width="30" height="36" viewBox="0 0 30 36" fill="none" xmlns="http://www.w3.org/2000/svg">
<path d="M14.993 13.5C16.7969 13.5 18.527 12.7888 19.8025 11.523C21.0781 10.2571 21.7947 8.54021 21.7947 6.75C21.7947 4.95978 21.0781 3.2429 19.8025 1.97703C18.527 0.711158 16.7969 0 14.993 0C13.1891 0 11.4591 0.711158 10.1836 1.97703C8.90801 3.2429 8.19141 4.95978 8.19141 6.75C8.19141 8.54021 8.90801 10.2571 10.1836 11.523C11.4591 12.7888 13.1891 13.5 14.993 13.5ZM0.176824 28.1092C-0.0336515 28.6675 -0.0568731 29.2783 0.110614 29.8507C0.278102 30.4232 0.627347 30.9266 1.10638 31.2862C5.07703 34.3486 9.96432 36.0075 14.993 36C20.2303 36 25.0549 34.236 28.8933 31.275C29.8682 30.5257 30.2627 29.2432 29.8183 28.1025C28.6671 25.128 26.6342 22.5699 23.9878 20.7657C21.3414 18.9616 18.2059 17.9961 14.9952 17.9969C11.7846 17.9976 8.64956 18.9644 6.004 20.7698C3.35843 22.5752 1.32666 25.1343 0.176824 28.1092Z" fill="#00A2E3"/>
</svg>
