<svg width="69" height="69" viewBox="0 0 69 69" fill="none" xmlns="http://www.w3.org/2000/svg">
<path d="M33.4219 47.4375C34.8516 47.4375 36.2227 46.8696 37.2336 45.8586C38.2446 44.8477 38.8125 43.4766 38.8125 42.0469C38.8125 40.6172 38.2446 39.2461 37.2336 38.2351C36.2227 37.2242 34.8516 36.6562 33.4219 36.6562C31.9922 36.6562 30.6211 37.2242 29.6101 38.2351C28.5992 39.2461 28.0312 40.6172 28.0312 42.0469C28.0312 43.4766 28.5992 44.8477 29.6101 45.8586C30.6211 46.8696 31.9922 47.4375 33.4219 47.4375Z" fill="#00A2E3"/>
<path fill-rule="evenodd" clip-rule="evenodd" d="M16.1719 4.3125H25.875C28.7344 4.3125 31.4766 5.44838 33.4985 7.47025C35.5204 9.49213 36.6562 12.2344 36.6562 15.0938V20.4844C36.6562 23.4629 39.0713 25.875 42.0469 25.875H47.4375C50.2969 25.875 53.0391 27.0109 55.061 29.0328C57.0829 31.0546 58.2188 33.7969 58.2188 36.6562V59.2969C58.2188 62.2725 55.8037 64.6875 52.8281 64.6875H16.1719C14.7422 64.6875 13.3711 64.1196 12.3601 63.1086C11.3492 62.0977 10.7812 60.7266 10.7812 59.2969V9.70312C10.7812 6.72462 13.1963 4.3125 16.1719 4.3125ZM33.4219 51.75C35.3194 51.75 37.0933 51.2038 38.5882 50.2607L41.6013 53.2738C42.01 53.6546 42.5506 53.862 43.1093 53.8521C43.6679 53.8423 44.2008 53.616 44.5959 53.2209C44.991 52.8258 45.2173 52.2929 45.2271 51.7343C45.237 51.1756 45.0296 50.635 44.6488 50.2262L41.6386 47.2133C42.7842 45.392 43.292 43.2417 43.0821 41.1003C42.8722 38.959 41.9566 36.9482 40.4792 35.3841C39.0017 33.8199 37.0463 32.7912 34.9205 32.4596C32.7946 32.1281 30.6188 32.5125 28.7352 33.5525C26.8517 34.5925 25.3672 36.229 24.5152 38.2047C23.6633 40.1804 23.4922 42.3833 24.0288 44.4669C24.5654 46.5505 25.7793 48.3966 27.4796 49.715C29.18 51.0334 31.2703 51.7492 33.4219 51.75Z" fill="#00A2E3"/>
<path d="M40.9686 15.0935C40.9737 11.4668 39.6677 7.96047 37.2915 5.2207C42.1022 6.4856 46.4906 9.00557 50.008 12.5229C53.5253 16.0402 56.0452 20.4286 57.3101 25.2393C54.5704 22.8631 51.0641 21.5572 47.4374 21.5622H42.0468C41.7608 21.5622 41.4866 21.4486 41.2844 21.2464C41.0822 21.0442 40.9686 20.77 40.9686 20.4841V15.0935Z" fill="#00A2E3"/>
</svg>
