<svg width="55" height="61" viewBox="0 0 55 61" fill="none" xmlns="http://www.w3.org/2000/svg">
<path d="M42.6885 22.9218C42.8499 23.1237 43.0207 23.3183 43.2031 23.5013C44.4548 24.7572 46.187 25.5366 48.0996 25.5366C50.0123 25.5366 51.7452 24.7572 52.9962 23.5013C53.1793 23.3183 53.3501 23.1237 53.5108 22.9218C54.4419 21.7499 55 20.2717 55 18.6646C55 14.8759 51.9044 11.7927 48.099 11.7927C44.2942 11.7927 41.1979 14.8752 41.1979 18.6646C41.1979 19.8325 41.4947 20.9318 42.0127 21.8949L34.9714 25.7488C33.4924 23.4552 30.9808 21.8848 28.0935 21.6943V13.7162C29.7699 13.5739 31.2782 12.833 32.3993 11.7079C32.5817 11.5243 32.7525 11.3304 32.9132 11.1284C33.845 9.95656 34.4031 8.47832 34.4031 6.87131C34.4031 3.08253 31.3068 0 27.5014 0C23.6966 0 20.601 3.08253 20.601 6.87131C20.601 8.47832 21.1591 9.95656 22.0903 11.1284C22.2509 11.3311 22.4224 11.5249 22.6048 11.7079C23.7252 12.833 25.2335 13.5732 26.9099 13.7162V21.6943C24.0233 21.8848 21.5103 23.4552 20.032 25.7488L12.9887 21.8949C13.5074 20.9311 13.8027 19.8325 13.8027 18.6646C13.8027 14.8759 10.7072 11.7927 6.90172 11.7927C3.09624 11.7927 0.000680269 14.8752 0.000680269 18.6646C0.000680269 20.2717 0.558808 21.7499 1.48993 22.9218C1.65056 23.1237 1.82208 23.3183 2.00449 23.5013C3.25551 24.7572 4.98843 25.5366 6.90103 25.5366C8.81364 25.5366 10.5466 24.7572 11.7976 23.5013C11.98 23.3183 12.1508 23.1237 12.3121 22.9218C12.3217 22.9096 12.3305 22.8967 12.34 22.8845L19.4589 26.7797C18.9266 27.9129 18.6278 29.1763 18.6278 30.5075C18.6278 30.6484 18.6319 30.7901 18.6387 30.9297C18.6408 30.9772 18.6448 31.0246 18.6482 31.072C18.6537 31.1635 18.6605 31.255 18.6693 31.3452C18.6748 31.4028 18.6816 31.4597 18.6877 31.516C18.6966 31.596 18.7068 31.6759 18.7183 31.7559C18.7272 31.8169 18.736 31.8772 18.7463 31.9376C18.7585 32.0114 18.7721 32.0853 18.7864 32.1592C18.7987 32.2222 18.8102 32.2853 18.8238 32.3469C18.8381 32.4147 18.8545 32.4811 18.8701 32.5482C18.8858 32.6153 18.9008 32.6818 18.9185 32.7482C18.9253 32.7726 18.9328 32.7977 18.9402 32.8227C18.9906 33.0064 19.0471 33.1881 19.109 33.3677C19.1206 33.4016 19.1315 33.4355 19.1431 33.4687C19.1744 33.5561 19.2084 33.6429 19.2424 33.7296C19.2561 33.7628 19.2683 33.796 19.2819 33.8286C19.318 33.918 19.3561 34.0055 19.3949 34.0929C19.4072 34.1193 19.4187 34.1458 19.431 34.1722C19.4405 34.1932 19.45 34.2149 19.4596 34.2359L12.3414 38.1304C11.0775 36.5187 9.10972 35.4796 6.90103 35.4796C3.09556 35.4796 0 38.5622 0 42.3516C0 43.958 0.558127 45.4369 1.48925 46.6081C1.64988 46.8107 1.8214 47.0046 2.00381 47.1869C3.25483 48.4435 4.98775 49.2229 6.90035 49.2229C8.81296 49.2229 10.5459 48.4435 11.7969 47.1869C11.9793 47.0039 12.1502 46.81 12.3115 46.6081C13.2426 45.4362 13.8007 43.958 13.8007 42.3516C13.8007 41.1838 13.506 40.0845 12.988 39.12L20.0299 35.2668C20.0361 35.277 20.0436 35.2858 20.0497 35.296C20.1518 35.4525 20.2607 35.6057 20.3723 35.7568C20.4043 35.7995 20.437 35.8436 20.4703 35.8856C20.4948 35.9175 20.5173 35.95 20.5418 35.9805C20.6432 36.1086 20.748 36.234 20.8562 36.3567C20.859 36.3594 20.8617 36.3635 20.8651 36.3668C20.9638 36.478 21.0659 36.5858 21.17 36.6915C21.1816 36.7037 21.1918 36.7152 21.2034 36.7274C21.2667 36.7918 21.3334 36.8528 21.3987 36.9138C21.4232 36.9369 21.4464 36.9599 21.4702 36.9829C21.5498 37.0568 21.6322 37.1287 21.7145 37.1992C21.739 37.2202 21.7635 37.2419 21.788 37.2635C21.8731 37.334 21.9596 37.4032 22.0474 37.4716C22.0712 37.4906 22.0943 37.5103 22.1188 37.5279C22.2087 37.597 22.3013 37.6628 22.3938 37.7285C22.4163 37.7441 22.4387 37.7617 22.4626 37.7766C22.5585 37.8437 22.6559 37.9061 22.7546 37.9691L22.8179 38.0098C22.92 38.0735 23.0241 38.1338 23.1289 38.1935C23.1473 38.2036 23.165 38.2138 23.1834 38.2246C23.2923 38.2856 23.4032 38.3432 23.5148 38.3995C23.5298 38.407 23.5448 38.4144 23.5604 38.4225C23.6761 38.4802 23.7932 38.5344 23.9117 38.5866C23.9239 38.592 23.9355 38.5974 23.9477 38.6022C24.0696 38.6557 24.1934 38.7059 24.318 38.754C24.3268 38.7574 24.3357 38.7614 24.3445 38.7648C24.4725 38.8129 24.6018 38.859 24.7318 38.9017C24.738 38.9038 24.7448 38.9058 24.7509 38.9085C24.8843 38.9512 25.0184 38.9912 25.1545 39.0285C25.1586 39.0298 25.1627 39.0312 25.1668 39.0325C25.3042 39.0698 25.4424 39.103 25.5819 39.1342C25.5847 39.1342 25.5881 39.1356 25.5908 39.1362C25.7317 39.1674 25.8733 39.1945 26.0162 39.2183C26.0182 39.2189 26.021 39.2189 26.023 39.2196C26.1659 39.2433 26.3096 39.2637 26.4545 39.2813C26.4579 39.2813 26.4607 39.282 26.4641 39.282C26.6077 39.2982 26.752 39.3118 26.8976 39.322C26.901 39.322 26.9044 39.3226 26.9078 39.3226V47.2811C23.3535 47.5556 20.5459 50.5216 20.5459 54.1294C20.5459 55.7357 21.104 57.2146 22.0351 58.3858C22.1964 58.5885 22.3673 58.7823 22.5497 58.9653C23.8034 60.2212 25.5363 61 27.449 61C29.3622 61 31.0945 60.2212 32.3455 58.9646C32.5286 58.781 32.6994 58.5871 32.8601 58.3851C33.7912 57.2133 34.3493 55.735 34.3493 54.1287C34.3493 50.5561 31.5968 47.6125 28.0928 47.2879V39.3213C28.0962 39.3213 28.1003 39.3206 28.1037 39.3206C28.2494 39.3104 28.3937 39.2976 28.5366 39.2806C28.54 39.2806 28.5434 39.2799 28.5475 39.2793C28.6918 39.263 28.8354 39.242 28.9777 39.2183C28.9804 39.2176 28.9838 39.2169 28.9865 39.2169C29.1288 39.1925 29.2704 39.1654 29.4106 39.1349C29.414 39.1342 29.4174 39.1329 29.4208 39.1322C29.5603 39.1017 29.6978 39.0678 29.8346 39.0312C29.8394 39.0292 29.8448 39.0278 29.8489 39.0264C29.9837 38.9898 30.1178 38.9499 30.2498 38.9072C30.2573 38.9044 30.2641 38.9017 30.2709 38.8997C30.4002 38.857 30.5289 38.8116 30.6561 38.7635C30.6657 38.7601 30.6738 38.756 30.6834 38.7526C30.8086 38.7045 30.9311 38.6537 31.053 38.6008C31.0652 38.5954 31.0761 38.59 31.0883 38.5852C31.2075 38.533 31.3252 38.4781 31.4409 38.4205C31.4552 38.4131 31.4688 38.4063 31.4831 38.3995C31.5961 38.3426 31.7084 38.2836 31.8187 38.2219C31.8343 38.2131 31.85 38.2043 31.8656 38.1948C31.9739 38.1338 32.08 38.0715 32.1855 38.0064C32.2026 37.9955 32.2196 37.9847 32.2366 37.9732C32.3387 37.9081 32.4408 37.8424 32.5408 37.7732C32.5585 37.7604 32.5762 37.7475 32.5946 37.7346C32.6926 37.6655 32.7893 37.5957 32.8846 37.5231C32.9023 37.5096 32.9193 37.4953 32.937 37.4818C33.0316 37.4086 33.1248 37.334 33.216 37.2568C33.2331 37.2425 33.2494 37.2283 33.2657 37.2141C33.3569 37.1368 33.4475 37.0575 33.5353 36.9762C33.5496 36.9619 33.5645 36.9477 33.5795 36.9335C33.6523 36.865 33.7265 36.7972 33.7966 36.7254C33.8102 36.7118 33.8211 36.6983 33.8347 36.6854C33.9368 36.5803 34.0389 36.4733 34.1356 36.3635C34.1376 36.3614 34.1397 36.3587 34.1424 36.3567C34.2506 36.2333 34.3561 36.1079 34.4582 35.9785C34.4813 35.9493 34.5024 35.9188 34.5263 35.889C34.5617 35.8436 34.5971 35.7962 34.6311 35.7501C34.7393 35.605 34.8441 35.4573 34.9421 35.3061C34.9517 35.2919 34.9619 35.279 34.9707 35.2648L42.012 39.1173C41.494 40.0817 41.1993 41.1818 41.1993 42.3496C41.1993 43.9559 41.7574 45.4348 42.6885 46.606C42.8499 46.8087 43.0207 47.0025 43.2031 47.1849C44.4548 48.4415 46.187 49.2209 48.0996 49.2209C50.0123 49.2209 51.7452 48.4415 52.9962 47.1849C53.1793 47.0019 53.3501 46.808 53.5108 46.606C54.4419 45.4342 55 43.9559 55 42.3496C55 38.5601 51.9044 35.4776 48.099 35.4776C45.891 35.4776 43.9232 36.5166 42.6593 38.1284L35.5418 34.2339C35.5534 34.2115 35.5629 34.1878 35.5738 34.1647C35.584 34.1417 35.5942 34.1193 35.6051 34.0949C35.6459 34.0055 35.684 33.9146 35.7222 33.8238C35.7344 33.7933 35.746 33.7635 35.7576 33.733C35.7929 33.6442 35.8277 33.5554 35.8596 33.4646C35.8705 33.4355 35.8794 33.4056 35.8903 33.3758C35.9577 33.1806 36.0196 32.982 36.0741 32.78C36.0768 32.7685 36.0809 32.7584 36.0843 32.7462C36.1013 32.6784 36.1169 32.6099 36.1333 32.5415C36.1489 32.4757 36.1646 32.4113 36.1789 32.3456C36.1925 32.2819 36.2041 32.2182 36.2163 32.1545C36.2306 32.0819 36.2435 32.0087 36.2558 31.9362C36.266 31.8752 36.2748 31.8142 36.2837 31.7525C36.2953 31.6732 36.3048 31.5939 36.3143 31.5133C36.3211 31.457 36.3279 31.4001 36.3327 31.3432C36.3415 31.2523 36.3477 31.1608 36.3538 31.0693C36.3565 31.0219 36.3606 30.9738 36.3633 30.927C36.3701 30.7874 36.3742 30.6471 36.3742 30.5054C36.3742 29.1736 36.0754 27.9102 35.5425 26.777L42.6606 22.8818C42.6708 22.8974 42.6797 22.9096 42.6885 22.9218ZM33.9709 34.8981C33.327 34.3599 32.1236 33.9499 31.4967 33.6706C31.0986 33.4937 30.648 33.3867 30.4104 33.207L29.3241 32.1639C29.3139 32.0914 29.3241 32.0243 29.3466 31.9613L30.2974 31.6149C31.2007 31.2869 31.5389 30.3197 31.053 29.4555L30.6888 28.8069C30.7365 28.5534 30.7616 28.2904 30.7616 28.0207C30.7616 25.9596 29.3003 24.2882 27.4966 24.2882C25.6929 24.2882 24.2322 25.9596 24.2322 28.0207C24.2322 28.2904 24.2574 28.5534 24.3051 28.8069L23.9402 29.4555C23.4543 30.3197 23.7932 31.2862 24.6964 31.6149L25.6561 31.9647C25.6772 32.0264 25.6868 32.0921 25.6779 32.1639L24.5916 33.207C24.3541 33.3873 23.9035 33.4937 23.5053 33.6706C22.8791 33.9492 21.6757 34.3599 21.0319 34.8981C20.1742 33.6476 19.6719 32.1362 19.6719 30.5075C19.6719 26.2015 23.1766 22.7117 27.5007 22.7117C31.8248 22.7117 35.3294 26.2015 35.3294 30.5075C35.3308 32.1362 34.8285 33.6483 33.9709 34.8981Z" fill="#00A2E3"/>
</svg>
