<?xml version="1.0" encoding="UTF-8"?>
<svg id="Layer_2" data-name="Layer 2" xmlns="http://www.w3.org/2000/svg" xmlns:xlink="http://www.w3.org/1999/xlink" viewBox="0 0 134.75 120.21">
  <defs>
    <style>
      .cls-1 {
        fill: none;
      }

      .cls-2 {
        clip-path: url(#clippath-1);
      }

      .cls-3 {
        fill: #12416b;
      }

      .cls-4 {
        fill: #1aa2dc;
      }

      .cls-5 {
        clip-path: url(#clippath);
      }
    </style>
    <clipPath id="clippath">
      <rect class="cls-1" width="134.75" height="120.21"/>
    </clipPath>
    <clipPath id="clippath-1">
      <rect class="cls-1" width="134.75" height="120.21"/>
    </clipPath>
  </defs>
  <g id="Layer_1-2" data-name="Layer 1">
    <path class="cls-3" d="M38.07,109.79h57.37l28.69-49.68-28.69-49.68h-57.37L9.39,60.1l28.69,49.68ZM96.92,112.34h-60.32L6.44,60.1,36.6,7.86h60.32l30.16,52.24-30.16,52.24Z"/>
    <g class="cls-5">
      <path class="cls-3" d="M96.18,18.28h0c-5.05,0-9.14-4.09-9.14-9.14S91.14,0,96.18,0s9.14,4.09,9.14,9.14-4.09,9.14-9.14,9.14"/>
      <path class="cls-3" d="M125.61,69.24h0c-5.05,0-9.14-4.09-9.14-9.14s4.09-9.14,9.14-9.14,9.14,4.09,9.14,9.14-4.1,9.14-9.14,9.14"/>
      <path class="cls-3" d="M96.18,120.21h0c-5.05,0-9.14-4.09-9.14-9.14s4.09-9.14,9.14-9.14,9.14,4.09,9.14,9.14-4.09,9.14-9.14,9.14"/>
      <path class="cls-3" d="M38.89,120.21h0c-5.05,0-9.14-4.09-9.14-9.14s4.09-9.14,9.14-9.14,9.14,4.09,9.14,9.14-4.09,9.14-9.14,9.14"/>
      <path class="cls-3" d="M9.14,69.4h0C4.09,69.4,0,65.31,0,60.26s4.09-9.14,9.14-9.14,9.14,4.09,9.14,9.14-4.1,9.14-9.14,9.14"/>
      <path class="cls-3" d="M38.89,18.28h0c-5.05,0-9.14-4.09-9.14-9.14S33.84,0,38.89,0s9.14,4.09,9.14,9.14-4.09,9.14-9.14,9.14"/>
    </g>
    <rect class="cls-3" x="65.62" y="26" width="41.33" height="2.56" transform="translate(21.01 89.95) rotate(-61.38)"/>
    <rect class="cls-3" x="27.37" y="91.65" width="41.33" height="2.56" transform="translate(-56.55 90.59) rotate(-61.38)"/>
    <rect class="cls-3" x="84.47" y="59.87" width="41.33" height="2.56"/>
    <rect class="cls-3" x="8.51" y="57.77" width="41.33" height="2.56"/>
    <rect class="cls-3" x="47.8" y="6.02" width="2.56" height="41.33" transform="translate(-6.77 28.12) rotate(-30)"/>
    <rect class="cls-3" x="83.95" y="72.85" width="2.56" height="41.33" transform="translate(-35.34 55.15) rotate(-30)"/>
    <g class="cls-2">
      <path class="cls-4" d="M64.46,74.42c-7.79-1.58-12.83-9.19-11.24-16.98,1.59-7.79,9.19-12.83,16.98-11.24,7.79,1.59,12.82,9.19,11.24,16.98-1.58,7.79-9.19,12.82-16.98,11.24M95.56,64.14l-.21-8.99,7.49-4.83-6.61-12.93-8.31,3.24-7.15-5.43.9-8.87-14.24-2.9-2.64,8.52-8.71,2.21-6.38-6.23-11.14,9.32,5.01,7.37-3.7,8.19-8.85,1.1.35,14.52,8.89.68,4.09,8-4.66,7.6,11.57,8.79,6.08-6.52,8.81,1.79,3.04,8.38,14.08-3.57-1.31-8.82,6.89-5.77,8.45,2.85,5.99-13.23-7.71-4.47Z"/>
    </g>
  </g>
</svg>