<svg width="60" height="61" viewBox="0 0 60 61" fill="none" xmlns="http://www.w3.org/2000/svg">
<path d="M4.19314 22.0524C4.62291 22.5685 4.8444 23.2265 4.81418 23.8975C4.78396 24.5684 4.50421 25.2039 4.02978 25.6792L3.30004 26.409C3.19788 26.509 3.11672 26.6285 3.06131 26.7603C3.00591 26.8922 2.97737 27.0338 2.97737 27.1768C2.97737 27.3198 3.00591 27.4614 3.06131 27.5932C3.11672 27.7251 3.19788 27.8445 3.30004 27.9446L3.59407 28.2387L6.91596 31.5605C7.01671 31.6615 7.13639 31.7417 7.26814 31.7963C7.3999 31.851 7.54115 31.8791 7.6838 31.8791C7.82645 31.8791 7.9677 31.851 8.09945 31.7963C8.23121 31.7417 8.35089 31.6615 8.45163 31.5605L9.18136 30.8308C9.56122 30.4626 10.0405 30.2136 10.5602 30.1145C11.0799 30.0154 11.6172 30.0706 12.1059 30.2733C12.5946 30.476 13.0133 30.8172 13.3103 31.255C13.6074 31.6927 13.7698 32.2079 13.7776 32.7369V33.7715C13.7784 34.0601 13.8934 34.3367 14.0975 34.5407C14.3016 34.7448 14.5781 34.8598 14.8667 34.8606H19.9857C20.2743 34.8598 20.5508 34.7448 20.7549 34.5407C20.9589 34.3367 21.074 34.0601 21.0748 33.7715C20.9122 33.0843 20.9874 32.3623 21.2881 31.7234C21.5888 31.0845 22.0972 30.5663 22.7303 30.2535C23.2222 30.0458 23.7649 29.9897 24.2889 30.0926C24.8129 30.1955 25.2942 30.4525 25.671 30.8308L26.4006 31.5605C26.5014 31.6615 26.6211 31.7417 26.7529 31.7963C26.8846 31.851 27.0259 31.8792 27.1685 31.8792C27.3112 31.8792 27.4525 31.851 27.5842 31.7963C27.716 31.7417 27.8357 31.6615 27.9364 31.5605L31.5522 27.9446C31.6544 27.8445 31.7355 27.7251 31.7909 27.5932C31.8463 27.4614 31.8749 27.3198 31.8749 27.1768C31.8749 27.0338 31.8463 26.8922 31.7909 26.7603C31.7355 26.6285 31.6544 26.509 31.5522 26.409C30.9179 26.0696 30.4325 25.5063 30.1906 24.8289C29.9486 24.1514 29.9674 23.4081 30.2432 22.7437C30.519 22.0792 31.0322 21.5412 31.6828 21.2343C32.3335 20.9273 33.075 20.8734 33.7632 21.0831C34.0518 21.0822 34.3284 20.9672 34.5324 20.7631C34.7365 20.5591 34.8516 20.2825 34.8524 19.9939V14.875C34.8515 14.5864 34.7365 14.3098 34.5324 14.1058C34.3283 13.9017 34.0518 13.7867 33.7632 13.7859H32.7285C32.1996 13.7781 31.6844 13.6157 31.2466 13.3186C30.8089 13.0215 30.4676 12.6029 30.265 12.1142C30.0623 11.6255 30.0071 11.0882 30.1062 10.5685C30.2053 10.0488 30.4543 9.5695 30.8226 9.18966C31.1276 8.84116 31.9553 8.25309 31.879 7.68671C31.8784 7.54422 31.8492 7.4033 31.793 7.27233C31.7369 7.14136 31.655 7.02301 31.5522 6.92432L27.9364 3.3083C27.8357 3.20733 27.716 3.12722 27.5842 3.07256C27.4524 3.0179 27.3112 2.98977 27.1685 2.98977C27.0259 2.98977 26.8846 3.0179 26.7529 3.07256C26.6211 3.12722 26.5014 3.20733 26.4006 3.3083L25.671 4.03813C25.2939 4.41377 24.8141 4.66932 24.2919 4.77255C23.7698 4.87578 23.2288 4.82207 22.7371 4.61818C22.2455 4.4143 21.8252 4.06938 21.5294 3.62694C21.2335 3.18449 21.0754 2.66434 21.0748 2.1321V1.09743C21.0765 1.07153 21.0728 1.04556 21.0639 1.02118C21.0478 0.746495 20.9271 0.488414 20.7265 0.300016C20.526 0.111618 20.2609 0.00722603 19.9857 0.00830913H14.8667C14.5781 0.00914199 14.3016 0.124154 14.0975 0.328222C13.8935 0.532289 13.7785 0.808823 13.7776 1.09742V2.1321C13.5489 5.23617 10.1507 5.65 8.45167 3.30833C8.35091 3.20736 8.23122 3.12725 8.09947 3.0726C7.96771 3.01794 7.82647 2.98981 7.68383 2.98981C7.54119 2.98981 7.39994 3.01794 7.26819 3.0726C7.13643 3.12725 7.01675 3.20736 6.91599 3.30833L3.30007 6.92435C3.1979 7.02443 3.11674 7.1439 3.06133 7.27574C3.00593 7.40759 2.97739 7.54917 2.97739 7.69218C2.97739 7.8352 3.00593 7.97678 3.06133 8.10863C3.11674 8.24047 3.1979 8.35994 3.30007 8.46002L4.02981 9.18967C4.39805 9.56951 4.64707 10.0488 4.74615 10.5685C4.84523 11.0882 4.79004 11.6255 4.58739 12.1142C4.38474 12.6029 4.04349 13.0216 3.60572 13.3186C3.16796 13.6157 2.65282 13.7781 2.12384 13.7859H1.08911C0.800517 13.7867 0.523988 13.9018 0.319924 14.1058C0.11586 14.3099 0.000844851 14.5864 0 14.875V19.994C0.000844752 20.2826 0.115858 20.5591 0.31992 20.7632C0.523982 20.9672 0.80051 21.0823 1.08911 21.0832C1.64631 20.9776 2.22094 21.0107 2.76228 21.1798C3.30362 21.3488 3.79503 21.6485 4.19314 22.0524ZM17.4262 10.05C18.8867 10.05 20.3144 10.4831 21.5287 11.2945C22.7431 12.1059 23.6896 13.2592 24.2485 14.6085C24.8074 15.9579 24.9536 17.4426 24.6687 18.875C24.3838 20.3075 23.6805 21.6233 22.6478 22.656C21.615 23.6887 20.2993 24.392 18.8668 24.6769C17.4344 24.9619 15.9496 24.8156 14.6003 24.2567C13.251 23.6978 12.0977 22.7513 11.2863 21.537C10.4749 20.3226 10.0418 18.8949 10.0418 17.4344C10.0435 15.4765 10.822 13.5992 12.2065 12.2147C13.591 10.8302 15.4682 10.0517 17.4262 10.05Z" fill="#00A2E3"/>
<path d="M53.8686 26.594C53.6508 26.1734 53.5387 25.7062 53.5418 25.2326V19.079C53.716 3.8963 35.6146 -1.88704 23.2419 0.530859C23.2637 0.933795 23.2201 1.91411 23.2746 2.29528C23.7756 3.21015 24.4508 2.13193 24.8648 1.77254C25.4763 1.16406 26.3033 0.821558 27.166 0.819502C28.0287 0.817446 28.8573 1.156 29.4718 1.76156L33.0878 5.38847C33.6998 6.00104 34.0435 6.83152 34.0435 7.69742C34.0435 8.56331 33.6998 9.39379 33.0878 10.0064L32.3581 10.7252C32.2886 10.7989 32.242 10.8912 32.224 10.9909C32.2059 11.0905 32.2172 11.1933 32.2564 11.2867C32.2956 11.3801 32.361 11.4601 32.4448 11.517C32.5286 11.574 32.6271 11.6054 32.7283 11.6074H33.763C34.6288 11.6099 35.4584 11.955 36.0706 12.5672C36.6828 13.1794 37.0279 14.0091 37.0304 14.8749V19.9938C37.0279 20.8596 36.6828 21.6893 36.0706 22.3015C35.4584 22.9137 34.6288 23.2587 33.763 23.2612H32.7283C32.6276 23.2644 32.5299 23.2965 32.4468 23.3536C32.3637 23.4107 32.2989 23.4905 32.2598 23.5834C32.2208 23.6764 32.2094 23.7786 32.2268 23.8779C32.2442 23.9771 32.2897 24.0693 32.3581 24.1435L33.0878 24.8732C33.3952 25.1787 33.6384 25.5426 33.803 25.9436C33.9676 26.3445 34.0503 26.7743 34.0462 27.2077C34.0422 27.6411 33.9514 28.0693 33.7793 28.4671C33.6073 28.8648 33.3573 29.2242 33.0442 29.5239L29.4718 33.0962C28.8601 33.7057 28.0318 34.0479 27.1683 34.0479C26.3048 34.0479 25.4765 33.7057 24.8648 33.0962L24.135 32.3665C24.0613 32.297 23.969 32.2505 23.8693 32.2324C23.7697 32.2144 23.6669 32.2257 23.5735 32.2649C23.4801 32.3041 23.4001 32.3695 23.3432 32.4533C23.2862 32.5371 23.2548 32.6356 23.2527 32.7368V33.7715C23.2502 34.6373 22.9052 35.4669 22.293 36.0791C21.6808 36.6913 20.8512 37.0364 19.9854 37.0389H14.8664C14.0007 37.0364 13.171 36.6913 12.5588 36.0791C11.9466 35.4669 11.6016 34.6373 11.599 33.7715C11.5555 33.3032 11.8278 32.214 11.0762 32.2249C11.0099 32.2236 10.944 32.2354 10.8823 32.2597C10.8206 32.284 10.7644 32.3203 10.7168 32.3665L9.98709 33.0962C9.37537 33.7057 8.54705 34.0479 7.68354 34.0479C6.82002 34.0479 5.9917 33.7057 5.37998 33.0962L1.76405 29.4803C1.65053 29.3719 1.54499 29.2554 1.44824 29.1317C1.69184 35.8809 4.09292 42.3741 8.29892 47.6581C9.60795 48.8312 10.4088 50.468 10.5316 52.2215V59.9108C10.5325 60.1994 10.6475 60.476 10.8516 60.68C11.0556 60.8841 11.3322 60.9991 11.6208 61H41.2998C41.5884 60.9992 41.865 60.8841 42.0691 60.68C42.2732 60.476 42.3882 60.1994 42.389 59.9108V54.7265C42.3885 54.5433 42.4241 54.3617 42.494 54.1923C42.5639 54.0229 42.6665 53.869 42.7961 53.7394C42.9257 53.6099 43.0796 53.5072 43.249 53.4373C43.4184 53.3675 43.5999 53.3318 43.7832 53.3324H49.6644C50.6938 53.3295 51.6799 52.9186 52.4068 52.1897C53.1336 51.4609 53.5418 50.4735 53.5418 49.4442V38.7597C53.5408 38.7194 53.548 38.6793 53.563 38.6418C53.578 38.6044 53.6004 38.5704 53.6289 38.5419C53.6575 38.5133 53.6915 38.4909 53.7289 38.4759C53.7664 38.461 53.8065 38.4537 53.8468 38.4547H57.2558C57.6612 38.4507 58.0585 38.3415 58.409 38.1378C58.7595 37.9341 59.0511 37.643 59.2553 37.2928C59.4595 36.9426 59.5693 36.5453 59.5739 36.14C59.5785 35.7346 59.4778 35.335 59.2816 34.9803L53.8686 26.594Z" fill="#00A2E3"/>
</svg>
