<?xml version="1.0" encoding="UTF-8"?>
<svg id="Layer_2" data-name="Layer 2" xmlns="http://www.w3.org/2000/svg" xmlns:xlink="http://www.w3.org/1999/xlink" viewBox="0 0 137.62 133.95">
  <defs>
    <style>
      .cls-1 {
        fill: none;
      }

      .cls-2 {
        fill: #12416b;
      }

      .cls-3 {
        fill: #1aa2dc;
      }

      .cls-4 {
        clip-path: url(#clippath);
      }
    </style>
    <clipPath id="clippath">
      <rect class="cls-1" width="137.62" height="133.95"/>
    </clipPath>
  </defs>
  <g id="Layer_1-2" data-name="Layer 1">
    <g class="cls-4">
      <path class="cls-2" d="M61.35,41.41c-1.29.31-2.36,1.33-2.66,2.54-.29,1.13-.03,2.23.71,3.1.99,1.16,2.72,1.63,4.2,1.18,1.42-.43,2.99-.79,4.81-1.08.8-.13,1.61.07,2.22.55.62.48.98,1.19.98,1.94v11.85h9.38c-.09-.27-.17-.53-.26-.79-.31-.87-.46-1.77-.46-2.68,0-2.64,1.28-5.11,3.52-6.75,2.24-1.65,5.14-2.24,7.97-1.63,3.28.71,5.94,3.12,6.78,6.13.46,1.66.41,3.38-.16,4.96-.09.25-.18.5-.26.76h10.22c-1.34-18.25-17.04-32.81-36.72-34.06v12.63c0,.74-.35,1.45-.96,1.93-.61.48-1.42.69-2.21.56-1.75-.27-3.32-.63-4.81-1.09-.72-.22-1.48-.24-2.26-.05"/>
      <path class="cls-2" d="M45.14,62.38c.52.57.74,1.32.61,2.05-.29,1.62-.68,3.08-1.17,4.46-.24.67-.26,1.37-.06,2.1.33,1.19,1.43,2.19,2.74,2.47,1.22.27,2.4.03,3.35-.66.92-.68,1.46-1.7,1.46-2.79,0-.38-.06-.75-.19-1.1-.47-1.32-.84-2.74-1.17-4.45-.14-.74.08-1.49.59-2.07.52-.57,1.28-.9,2.09-.9h12.78v-8.7c-.29.08-.58.16-.85.24-.93.28-1.9.43-2.89.43-2.85,0-5.51-1.19-7.28-3.27-1.77-2.08-2.41-4.77-1.75-7.39.77-3.04,3.36-5.5,6.61-6.28,1.8-.43,3.65-.38,5.35.15.27.09.54.16.82.24v-9.47c-19.68,1.25-35.37,15.81-36.72,34.06h13.62c.8,0,1.56.33,2.08.9"/>
      <path class="cls-2" d="M94.71,66.54c-.8,0-1.56-.33-2.08-.9-.52-.57-.74-1.32-.61-2.05.29-1.62.68-3.08,1.17-4.46.24-.66.26-1.37.05-2.1-.33-1.2-1.43-2.19-2.74-2.47-1.22-.27-2.4-.03-3.35.66-.93.68-1.46,1.7-1.46,2.79,0,.38.06.75.19,1.11.47,1.32.84,2.74,1.17,4.45.14.74-.08,1.49-.6,2.06-.52.57-1.28.9-2.09.9h-12.78v8.7c.29-.08.58-.16.85-.24.93-.28,1.9-.43,2.89-.43,2.85,0,5.51,1.19,7.28,3.26,1.77,2.08,2.41,4.77,1.75,7.39-.77,3.04-3.36,5.5-6.61,6.28-1.79.43-3.64.38-5.35-.15-.27-.08-.54-.16-.82-.24v15.99h13.44c.92,0,1.66-.69,1.66-1.54v-3.22c0-3.25,1.73-6.29,4.62-8.14,9.64-6.17,16.19-16.19,17.03-27.67h-13.65Z"/>
      <path class="cls-2" d="M51.05,105.57c0,.85.74,1.54,1.66,1.54h13.44v-19.15c0-.74.35-1.45.96-1.93.61-.48,1.42-.68,2.21-.56,1.75.27,3.33.63,4.81,1.09.71.22,1.48.24,2.26.05,1.29-.31,2.36-1.33,2.67-2.54.28-1.13.03-2.23-.71-3.1-.99-1.16-2.72-1.63-4.2-1.18-1.43.43-3,.79-4.81,1.08-.79.13-1.6-.07-2.22-.55-.62-.48-.97-1.19-.97-1.93v-11.85h-9.38c.09.27.17.53.26.79.31.87.46,1.77.46,2.68,0,2.65-1.28,5.11-3.52,6.75-1.66,1.22-3.69,1.86-5.78,1.86-.73,0-1.47-.08-2.2-.23-3.28-.71-5.93-3.12-6.77-6.13-.46-1.66-.41-3.38.16-4.96.09-.25.18-.5.26-.76h-10.25c.84,11.48,7.39,21.5,17.03,27.67,2.89,1.85,4.62,4.89,4.62,8.14v3.22Z"/>
      <path class="cls-2" d="M85.05,112.19h-32.33c-.92,0-1.66.69-1.66,1.54v8.99c0,.85.74,1.54,1.66,1.54h3.83c.99,5.49,6.13,9.68,12.34,9.68s11.34-4.19,12.34-9.68h3.83c.92,0,1.66-.69,1.66-1.54v-8.99c0-.85-.74-1.54-1.66-1.54"/>
      <path class="cls-3" d="M68.88,18.5c-2.31,0-4.18-1.74-4.18-3.88V3.88C64.7,1.73,66.57,0,68.88,0s4.18,1.74,4.18,3.88v10.74c0,2.14-1.87,3.88-4.18,3.88"/>
      <path class="cls-3" d="M42.35,25.05c-1.45,0-2.85-.69-3.62-1.94l-5.79-9.3c-1.16-1.85-.47-4.22,1.53-5.29,1.99-1.07,4.56-.44,5.71,1.42l5.79,9.3c1.15,1.85.47,4.22-1.53,5.29-.66.35-1.37.52-2.08.52"/>
      <path class="cls-3" d="M22.9,43.04c-.71,0-1.43-.17-2.09-.52l-10.03-5.38c-2-1.07-2.68-3.44-1.53-5.3,1.16-1.86,3.71-2.48,5.71-1.42l10.03,5.38c2,1.07,2.68,3.44,1.53,5.3-.78,1.24-2.18,1.94-3.62,1.94"/>
      <path class="cls-3" d="M15.77,67.64H4.18C1.87,67.64,0,65.9,0,63.76s1.87-3.88,4.18-3.88h11.59c2.31,0,4.18,1.74,4.18,3.88s-1.87,3.88-4.18,3.88"/>
      <path class="cls-3" d="M12.81,97.62c-1.45,0-2.85-.69-3.62-1.94-1.15-1.85-.47-4.22,1.53-5.29l10.04-5.38c2-1.07,4.55-.44,5.71,1.42,1.15,1.85.47,4.22-1.53,5.29l-10.04,5.38c-.66.35-1.37.52-2.09.52"/>
      <path class="cls-3" d="M124.75,97.73c-.71,0-1.43-.17-2.09-.52l-10.03-5.37c-2-1.07-2.69-3.44-1.53-5.29,1.15-1.86,3.71-2.49,5.7-1.42l10.03,5.37c2,1.07,2.69,3.44,1.53,5.29-.77,1.25-2.18,1.94-3.62,1.94"/>
      <path class="cls-3" d="M133.44,67.76h-11.59c-2.31,0-4.18-1.74-4.18-3.88s1.87-3.88,4.18-3.88h11.59c2.31,0,4.18,1.74,4.18,3.88s-1.87,3.88-4.18,3.88"/>
      <path class="cls-3" d="M114.79,43.15c-1.45,0-2.85-.69-3.62-1.94-1.16-1.85-.47-4.22,1.53-5.29l10.03-5.37c1.99-1.07,4.56-.43,5.71,1.42,1.16,1.85.47,4.22-1.53,5.29l-10.03,5.37c-.65.35-1.37.52-2.08.52"/>
      <path class="cls-3" d="M95.39,25.12c-.71,0-1.43-.17-2.09-.52-2-1.07-2.68-3.44-1.53-5.29l5.79-9.3c1.15-1.86,3.71-2.5,5.71-1.42,2,1.07,2.69,3.44,1.53,5.29l-5.79,9.3c-.77,1.25-2.18,1.94-3.62,1.94"/>
    </g>
  </g>
</svg>