<svg width="62" height="62" viewBox="0 0 62 62" fill="none" xmlns="http://www.w3.org/2000/svg">
<path d="M32 0C39.9579 0.373121 47.1298 3.75184 52.4053 9.02728C57.6846 14.3066 61.0645 21.4852 61.4333 29.4504H54.0563C53.6949 23.5205 51.1417 18.1824 47.196 14.2366C43.2542 10.2949 37.9229 7.74263 32 7.37735L32 0Z" fill="#00A2E3"/>
<path d="M32.3802 61.812C40.3382 61.4389 47.5101 58.0601 52.7856 52.7847C58.0571 47.5132 61.4348 40.3481 61.8121 32.3972H54.4345C54.0652 38.313 51.5141 43.6375 47.5762 47.5753C43.6345 51.5171 38.3032 54.0694 32.3803 54.4346L32.3802 61.812Z" fill="#00A2E3"/>
<path d="M0.00170898 32.3972C0.379013 40.3482 3.75674 47.5133 9.02818 52.7847C14.3036 58.0602 21.4755 61.4389 29.4335 61.812V54.4346C23.5106 54.0694 18.1793 51.5171 14.2375 47.5753C10.2997 43.6375 7.74857 38.3129 7.37925 32.3972L0.00170898 32.3972Z" fill="#00A2E3"/>
<path d="M29.4334 0C21.4754 0.373121 14.3036 3.75184 9.02804 9.02728C3.7487 14.3066 0.368889 21.4852 0 29.4504H7.37709C7.73843 23.5205 10.2917 18.1824 14.2374 14.2366C18.1792 10.2949 23.5105 7.74263 29.4334 7.37735L29.4334 0Z" fill="#00A2E3"/>
</svg>
