<svg width="63" height="62" viewBox="0 0 63 62" fill="none" xmlns="http://www.w3.org/2000/svg">
<path d="M59.5636 27.5833C57.9648 27.5833 56.6151 28.6158 56.1902 30.0233H50.562C50.4773 28.3653 50.169 26.7644 49.6697 25.2467H52.1143C52.4532 25.2467 52.7666 25.0701 52.9385 24.7827L55.1004 21.1588C55.3507 21.2158 55.6081 21.2527 55.8756 21.2527C57.8132 21.2527 59.3897 19.7363 59.3897 17.8723C59.3897 15.937 57.8463 14.4212 55.8756 14.4212C53.9793 14.4212 52.4379 15.9696 52.4379 17.8723C52.4379 18.7965 52.8182 19.6336 53.4316 20.244L51.5678 23.3683H48.9333C47.0097 19.1521 43.5376 15.7586 39.2279 13.8821V11.2387L42.4064 9.40669C43.0274 10.0078 43.8778 10.3815 44.816 10.3815C46.7536 10.3815 48.3301 8.86573 48.3301 7.00242C48.3301 5.06712 46.7868 3.5513 44.816 3.5513C42.9198 3.5513 41.3783 5.09967 41.3783 7.00242C41.3783 7.26602 41.4165 7.52022 41.4745 7.7669L37.789 9.8913C37.4967 10.0603 37.3171 10.3684 37.3171 10.7015V13.1671C35.7724 12.6825 34.145 12.3832 32.4583 12.3012V6.69438C33.9138 6.27301 35.0138 4.92749 35.0138 3.37975C35.0138 1.54775 33.4061 0 31.5029 0C29.5646 0 27.9875 1.51644 27.9875 3.37975C27.9875 4.98885 29.055 6.30556 30.5474 6.70565V12.3037C28.8595 12.3857 27.2308 12.6863 25.6855 13.1727V10.7015C25.6855 10.3684 25.5059 10.0603 25.2135 9.8913L21.5261 7.76628C21.5847 7.51959 21.6223 7.26602 21.6223 7.00242C21.6223 5.09967 20.0809 3.5513 18.1853 3.5513C16.2145 3.5513 14.6711 5.06712 14.6711 7.00242C14.6711 8.86636 16.2476 10.3815 18.1853 10.3815C19.1235 10.3815 19.9739 10.0078 20.5943 9.40669L23.774 11.2387V13.8859C23.5759 13.9723 23.3771 14.0556 23.1829 14.1476C23.0166 14.1814 22.8599 14.2565 22.7293 14.3749C18.9031 16.3221 15.8298 19.4996 14.0635 23.3683H11.4341L9.56271 20.229C10.1806 19.6192 10.5621 18.7883 10.5621 17.8717C10.5621 15.9364 9.01938 14.4206 7.04989 14.4206C5.15366 14.4206 3.61157 15.969 3.61157 17.8717C3.61157 19.7363 5.1543 21.2521 7.04989 21.2521C7.34226 21.2521 7.62443 21.2133 7.89578 21.1488L10.0608 24.7815C10.2328 25.0695 10.5462 25.246 10.885 25.246H13.3386C12.8386 26.7637 12.531 28.3634 12.4469 30.0226H6.81103C6.38618 28.6151 5.03646 27.5827 3.43768 27.5827C1.54145 27.5827 0 29.0985 0 30.9618C0 32.8658 1.54209 34.4154 3.43768 34.4154C5.07468 34.4154 6.41421 33.3661 6.82186 31.901H12.4373C12.5208 33.5595 12.8265 35.1611 13.3227 36.6801H10.8857C10.5468 36.6801 10.2334 36.8566 10.0615 37.144L7.89705 40.7755C7.62507 40.7104 7.3429 40.6722 7.05053 40.6722C5.1543 40.6722 3.61221 42.1886 3.61221 44.0519C3.61221 45.9559 5.15493 47.5055 7.05053 47.5055C9.02002 47.5055 10.5627 45.9885 10.5627 44.0519C10.5627 43.1359 10.1806 42.3044 9.56335 41.6952L11.4341 38.5578H14.0546C15.9763 42.8047 19.4541 46.2233 23.7746 48.1116V50.6843L20.5809 52.5244C19.9611 51.9177 19.1165 51.5427 18.1853 51.5427C16.2145 51.5427 14.6711 53.0598 14.6711 54.9963C14.6711 56.8609 16.2476 58.3767 18.1853 58.3767C20.0809 58.3767 21.6223 56.8603 21.6223 54.9963C21.6223 54.7083 21.5828 54.4303 21.5172 54.163L25.2135 52.0329C25.5059 51.8639 25.6855 51.5558 25.6855 51.2228V48.831C27.2308 49.3181 28.8595 49.6193 30.5474 49.7013V55.2198C29.055 55.6199 27.9875 56.936 27.9875 58.5464C27.9875 60.4184 29.5971 62 31.5029 62C33.4055 62 35.0138 60.4191 35.0138 58.5464C35.0138 56.9373 33.9475 55.6206 32.4583 55.2205V49.7019C34.1443 49.6199 35.7724 49.3194 37.3171 48.8323V51.2234C37.3171 51.5565 37.4967 51.8645 37.789 52.0336L41.4841 54.163C41.4178 54.431 41.3783 54.7089 41.3783 54.997C41.3783 56.8615 42.9204 58.3773 44.816 58.3773C46.7536 58.3773 48.3301 56.8609 48.3301 54.997C48.3301 53.0604 46.7868 51.5433 44.816 51.5433C43.8841 51.5433 43.0395 51.919 42.4198 52.5251L39.2273 50.6849V48.1129C43.5472 46.2245 47.0256 42.8053 48.9467 38.5584H51.5672L53.4303 41.6808C52.8175 42.2919 52.4373 43.129 52.4373 44.0519C52.4373 45.9559 53.9793 47.5055 55.8749 47.5055C57.8457 47.5055 59.3891 45.9885 59.3891 44.0519C59.3891 42.188 57.8126 40.6722 55.8749 40.6722C55.6074 40.6722 55.3501 40.7097 55.0991 40.7661L52.9379 37.144C52.7659 36.8566 52.4525 36.6801 52.1137 36.6801H49.6767C50.1722 35.1611 50.4786 33.5602 50.562 31.901H56.1794C56.5871 33.3661 57.9253 34.4154 59.5636 34.4154C61.4585 34.4154 63 32.8658 63 30.9618C62.9994 29.0991 61.4579 27.5833 59.5636 27.5833ZM38.1426 46.5282C37.9795 46.5501 37.8304 46.6102 37.7043 46.7022C35.7801 47.4392 33.6889 47.8474 31.5022 47.8474C29.3143 47.8474 27.2231 47.4392 25.2976 46.7029C25.167 46.6077 25.0122 46.5463 24.8428 46.5263C20.7165 44.8145 17.4082 41.5619 15.6674 37.5059C15.647 37.3413 15.5852 37.191 15.4903 37.0639C14.7406 35.1705 14.3253 33.1138 14.3253 30.9631C14.3253 30.342 14.3629 29.7284 14.4297 29.1242C15.9597 28.267 16.4304 28.8067 17.747 30.6888C18.2802 31.4514 18.8846 32.3155 19.6917 33.1081C19.835 33.2484 19.9904 33.3955 20.1547 33.5508C22.0255 35.317 23.4759 36.9913 22.2714 39.6165C21.437 41.5443 21.1248 42.6763 21.7344 43.5109C22.1669 44.1026 22.8599 44.2585 23.7803 44.2585C24.2415 44.2585 24.7587 44.2191 25.3288 44.1765C28.6327 43.9329 28.669 42.1692 28.7079 40.3009C28.7168 39.8776 28.7257 39.4024 28.769 38.8508C28.8174 37.9223 28.9748 37.7395 28.9716 37.7395C29.0639 37.6912 29.4302 37.6875 29.6971 37.6844C30.2022 37.6794 30.8302 37.6731 31.6143 37.4871C33.0443 37.0845 34.0749 35.8361 34.1787 34.3804C34.273 33.0562 33.5698 31.8997 32.3545 31.3688C31.0258 30.7652 30.6188 30.2474 29.8079 29.2162C29.5741 28.9188 29.3155 28.5895 28.9741 28.1856C27.6531 26.7594 25.9944 27.4161 24.7842 27.8964C24.0039 28.205 23.2663 28.4956 22.6434 28.4129C21.6452 28.2376 20.4083 27.6109 20.1388 27.2415C20.3509 27.0286 21.3573 26.3204 25.6747 25.7576C28.3117 25.4395 29.8563 24.5473 30.2672 23.1054C30.8232 21.1544 29.1627 18.6011 25.2129 15.3272C27.1626 14.574 29.283 14.1551 31.5029 14.1551C37.4323 14.1551 42.6682 17.1122 45.7562 21.5971C45.3351 21.542 44.8791 21.4568 44.358 21.3228C41.1293 20.5809 39.3636 19.6267 38.1954 18.995C37.2374 18.4772 36.5457 18.1027 35.7565 18.3776C34.9297 18.6662 34.508 19.5534 34.0055 20.7687C32.8424 23.5192 34.5609 24.7833 35.5871 25.5391C36.6164 26.296 36.6158 26.3981 36.2903 26.9935C35.1711 29.1918 35.5654 30.0815 36.2947 31.1866C36.5979 31.6455 36.9107 32.1201 37.1164 32.9547C37.3024 33.7273 37.496 34.299 37.6515 34.7592C37.9859 35.7478 37.9859 35.7478 37.2094 36.3783C35.9157 37.4389 35.2469 38.4927 35.2214 39.5107C35.2062 40.1412 35.438 40.7197 35.9215 41.2194C35.9234 41.3527 35.9036 41.575 35.889 41.7328C35.8196 42.4985 35.7138 43.655 36.6693 44.308C37.0253 44.5515 37.4623 44.6755 38.0101 44.6755C39.1088 44.6755 40.6528 44.1753 42.8796 43.1315C43.2019 42.9881 43.5211 42.841 43.837 42.6932C42.2319 44.323 40.298 45.6341 38.1426 46.5282Z" fill="#00A2E3"/>
</svg>
