<svg width="47" height="49" viewBox="0 0 47 49" fill="none" xmlns="http://www.w3.org/2000/svg">
<g clip-path="url(#clip0_1209_2003)">
<mask id="mask0_1209_2003" style="mask-type:luminance" maskUnits="userSpaceOnUse" x="0" y="0" width="47" height="49">
<path d="M47 0H0V49H47V0Z" fill="white"/>
</mask>
<g mask="url(#mask0_1209_2003)">
<path d="M43.5836 48.2616L44.4713 48.2298C45.4827 48.1945 46.2981 47.3043 46.2878 46.2551L46.1915 36.0673C46.1846 35.0181 45.3486 34.195 44.3371 34.2303L43.4529 34.2621C42.4414 34.2975 41.626 35.1877 41.6329 36.2368L41.7292 46.4247C41.7395 47.4739 42.5721 48.297 43.5836 48.2616Z" fill="#49C8F5"/>
<path d="M1.35553 33.266L2.01265 34.0573C2.97942 35.223 4.67556 35.3537 5.79715 34.354C6.91874 33.3578 7.04603 31.5916 6.08615 30.4294L5.42902 29.631C4.45881 28.4723 2.76267 28.3381 1.64108 29.3343C0.522937 30.3305 0.39564 32.0967 1.35553 33.2625" fill="#49C8F5"/>
<path d="M6.87399 26.2221L9.55755 29.465C10.4968 30.606 10.3695 32.3229 9.27887 33.2943C8.18481 34.2693 6.52307 34.1386 5.58383 33.0046L2.90027 29.7653C1.96103 28.6243 2.08833 26.9075 3.17895 25.9289C4.27301 24.9575 5.93819 25.0882 6.87399 26.2186" fill="#49C8F5"/>
<path d="M6.80175 23.329L12.303 29.9772C12.9361 30.7438 12.8501 31.8954 12.1138 32.5525C11.381 33.2095 10.2594 33.1177 9.63324 32.3582L4.12852 25.7099C3.49892 24.9433 3.58149 23.7917 4.31774 23.1347C5.054 22.4812 6.17215 22.5695 6.80175 23.329Z" fill="#49C8F5"/>
<path d="M41.0136 45.7324L26.0098 48.2016C24.5063 48.4489 15.7607 41.2602 12.943 39.1124C11.8145 38.2504 11.4223 37.0211 12.1241 36.0391C12.9017 34.944 14.6047 34.7956 16.0153 35.5445L22.4592 38.9605C22.559 39.017 23.1921 39.0347 23.9146 39.0347C24.9261 39.0347 26.0167 38.9746 26.2644 38.9075L28.3424 38.314C25.4077 37.7594 25.0293 33.5839 28.2186 33.3049C35.1717 32.6973 36.8851 33.916 38.8564 35.3184C39.4585 35.7423 40.0881 36.1945 40.9276 36.5937V36.2404C40.9104 34.7885 42.032 33.5769 43.4288 33.5239C43.7453 33.5133 44.0618 33.4956 44.3818 33.4886C45.7545 33.4709 46.8865 34.6119 46.9037 36.0567L46.9965 46.2446C47.0103 47.6929 45.8887 48.9081 44.4919 48.9611C44.1754 48.9717 43.8554 48.9894 43.5389 48.9929C42.1662 49.0106 41.0342 47.8696 41.017 46.4248L41.0102 45.7253L41.0136 45.7324ZM40.9448 38.208C36.6201 36.4382 37.5043 33.9796 28.339 34.7815C26.7185 34.9228 27.355 36.8939 28.9617 36.901L33.3483 36.9222C34.1705 36.9222 34.3322 38.1515 33.5169 38.3705L26.6394 40.3276C26.0717 40.4901 22.5521 40.6632 21.8159 40.2746L15.3685 36.8551C14.2125 36.2439 13.1976 36.6643 13.1976 37.1165C13.1976 37.3284 13.373 37.6075 13.7859 37.9254C14.2228 38.2575 14.9763 38.851 15.8467 39.5363C19.091 42.0939 24.1003 46.0362 25.9547 46.7215L40.9964 44.2452L40.9414 38.208H40.9448ZM37.0536 20.3687C37.2429 17.8358 36.4928 15.2288 34.7726 13.1517C34.7451 13.1163 34.7107 13.081 34.6797 13.0457C34.2703 13.399 31.1911 16.119 31.0397 16.2038C30.6957 16.3981 30.2622 16.2674 30.0764 15.9106C29.3574 14.5435 27.3344 14.9674 27.2036 16.5359C27.1589 17.0622 27.3619 17.578 27.7747 17.9206C28.1222 18.2068 28.136 18.7614 27.7885 19.0616L25.5488 21.0151L27.3619 23.2512C27.964 22.7849 28.6865 22.5871 29.3849 22.6472C30.1108 22.7143 30.8195 23.0569 31.3425 23.6681L31.3528 23.6822C32.409 24.961 32.3093 26.8085 31.1602 27.9283L31.6693 28.5571C34.7761 27.0099 36.8025 23.8659 37.0571 20.3651L37.0536 20.3687ZM35.8529 12.1944C37.8312 14.5788 38.6879 17.5744 38.4745 20.4817C38.1649 24.7278 35.5742 28.49 31.7416 30.1432C31.4285 30.2775 31.081 30.1644 30.8884 29.8924L29.5741 28.271C29.2748 27.9036 29.3952 27.3455 29.8046 27.137C30.2863 26.8898 30.6097 26.3952 30.651 25.8441C30.7851 24.2474 28.7931 23.4703 27.8848 24.7702C27.6096 25.1623 27.0488 25.1977 26.7288 24.7632L24.0006 21.4002C23.746 21.0893 23.7873 20.6265 24.0831 20.3616L26.2988 18.4293C24.8572 16.3027 26.4983 13.3954 28.972 13.618C29.6429 13.678 30.2966 13.9783 30.8058 14.5011L34.2772 11.4702C34.5593 11.2264 34.9756 11.2441 35.2336 11.5126L35.8495 12.1979L35.8529 12.1944ZM5.33613 33.7959C5.23635 33.7005 5.13658 33.5981 5.04369 33.485L2.36014 30.2457C2.26724 30.1362 2.18467 30.0196 2.10898 29.903C1.28671 30.6307 1.19382 31.9378 1.89911 32.7856L2.58721 33.6157C3.27874 34.4318 4.5345 34.5236 5.33957 33.7994M11.7629 30.4576L6.26161 23.8129C5.66641 23.0923 4.49322 23.4632 4.42097 24.4382C4.40032 24.7172 4.48289 25.0069 4.66868 25.2295L10.17 31.8777C10.4968 32.2628 11.2399 32.4111 11.6115 32.0261C11.6115 32.0261 11.6356 32.0014 11.6528 31.9908C12.0863 31.6022 12.1379 30.9063 11.7629 30.4576ZM8.92452 32.6302L3.75696 26.3952C2.86588 27.0699 2.72138 28.4194 3.43356 29.2848L6.11711 32.5242C6.8396 33.3967 8.14009 33.4426 8.92108 32.6302M7.33847 22.8521L7.49329 23.0357C8.19514 22.3257 8.47038 21.379 8.28115 20.3722C7.52769 16.3769 8.88323 12.2226 11.9074 9.52728C14.0818 7.58791 16.7825 6.69064 19.442 6.78602C22.1049 6.8814 24.7299 7.97296 26.7461 10.0218C27.0041 10.2656 27.1039 10.6118 26.9112 10.958C26.8286 11.1099 26.7151 11.237 26.574 11.3041L22.707 14.6742C22.3629 14.9709 21.84 14.8685 21.6267 14.4658C20.9042 13.0987 18.8846 13.5226 18.7539 15.0875C18.7092 15.6139 18.9121 16.1331 19.325 16.4723C19.7069 16.7867 19.6622 17.3519 19.2975 17.6486L17.0956 19.5668L18.9087 21.8029C20.3984 20.6442 22.5212 21.1882 23.3366 22.9086C23.9077 24.1167 23.6462 25.5721 22.7104 26.487L23.5671 27.5397C23.8733 27.9142 23.7357 28.4865 23.3125 28.6808C23.1749 28.7479 19.528 30.4506 15.3513 28.8927C14.4258 28.5501 13.4728 28.6878 12.6918 29.299L12.8845 29.5321C13.7171 30.5601 13.607 32.1462 12.623 33.0647C11.9521 33.7606 10.9097 33.8771 10.0564 33.5274C9.18943 34.5413 7.83045 34.9086 6.62285 34.5342C5.91756 35.3891 4.84414 35.8271 3.7948 35.7459C2.94845 35.6787 2.12274 35.2831 1.51378 34.5766C1.28671 34.3434 1.03556 33.9972 0.818813 33.7358C0.209853 33.0011 -0.0516209 32.0755 0.0103072 31.1747C0.0756758 30.2951 0.457566 29.4367 1.13878 28.8079L1.58947 28.4476C1.42089 27.1512 1.96792 25.8406 3.05855 25.0952C2.68354 23.4173 3.98403 21.8276 5.65265 21.9548C6.28225 22.0078 6.89809 22.308 7.34191 22.845L7.33847 22.8521ZM13.6689 21.9725C13.9682 21.711 14.4155 21.7428 14.6701 22.0537C14.9247 22.361 14.8937 22.8309 14.5909 23.0923L10.5346 26.7096L11.7594 28.1897C12.9292 27.2359 14.412 26.9887 15.8226 27.515C18.3273 28.4476 20.6014 28.0414 21.8124 27.681C21.6748 27.508 21.1037 26.8332 21.028 26.6778C20.8594 26.3104 21.0039 25.8724 21.3549 25.6922C22.2425 25.2436 22.4937 24.0284 21.8537 23.2371C21.2207 22.4599 20.0269 22.4847 19.4385 23.3254C19.1736 23.7105 18.6197 23.7317 18.3204 23.3678L15.5543 19.9554C15.2997 19.6445 15.341 19.1782 15.6368 18.9203L17.8525 16.988C16.4109 14.8579 18.052 11.9541 20.5257 12.1767C21.1966 12.2367 21.8503 12.537 22.3595 13.0598L25.2082 10.5729C21.6473 7.4678 16.3972 7.47487 12.826 10.6542C10.1872 13.0068 9.01741 16.6065 9.67453 20.0931C9.96353 21.6121 9.49907 23.1064 8.41877 24.1591L9.60573 25.5933L13.6655 21.976L13.6689 21.9725ZM13.7824 0.893725C13.7239 0.487482 13.9923 0.113032 14.3845 0.0529785C14.7733 -0.00707485 15.1345 0.271997 15.193 0.671175L15.5267 2.92141C15.5852 3.32412 15.3169 3.69857 14.9281 3.75862C14.5393 3.82221 14.1746 3.54314 14.1162 3.14043L13.7824 0.890193V0.893725ZM20.5945 0.469819C20.7356 0.0918365 21.1484 -0.0953886 21.5131 0.0494459C21.8813 0.19428 22.0602 0.621719 21.9191 0.999702L21.0796 3.257C20.9386 3.63852 20.5257 3.82574 20.1576 3.68091C19.7929 3.53254 19.6106 3.10863 19.7516 2.72712L20.5945 0.469819ZM26.2541 3.63145C26.5465 3.35945 26.9938 3.38771 27.2552 3.68797C27.5133 3.99177 27.4892 4.45807 27.2002 4.72654L25.4112 6.38684C25.1222 6.65885 24.668 6.63059 24.41 6.33032C24.1451 6.02652 24.1726 5.56376 24.465 5.29175L26.2541 3.63145ZM3.97715 11.0887C3.5987 10.9827 3.37507 10.5764 3.47484 10.1843C3.57461 9.78869 3.96683 9.55554 4.34528 9.65798L6.46459 10.2479C6.84304 10.3539 7.07011 10.7566 6.9669 11.1522C6.86713 11.5444 6.47491 11.7775 6.09991 11.6751L3.97715 11.0887ZM3.55397 18.0619C3.17552 18.1644 2.78675 17.9277 2.68698 17.5356C2.58721 17.1435 2.81427 16.7407 3.19616 16.6348L5.44966 16.0166C5.83155 15.9141 6.21688 16.1473 6.31665 16.5394C6.41643 16.935 6.18936 17.3377 5.81091 17.4402L3.55397 18.0619ZM7.69972 4.80073C7.44168 4.49693 7.46232 4.03416 7.7582 3.76216C8.0472 3.49368 8.4979 3.51841 8.75937 3.81868L10.1734 5.45778C10.4349 5.75805 10.4074 6.22434 10.1184 6.49635C9.82247 6.76836 9.37521 6.7401 9.11374 6.43983L7.69972 4.80073ZM42.3588 37.657C42.3588 37.6817 42.3588 37.7029 42.3588 37.7241L42.4242 44.8422L42.4414 46.446C42.462 47.0677 42.9609 47.5481 43.5595 47.5269L44.4437 47.4916C45.0699 47.4704 45.5825 46.9087 45.5756 46.2623L45.4827 36.0744C45.469 35.435 44.9701 34.9546 44.3921 34.9652L43.477 35.0005C42.8508 35.0252 42.3416 35.5834 42.3451 36.2298L42.3554 37.657H42.3588Z" fill="white"/>
</g>
</g>
<defs>
<clipPath id="clip0_1209_2003">
<rect width="47" height="49" fill="white"/>
</clipPath>
</defs>
</svg>
