<svg width="54" height="54" viewBox="0 0 54 54" fill="none" xmlns="http://www.w3.org/2000/svg">
<g clip-path="url(#clip0_754_513)">
<path d="M13.0389 6.30811H31.3638V15.0007H13.0389V6.30811Z" fill="#00A2E3"/>
<path d="M5.99082 37.2021V0.0825195H3.77088C1.69685 0.0916968 0.015601 1.76744 0 3.84147V38.6117C1.0361 37.6862 2.38146 37.1833 3.77088 37.2021H5.99082Z" fill="#00A2E3"/>
<path d="M36.5322 24.4923V0.0825195H7.87024V37.2021H24.2922C25.4348 30.8846 30.2619 25.872 36.5322 24.4923ZM11.1593 15.9406V5.36854C11.1607 4.85003 11.5805 4.43018 12.0991 4.4288H32.3034C32.8219 4.43018 33.2418 4.85003 33.2431 5.36854V15.9406C33.2418 16.4591 32.8219 16.8789 32.3034 16.8803H12.0991C11.5805 16.8789 11.1607 16.4591 11.1593 15.9406Z" fill="#00A2E3"/>
<path d="M39.9622 26.0073C32.213 26.0156 25.9331 32.2955 25.9248 40.0446C25.9193 42.4435 26.5342 44.8025 27.7102 46.8931C27.7456 46.9518 27.7809 47.0105 27.8162 47.0812C31.2297 52.9734 38.38 55.5659 44.7765 53.2308C51.1734 50.8957 54.9713 44.306 53.7856 37.6003C52.5995 30.8946 46.772 26.0073 39.9622 26.0073ZM40.996 44.7318C40.996 45.2508 40.5752 45.6716 40.0562 45.6716C39.5373 45.6716 39.1165 45.2508 39.1165 44.7318V43.9564C39.1165 43.4374 39.5373 43.0166 40.0562 43.0166C40.5752 43.0166 40.996 43.4374 40.996 43.9564V44.7318ZM40.996 40.9729C40.996 41.4919 40.5752 41.9126 40.0562 41.9126C39.5373 41.9126 39.1165 41.4919 39.1165 40.9729V35.4988C39.1165 34.9798 39.5373 34.559 40.0562 34.559C40.5752 34.559 40.996 34.9798 40.996 35.4988V40.9729Z" fill="#00A2E3"/>
<path d="M24.0574 39.0815H3.77089C1.72715 39.0815 0.0706787 40.738 0.0706787 42.7818C0.0706787 44.8255 1.72715 46.482 3.77089 46.482H25.3963C24.491 44.4607 24.0225 42.271 24.022 40.0566C24.022 39.7157 24.034 39.3165 24.0574 39.0815Z" fill="#00A2E3"/>
</g>
<defs>
<clipPath id="clip0_754_513">
<rect width="54" height="54" fill="white"/>
</clipPath>
</defs>
</svg>
