<svg width="56" height="55" viewBox="0 0 56 55" fill="none" xmlns="http://www.w3.org/2000/svg">
<path d="M21.3501 31.3372C22.732 32.7191 24.4542 33.5879 26.2657 33.9274C26.845 34.0348 27.4259 34.089 27.9957 34.089C28.1383 34.089 28.2818 34.0804 28.4245 34.0735C28.5491 34.0683 28.6737 34.0649 28.8018 34.0537C28.9315 34.0426 29.0613 34.0237 29.1902 34.0065C29.3466 33.9858 29.5004 33.9669 29.6646 33.9369C30.9399 33.7074 32.1834 33.215 33.3083 32.4424C33.7913 32.1107 34.2416 31.7369 34.6455 31.3329L34.7418 31.2367C35.0975 30.8801 35.4318 30.4727 35.761 29.9897C38.3193 26.2575 37.8501 21.2301 34.6464 18.0341C33.9288 17.3088 33.109 16.7184 32.2066 16.2741C30.8651 15.6004 29.4231 15.2729 27.994 15.2729C25.5576 15.2729 23.1565 16.2234 21.3475 18.0333C18.6027 20.7781 17.8275 24.8541 19.3727 28.4179C19.8402 29.5016 20.5045 30.4822 21.3501 31.3347V31.3372ZM20.703 21.7956C21.8932 18.7818 24.7567 16.8327 27.9974 16.8327C28.4726 16.8327 28.8568 17.2177 28.8568 17.6921C28.8568 18.1665 28.4726 18.5515 27.9974 18.5515C25.4665 18.5515 23.2304 20.0734 22.2997 22.429C22.0153 23.1448 21.8692 23.9037 21.8657 24.6865C21.8632 25.1601 21.479 25.5425 21.0064 25.5425H21.0021C20.5277 25.5408 20.1444 25.154 20.147 24.6797C20.1522 23.6802 20.3386 22.71 20.7022 21.7965L20.703 21.7956Z" fill="#00A2E3"/>
<path d="M29.2737 35.7373C29.2204 35.7442 29.1705 35.7416 29.1173 35.7468C28.8199 35.7769 28.5217 35.7958 28.2235 35.8018C28.1934 35.8018 28.1625 35.8078 28.1324 35.8078H28.0714C28.0482 35.8078 28.0258 35.8104 28.0026 35.8104C27.5944 35.8104 27.1871 35.782 26.7815 35.7373C26.7634 35.7356 26.7454 35.7365 26.7282 35.7339C26.2985 37.3315 25.9891 39.1104 25.8594 40.2869C25.8181 40.6272 25.7966 40.8979 25.7966 41.0887C25.7966 41.6756 26.0261 42.2273 26.4412 42.6433C26.8571 43.0592 27.4088 43.2878 27.9958 43.2878C28.5827 43.2878 28.0018 43.2878 28.0069 43.2878C28.5879 43.2878 29.1344 43.0618 29.5469 42.651C29.9646 42.2342 30.1949 41.6799 30.1949 41.0887C30.1949 40.9623 30.1846 40.7862 30.1657 40.5808C30.072 39.4481 29.7377 37.4776 29.2737 35.7373Z" fill="#00A2E3"/>
<path d="M19.1656 12.6844C19.1656 13.1588 18.7815 13.5437 18.3063 13.5437H9.06799V51.5625H46.9321V3.4375H19.1656V12.6844ZM32.9715 14.7374C34.0406 15.2634 35.016 15.9663 35.8642 16.8231C39.6497 20.6001 40.2049 26.5478 37.1799 30.9624C36.7897 31.533 36.3892 32.0212 35.957 32.4534L35.9063 32.5033C35.3829 33.0275 34.851 33.4684 34.2812 33.8602C33.2439 34.5727 32.1207 35.0805 30.9614 35.402C31.4401 37.2238 31.777 39.2227 31.8767 40.4284C31.9007 40.6888 31.9128 40.9209 31.9128 41.0884C31.9128 42.1395 31.5028 43.1269 30.7595 43.8677C30.023 44.6016 29.045 45.0055 28.006 45.0055H27.994C26.9481 45.0055 25.9659 44.5981 25.2242 43.8582C24.4843 43.1183 24.0761 42.1343 24.0761 41.0884C24.0761 40.8323 24.101 40.4963 24.15 40.0898C24.2824 38.8824 24.6003 37.0614 25.0386 35.4002C23.2322 34.9018 21.5324 33.9522 20.1299 32.5497C19.1304 31.5416 18.3449 30.3832 17.7932 29.1019C15.9653 24.8884 16.8823 20.0664 20.1299 16.8197C23.5253 13.4226 28.6858 12.5855 32.9689 14.7366L32.9715 14.7374Z" fill="#00A2E3"/>
<path d="M17.4468 4.65332L10.2814 11.8248H17.4468V4.65332Z" fill="#00A2E3"/>
</svg>
