<svg width="43" height="43" viewBox="0 0 43 43" fill="none" xmlns="http://www.w3.org/2000/svg">
<g clip-path="url(#clip0_1209_2014)">
<mask id="mask0_1209_2014" style="mask-type:luminance" maskUnits="userSpaceOnUse" x="0" y="0" width="43" height="43">
<path d="M43 0H0V43H43V0Z" fill="white"/>
</mask>
<g mask="url(#mask0_1209_2014)">
<path d="M28.4387 11.8984V15.6581H31.5347L35.1811 18.3656V15.6581H42.3201V4.44373H30.1668M12.8292 4.44373H0.700195V15.6622H7.83921V18.3697L11.4856 15.6622H14.5816V11.9025M28.5561 33.8456V32.5263C28.5561 28.6289 25.3953 25.4682 21.498 25.4682C17.6007 25.4682 14.444 28.6249 14.444 32.5263V33.8456M20.1463 25.4722L19.0779 31.8383L21.498 34.2625L23.9182 31.8383L22.8497 25.4722M21.5021 18.3413C23.4973 18.3413 25.1161 19.9359 25.1161 21.9027C25.1161 23.8696 23.4973 25.4682 21.5021 25.4682C19.5069 25.4682 17.8921 23.8737 17.8921 21.9027C17.8921 19.9318 19.5069 18.3413 21.5021 18.3413Z" stroke="#50C6F3" stroke-width="2" stroke-linejoin="round"/>
<path d="M7.20783 37.8401H35.7922M35.7922 42.3202H7.20783M4.79983 21.7611C6.7667 21.7611 8.36529 23.3556 8.36529 25.3225C8.36529 27.2894 6.77075 28.888 4.79983 28.888C2.82892 28.888 1.23438 27.2934 1.23438 25.3225C1.23438 23.3516 2.82892 21.7611 4.79983 21.7611Z" stroke="white" stroke-width="2" stroke-linejoin="round"/>
<path d="M6.49151 35.8489L8.47861 37.84H13.7722C14.9053 37.84 15.824 36.9173 15.824 35.7841C15.824 34.651 14.9053 33.7323 13.7722 33.7323H10.1824L9.1909 31.7128C8.34506 29.9847 6.58864 28.8879 4.66224 28.8879C2.46064 28.8879 0.679932 30.6686 0.679932 32.8702V42.3201H7.20784V36.5652" stroke="white" stroke-width="2" stroke-linecap="round" stroke-linejoin="round"/>
<path d="M38.2043 21.7611C40.1711 21.7611 41.7697 23.3557 41.7697 25.3266C41.7697 27.2975 40.1752 28.888 38.2043 28.888C36.2333 28.888 34.6388 27.2934 34.6388 25.3266C34.6388 23.3597 36.2333 21.7611 38.2043 21.7611Z" stroke="white" stroke-width="2" stroke-linejoin="round"/>
<path d="M36.5126 35.8489L34.5255 37.84H29.2319C28.0987 37.84 27.1801 36.9173 27.1801 35.7841C27.1801 34.651 28.0987 33.7323 29.2319 33.7323H32.8217L33.8132 31.7128C34.659 29.9847 36.4154 28.8879 38.3418 28.8879C40.5434 28.8879 42.3241 30.6686 42.3241 32.8702V42.3201H35.7962V36.5652" stroke="white" stroke-width="2" stroke-linecap="round" stroke-linejoin="round"/>
<path d="M30.1668 0.679932H12.8292V11.8984H19.689L21.5142 14.6018C21.5142 14.6018 22.6879 12.8575 23.3394 11.8984H30.1709V0.679932H30.1668Z" stroke="white" stroke-width="2" stroke-linejoin="round"/>
</g>
</g>
<defs>
<clipPath id="clip0_1209_2014">
<rect width="43" height="43" fill="white"/>
</clipPath>
</defs>
</svg>
