<svg width="46" height="46" viewBox="0 0 46 46" fill="none" xmlns="http://www.w3.org/2000/svg">
<g clip-path="url(#clip0_1209_1973)">
<mask id="mask0_1209_1973" style="mask-type:luminance" maskUnits="userSpaceOnUse" x="0" y="0" width="46" height="46">
<path d="M46 0H0V46H46V0Z" fill="white"/>
</mask>
<g mask="url(#mask0_1209_1973)">
<path d="M28.0285 35.4012C27.8819 36.0489 27.6252 36.6639 27.2709 37.2261C27.0876 37.5193 27.1283 37.8982 27.3727 38.1426L28.0163 38.7861L26.9735 39.8289L26.3299 39.1853C26.0855 38.9409 25.7067 38.9002 25.4134 39.0835C24.8513 39.4379 24.2322 39.6945 23.5845 39.8411C23.2464 39.9185 23.0102 40.2159 23.0102 40.5621V41.4705H21.5275V40.5621C21.5275 40.2159 21.2872 39.9185 20.9531 39.8411C20.3055 39.6945 19.6863 39.4379 19.1242 39.0835C18.8309 38.9002 18.4521 38.9409 18.2077 39.1853L17.5641 39.8289L16.5214 38.7861L17.165 38.1426C17.4094 37.8982 17.4501 37.5193 17.2668 37.2261C16.9124 36.6639 16.6558 36.0489 16.5091 35.4012C16.4318 35.0631 16.1344 34.8269 15.7882 34.8269H14.8798V33.3483H15.7882C16.1303 33.3483 16.4318 33.1079 16.5091 32.7739C16.6558 32.1263 16.9124 31.5071 17.2668 30.945C17.4501 30.6517 17.4094 30.2729 17.165 30.0285L16.5214 29.3849L17.5641 28.3381L18.2077 28.9817C18.4521 29.2261 18.8309 29.2668 19.1242 29.0835C19.6863 28.7291 20.3055 28.4725 20.9531 28.3259C21.2912 28.2485 21.5275 27.9511 21.5275 27.6049V26.6965H23.0061V27.6049C23.0061 27.947 23.2464 28.2485 23.5804 28.3259C24.2281 28.4725 24.8472 28.7291 25.4094 29.0835C25.7026 29.2668 26.0815 29.2261 26.3259 28.9817L26.9694 28.3381L28.0163 29.3849L27.3727 30.0285C27.1283 30.2729 27.0876 30.6517 27.2709 30.945C27.6252 31.5071 27.8859 32.1263 28.0326 32.7739C28.11 33.1079 28.4073 33.3442 28.7495 33.3483H29.6578V34.8269H28.7495C28.4073 34.8269 28.11 35.0672 28.0326 35.4012" fill="#50C6F3"/>
<path d="M44.4318 44.4318H6.01629C3.56823 44.4318 1.58452 42.4481 1.58452 40C1.58452 39.9796 1.58452 39.9593 1.58452 39.9348C1.66191 37.556 3.5723 35.6415 5.95112 35.5642H6.01629C8.46436 35.5642 10.4481 37.5479 10.4481 39.9959C10.4481 40.4033 10.778 40.7373 11.1853 40.7373C11.5927 40.7373 11.9226 40.4073 11.9226 39.9959V18.1385L15.0957 21.3116C15.1813 21.3971 15.2912 21.4623 15.4053 21.499L22.7943 23.7149C22.8635 23.7352 22.9328 23.7434 23.0061 23.7434C23.4134 23.7434 23.7434 23.4134 23.7434 23.0061C23.7434 22.9328 23.7312 22.8635 23.7108 22.7943L21.4949 15.4094C21.4582 15.2912 21.3971 15.1853 21.3075 15.0998L18.8758 12.668H26.7699C27.0428 13.2709 27.389 13.8411 27.7882 14.3666C28.9654 15.8289 29.6212 17.6415 29.6497 19.5193V21.5316C29.6497 22.7576 30.6395 23.7475 31.8656 23.7475C31.8656 25.3809 33.1894 26.7006 34.8187 26.7006C36.4481 26.7006 37.7719 25.3768 37.7719 23.7475C38.9939 23.7475 39.9878 22.7576 39.9878 21.5316V19.5153C40.0081 17.666 40.6477 15.8778 41.7963 14.4318C42.224 13.8859 42.5866 13.2953 42.8717 12.668H44.4196V44.4358L44.4318 44.4318ZM2.76578 8.98167L10.4481 16.6639V36.0896C10.3585 35.9878 10.2648 35.89 10.1629 35.7923C9.04277 34.6721 7.51527 34.057 5.93075 34.0855C4.26069 34.1141 2.68024 34.8554 1.58045 36.1181V12.1222C1.58045 10.9654 2.00407 9.85336 2.76171 8.98167M4.50102 1.58452C5.27495 1.58452 6.01629 1.89002 6.56212 2.43992L7.92261 3.80041L3.79633 7.92668L2.43584 6.56619C1.29531 5.42566 1.29531 3.58045 2.43584 2.43992C2.98167 1.89409 3.72709 1.58452 4.50102 1.58452ZM17.833 14.8798C17.4257 14.8798 17.0957 15.2098 17.0957 15.6171V16.053L9.64562 8.60285L11.1853 7.06314L19.0061 14.8839H17.833V14.8798ZM6.01629 10.1426L4.84725 8.96945L8.97352 4.84318L10.1466 6.01222L6.02037 10.1385L6.01629 10.1426ZM7.05906 11.1853L8.59878 9.64562L16.0489 17.0957H15.613C15.2057 17.0957 14.8758 17.4257 14.8758 17.833V19.002L7.05499 11.1813L7.05906 11.1853ZM18.2485 20.8065L16.3584 20.2363V18.5703H17.8371C18.2444 18.5703 18.5743 18.2403 18.5743 17.833V16.3544H20.2403L20.8065 18.2485L18.2485 20.8065ZM21.9022 21.9022L19.8534 21.2872L21.2872 19.8534L21.9022 21.8982V21.9022ZM37.0428 13.4012V12.6599C37.0428 12.2525 37.3727 11.9226 37.7841 11.9226C38.1955 11.9226 38.5214 12.2525 38.5214 12.6599C38.5214 13.0672 38.1914 13.4012 37.7841 13.4012H37.0428ZM35.5642 19.3116H34.0855V14.8798H35.5642V19.3116ZM32.611 13.4012H31.8737C31.4664 13.4012 31.1324 13.0713 31.1324 12.6599C31.1324 12.2485 31.4623 11.9226 31.8737 11.9226C32.2851 11.9226 32.611 12.2525 32.611 12.6599V13.4012ZM31.8737 22.2688C31.4664 22.2688 31.1324 21.9389 31.1324 21.5275V20.7902H38.5214V21.5275C38.5214 21.9348 38.1914 22.2688 37.7841 22.2688H31.8737ZM36.3055 23.7434C36.3055 24.558 35.6415 25.222 34.8269 25.222C34.0122 25.222 33.3483 24.558 33.3483 23.7434H36.3014H36.3055ZM27.4868 8.09369C27.9593 4.04073 31.6253 1.13646 35.6782 1.60896C39.4094 2.04481 42.224 5.20977 42.2118 8.96945C42.22 10.6191 41.666 12.224 40.6436 13.5193C39.332 15.1731 38.5866 17.2057 38.5173 19.3157H37.0387V14.8839H37.78C39.002 14.8839 39.9959 13.8941 39.9959 12.668C39.9959 11.442 39.0061 10.4521 37.78 10.4521C36.554 10.4521 35.5642 11.442 35.5642 12.668V13.4094H34.0855V12.668C34.0855 11.446 33.0957 10.4521 31.8697 10.4521C30.6436 10.4521 29.6538 11.442 29.6538 12.668C29.6538 13.8941 30.6436 14.8839 31.8697 14.8839H32.6069V19.3157H31.1283C31.055 17.1853 30.2933 15.1324 28.9654 13.4664C27.7923 11.9389 27.2587 10.0122 27.4868 8.09776M45.169 11.1853H43.4134C44.6395 6.44399 41.7923 1.60896 37.0509 0.382891C32.3096 -0.843178 27.4745 2.00815 26.2485 6.74542C25.8697 8.20366 25.8697 9.73116 26.2485 11.1853H17.4012L7.60896 1.39307C5.89817 -0.32994 3.11609 -0.34216 1.39307 1.36863C-0.32994 3.07943 -0.34216 5.86151 1.36863 7.58452C1.37678 7.59267 1.38493 7.60081 1.39307 7.60896L1.71894 7.93483C0.684317 9.08757 0.109979 10.5743 0.105905 12.1222V39.9959C0.105905 43.2587 2.74134 45.9022 6.00407 45.9063H45.169C45.5764 45.9063 45.9063 45.5764 45.9063 45.169V11.9267C45.9063 11.5193 45.5764 11.1894 45.169 11.1894" fill="white"/>
<path d="M44.4318 44.4318H6.01629C3.56823 44.4318 1.58452 42.4481 1.58452 40C1.58452 39.9796 1.58452 39.9593 1.58452 39.9348C1.66191 37.556 3.5723 35.6415 5.95112 35.5642H6.01629C8.46436 35.5642 10.4481 37.5479 10.4481 39.9959C10.4481 40.4033 10.778 40.7373 11.1853 40.7373C11.5927 40.7373 11.9226 40.4073 11.9226 39.9959V18.1385L15.0957 21.3116C15.1813 21.3971 15.2912 21.4623 15.4053 21.499L22.7943 23.7149C22.8635 23.7352 22.9328 23.7434 23.0061 23.7434C23.4134 23.7434 23.7434 23.4134 23.7434 23.0061C23.7434 22.9328 23.7312 22.8635 23.7108 22.7943L21.4949 15.4094C21.4582 15.2912 21.3971 15.1853 21.3075 15.0998L18.8758 12.668H26.7699C27.0428 13.2709 27.389 13.8411 27.7882 14.3666C28.9654 15.8289 29.6212 17.6415 29.6497 19.5193V21.5316C29.6497 22.7576 30.6395 23.7475 31.8656 23.7475C31.8656 25.3809 33.1894 26.7006 34.8187 26.7006C36.4481 26.7006 37.7719 25.3768 37.7719 23.7475C38.9939 23.7475 39.9878 22.7576 39.9878 21.5316V19.5153C40.0081 17.666 40.6477 15.8778 41.7963 14.4318C42.224 13.8859 42.5866 13.2953 42.8717 12.668H44.4196V44.4358L44.4318 44.4318ZM2.76578 8.98167L10.4481 16.6639V36.0896C10.3585 35.9878 10.2648 35.89 10.1629 35.7923C9.04277 34.6721 7.51527 34.057 5.93075 34.0855C4.26069 34.1141 2.68024 34.8554 1.58045 36.1181V12.1222C1.58045 10.9654 2.00407 9.85336 2.76171 8.98167H2.76578ZM4.50102 1.58452C5.27495 1.58452 6.01629 1.89002 6.56212 2.43992L7.92261 3.80041L3.79633 7.92668L2.43584 6.56619C1.29531 5.42566 1.29531 3.58045 2.43584 2.43992C2.98167 1.89409 3.72709 1.58452 4.50102 1.58452ZM17.833 14.8798C17.4257 14.8798 17.0957 15.2098 17.0957 15.6171V16.053L9.64562 8.60285L11.1853 7.06314L19.0061 14.8839H17.833V14.8798ZM6.01629 10.1426L4.84725 8.96945L8.97352 4.84318L10.1466 6.01222L6.02037 10.1385L6.01629 10.1426ZM7.05906 11.1853L8.59878 9.64562L16.0489 17.0957H15.613C15.2057 17.0957 14.8758 17.4257 14.8758 17.833V19.002L7.05499 11.1813L7.05906 11.1853ZM18.2485 20.8065L16.3585 20.2363V18.5703H17.8371C18.2444 18.5703 18.5743 18.2403 18.5743 17.833V16.3544H20.2403L20.8065 18.2485L18.2485 20.8065ZM21.9022 21.9022L19.8534 21.2872L21.2872 19.8534L21.9022 21.8982V21.9022ZM37.0428 13.4012V12.6599C37.0428 12.2525 37.3727 11.9226 37.7841 11.9226C38.1955 11.9226 38.5214 12.2525 38.5214 12.6599C38.5214 13.0672 38.1914 13.4012 37.7841 13.4012H37.0428ZM35.5642 19.3116H34.0855V14.8798H35.5642V19.3116ZM32.611 13.4012H31.8737C31.4664 13.4012 31.1324 13.0713 31.1324 12.6599C31.1324 12.2485 31.4623 11.9226 31.8737 11.9226C32.2851 11.9226 32.611 12.2525 32.611 12.6599V13.4012ZM31.8737 22.2688C31.4664 22.2688 31.1324 21.9389 31.1324 21.5275V20.7902H38.5214V21.5275C38.5214 21.9348 38.1914 22.2688 37.7841 22.2688H31.8737ZM36.3055 23.7434C36.3055 24.558 35.6415 25.222 34.8269 25.222C34.0122 25.222 33.3483 24.558 33.3483 23.7434H36.3014H36.3055ZM27.4868 8.09369C27.9593 4.04073 31.6253 1.13646 35.6782 1.60896C39.4094 2.04481 42.224 5.20978 42.2118 8.96945C42.22 10.6191 41.666 12.224 40.6436 13.5193C39.332 15.1731 38.5866 17.2057 38.5173 19.3157H37.0387V14.8839H37.78C39.002 14.8839 39.9959 13.8941 39.9959 12.668C39.9959 11.442 39.0061 10.4521 37.78 10.4521C36.554 10.4521 35.5642 11.442 35.5642 12.668V13.4094H34.0855V12.668C34.0855 11.446 33.0957 10.4521 31.8697 10.4521C30.6436 10.4521 29.6538 11.442 29.6538 12.668C29.6538 13.8941 30.6436 14.8839 31.8697 14.8839H32.6069V19.3157H31.1283C31.055 17.1853 30.2933 15.1324 28.9654 13.4664C27.7923 11.9389 27.2587 10.0122 27.4868 8.09776V8.09369ZM45.169 11.1853H43.4134C44.6395 6.44399 41.7923 1.60896 37.0509 0.382891C32.3096 -0.843178 27.4745 2.00815 26.2485 6.74542C25.8697 8.20366 25.8697 9.73116 26.2485 11.1853H17.4012L7.60896 1.39307C5.89817 -0.32994 3.11609 -0.34216 1.39307 1.36863C-0.32994 3.07943 -0.34216 5.86151 1.36863 7.58452C1.37678 7.59267 1.38493 7.60081 1.39307 7.60896L1.71894 7.93483C0.684317 9.08757 0.109979 10.5743 0.105905 12.1222V39.9959C0.105905 43.2587 2.74134 45.9022 6.00407 45.9063H45.169C45.5764 45.9063 45.9063 45.5764 45.9063 45.169V11.9267C45.9063 11.5193 45.5764 11.1894 45.169 11.1894V11.1853Z" stroke="white" stroke-width="0.14" stroke-miterlimit="10"/>
<path d="M28.0285 35.4013C27.8778 36.0489 27.6252 36.6681 27.2709 37.2302C27.0876 37.5235 27.1283 37.9023 27.3727 38.1467L28.0163 38.7903L26.9735 39.833L26.3299 39.1895C26.0855 38.9451 25.7067 38.9043 25.4134 39.0876C24.8513 39.442 24.2322 39.6986 23.5845 39.8453C23.2464 39.9227 23.0102 40.22 23.0102 40.5662V41.4746H21.5275V40.5662C21.5275 40.2241 21.2912 39.9227 20.9532 39.8453C20.3055 39.6986 19.6863 39.442 19.1242 39.0876C18.831 38.9043 18.4521 38.9451 18.2077 39.1895L17.5641 39.833L16.5214 38.7903L17.165 38.1467C17.4094 37.9023 17.4501 37.5235 17.2668 37.2302C16.9124 36.6681 16.6558 36.0489 16.5092 35.4013C16.4318 35.0632 16.1344 34.8269 15.7882 34.8269H14.8798V33.3483H15.7882C16.1344 33.3483 16.4318 33.108 16.5092 32.774C16.6558 32.1263 16.9124 31.5113 17.2668 30.9491C17.4501 30.6559 17.4094 30.277 17.165 30.0326L16.5214 29.3891L17.5641 28.3463L18.2077 28.9899C18.4521 29.2343 18.831 29.275 19.1242 29.0917C19.6863 28.7373 20.3014 28.4807 20.9532 28.3341C21.2912 28.2567 21.5275 27.9593 21.5275 27.6131V26.7047H23.0061V27.6131C23.0061 27.9593 23.2464 28.2567 23.5804 28.3341C24.2281 28.4807 24.8472 28.7373 25.4094 29.0917C25.7026 29.275 26.0815 29.2343 26.3259 28.9899L26.9694 28.3463L28.0122 29.3891L27.3686 30.0326C27.1242 30.277 27.0835 30.6559 27.2668 30.9491C27.6212 31.5113 27.8819 32.1263 28.0285 32.774C28.1018 33.108 28.4033 33.3483 28.7454 33.3483H29.6538V34.8269H28.7454C28.4033 34.8269 28.1059 35.0673 28.0285 35.4013ZM28.8147 37.499C29.0143 37.1161 29.1813 36.717 29.3116 36.3015H30.3951C30.8024 36.3015 31.1365 35.9715 31.1365 35.5642V32.611C31.1365 32.2037 30.8065 31.8738 30.3951 31.8738H29.3116C29.1813 31.4624 29.0143 31.0591 28.8147 30.6762L29.5804 29.9104C29.8696 29.6212 29.8696 29.1569 29.5804 28.8677L27.4908 26.7781C27.2016 26.4888 26.7373 26.4888 26.4481 26.7781L25.6823 27.5438C25.2994 27.3442 24.9002 27.1772 24.4847 27.0469V25.9634C24.4847 25.5561 24.1548 25.222 23.7474 25.222H20.7943C20.387 25.222 20.057 25.552 20.057 25.9634V27.0469C19.6456 27.1772 19.2464 27.3442 18.8595 27.5438L18.0937 26.7781C17.8004 26.5011 17.3401 26.5011 17.0509 26.7781L14.9613 28.8677C14.6721 29.1569 14.6721 29.6212 14.9613 29.9104L15.7271 30.6762C15.5275 31.0591 15.3605 31.4624 15.2301 31.8738H14.1466C13.7393 31.8738 13.4094 32.2037 13.4094 32.611V35.5642C13.4094 35.9715 13.7393 36.3015 14.1466 36.3015H15.2301C15.3605 36.7129 15.5275 37.1121 15.7271 37.499L14.9613 38.2648C14.6721 38.554 14.6721 39.0184 14.9613 39.3076L17.0509 41.3972C17.3401 41.6864 17.8085 41.6864 18.0937 41.3972L18.8595 40.6314C19.2424 40.831 19.6415 40.998 20.057 41.1284V42.2119C20.057 42.6192 20.387 42.9491 20.7943 42.9491H23.7474C24.1548 42.9491 24.4847 42.6192 24.4847 42.2119V41.1284C24.8961 40.998 25.2994 40.831 25.6823 40.6314L26.4481 41.3972C26.7413 41.6742 27.2016 41.6742 27.4908 41.3972L29.5804 39.3076C29.8696 39.0184 29.8696 38.5499 29.5804 38.2648L28.8147 37.499Z" fill="white"/>
<path d="M22.2688 37.0428C20.6354 37.0428 19.3157 35.719 19.3157 34.0897C19.3157 32.4603 20.6395 31.1365 22.2688 31.1365C23.8982 31.1365 25.222 32.4603 25.222 34.0897C25.222 35.719 23.8982 37.0428 22.2688 37.0428ZM22.2688 29.6538C19.8208 29.6538 17.8371 31.6375 17.8371 34.0856C17.8371 36.5336 19.8208 38.5174 22.2688 38.5174C24.7169 38.5174 26.7006 36.5336 26.7006 34.0856C26.7006 31.6375 24.7169 29.6579 22.2688 29.6538Z" fill="white"/>
<path d="M38.1507 31.8697C36.721 31.8697 35.5642 30.7128 35.5642 29.2831V28.1752H34.0856V29.2831C34.0856 31.5275 35.9063 33.3442 38.1467 33.3442C39.9837 33.3442 41.4705 34.831 41.4705 36.668C41.4705 38.5051 39.9837 39.9919 38.1467 39.9919H30.3911V41.4705H38.1467C40.7984 41.4705 42.9491 39.3198 42.9491 36.668C42.9491 34.0163 40.7984 31.8656 38.1467 31.8656" fill="white"/>
<path d="M37.7434 22.3747H31.9022C31.4216 22.3747 31.0305 21.9837 31.0305 21.503V20.6884H38.6151V21.503C38.6151 21.9837 38.224 22.3747 37.7434 22.3747Z" fill="#50C6F3"/>
<path d="M16.2648 18.4766C16.22 18.4766 16.2648 20.33 16.2648 20.33L18.2485 20.9735L20.9369 18.3014L20.3218 16.2526H18.4236L18.4888 17.7312C18.5092 18.1548 18.167 18.5051 17.7434 18.497L16.2648 18.4766Z" fill="#50C6F3"/>
</g>
</g>
<defs>
<clipPath id="clip0_1209_1973">
<rect width="46" height="46" fill="white"/>
</clipPath>
</defs>
</svg>
