<svg width="52" height="52" viewBox="0 0 52 52" fill="none" xmlns="http://www.w3.org/2000/svg">
<path d="M23.7367 25.9111H27.723V45.558H23.7367V25.9111Z" fill="#00A2E3"/>
<path d="M27.723 24.6771L25.7299 22.0195L23.7367 24.6771V24.772H27.723V24.6771Z" fill="#00A2E3"/>
<path d="M15.2748 20.0281C13.5931 20.4207 12.4186 21.903 12.4186 23.6328C12.4186 24.6217 12.8036 25.5512 13.5027 26.25C14.2017 26.9493 15.1312 27.3344 16.1202 27.3344H22.5979V24.487C22.5979 24.3638 22.6379 24.2439 22.7118 24.1453L25.2744 20.7285C25.382 20.5851 25.5508 20.5007 25.73 20.5007C25.9092 20.5007 26.078 20.5851 26.1856 20.7285L28.7482 24.1453C28.8221 24.2439 28.8621 24.3638 28.8621 24.487V27.3344H35.3399C37.3809 27.3344 39.0414 25.6739 39.0414 23.6328C39.0414 22.7816 38.7606 21.9817 38.2292 21.3194C37.7135 20.6759 36.99 20.218 36.1919 20.03C35.9712 19.978 35.8024 19.8 35.7621 19.5768C35.3527 17.3074 33.3788 15.6602 31.0688 15.6602C30.5601 15.6602 30.0588 15.7401 29.579 15.8976C29.2983 15.9899 28.9939 15.8521 28.8778 15.5806C27.7886 13.0344 25.2957 11.3892 22.5267 11.3892C18.7194 11.3892 15.6219 14.4867 15.6219 18.294C15.6219 18.658 15.6508 19.0249 15.7077 19.3844C15.7545 19.6793 15.5655 19.9602 15.2748 20.0281Z" fill="#00A2E3"/>
<path d="M25.7689 1.13871C25.756 1.13867 25.7425 1.13867 25.7296 1.13867C15.6846 1.13867 7.42943 9.2966 7.3184 19.3428C7.26118 24.4538 9.35625 29.4014 13.0663 32.9171C14.8566 34.6139 16.2588 36.6201 17.2339 38.8799C18.152 41.0074 18.6447 43.2516 18.7009 45.5576H20.0351H22.5979V28.4734H16.1201C14.8269 28.4734 13.6113 27.9698 12.6973 27.0554C11.7832 26.1417 11.2796 24.9261 11.2796 23.6329C11.2796 22.5342 11.6579 21.4582 12.3449 20.6031C12.9125 19.8966 13.6719 19.3618 14.5196 19.0637C14.4952 18.8077 14.4829 18.5503 14.4829 18.294C14.4829 16.1455 15.3196 14.1255 16.8389 12.6062C18.3581 11.0869 20.3781 10.2502 22.5267 10.2502C25.5843 10.2502 28.3528 11.9721 29.7135 14.6778C30.1561 14.5738 30.6101 14.5213 31.0688 14.5213C33.8085 14.5213 36.1665 16.3923 36.8078 19.0196C37.7106 19.3077 38.5211 19.8624 39.1178 20.6069C39.803 21.4609 40.1804 22.5356 40.1804 23.6328C40.1804 26.3019 38.009 28.4733 35.3399 28.4733H28.8621V45.5575H31.4246H32.7588C32.8158 43.2489 33.3152 40.9979 34.2456 38.8601C35.2269 36.605 36.6361 34.5926 38.434 32.8787C42.1153 29.3684 44.1428 24.6354 44.1428 19.5516C44.1427 9.42012 35.9002 1.16011 25.7689 1.13871Z" fill="#00A2E3"/>
<path d="M20.6045 49.7685C20.6045 50.5866 21.27 51.2521 22.088 51.2521H29.3715C30.1895 51.2521 30.855 50.5866 30.855 49.7685V46.6963H20.6045V49.7685Z" fill="#00A2E3"/>
<path d="M42.5036 4.86639C42.8181 4.86639 43.073 4.61143 43.073 4.29691V0.569473C43.073 0.254953 42.8181 0 42.5036 0C42.189 0 41.9341 0.254953 41.9341 0.569473V4.29691C41.9341 4.61143 42.189 4.86639 42.5036 4.86639Z" fill="#00A2E3"/>
<path d="M50.8902 8.38672H47.1627C46.8482 8.38672 46.5933 8.64167 46.5933 8.95619C46.5933 9.27071 46.8482 9.52566 47.1627 9.52566H50.8902C51.2047 9.52566 51.4597 9.27071 51.4597 8.95619C51.4597 8.6417 51.2047 8.38672 50.8902 8.38672Z" fill="#00A2E3"/>
<path d="M47.1627 4.86594C47.3084 4.86594 47.4542 4.81033 47.5654 4.69917L50.2011 2.06347C50.4236 1.84108 50.4236 1.48049 50.2011 1.2581C49.9788 1.03572 49.6182 1.03572 49.3958 1.25807L46.7601 3.89377C46.5377 4.11616 46.5377 4.47674 46.7601 4.69913C46.8713 4.81036 47.017 4.86594 47.1627 4.86594Z" fill="#00A2E3"/>
<path d="M8.95643 4.86639C9.27095 4.86639 9.52591 4.61143 9.52591 4.29691V0.569473C9.52591 0.254953 9.27095 0 8.95643 0C8.64191 0 8.38696 0.254953 8.38696 0.569473V4.29691C8.38696 4.61143 8.64191 4.86639 8.95643 4.86639Z" fill="#00A2E3"/>
<path d="M4.29707 8.38672H0.569595C0.255075 8.38672 0.00012207 8.64167 0.00012207 8.95619C0.00012207 9.27071 0.255075 9.52566 0.569595 9.52566H4.29707C4.61159 9.52566 4.86654 9.27071 4.86654 8.95619C4.86654 8.6417 4.61156 8.38672 4.29707 8.38672Z" fill="#00A2E3"/>
<path d="M3.89423 4.69919C4.00542 4.81039 4.15116 4.86597 4.29689 4.86597C4.44263 4.86597 4.58836 4.81039 4.69959 4.69916C4.92198 4.47677 4.92198 4.11618 4.69956 3.89379L2.06383 1.2581C1.84144 1.03571 1.48088 1.03571 1.25846 1.25813C1.03607 1.48052 1.03607 1.8411 1.2585 2.06349L3.89423 4.69919Z" fill="#00A2E3"/>
</svg>
