<svg width="54" height="54" viewBox="0 0 54 54" fill="none" xmlns="http://www.w3.org/2000/svg">
<g clip-path="url(#clip0_1209_1957)">
<path d="M45.0236 1.96753H34.5737V8.52114H45.0236V1.96753Z" fill="#50C6F3"/>
<path d="M51.3106 6.41162H40.1947V13.2932H51.3106V6.41162Z" fill="#50C6F3"/>
<mask id="mask0_1209_1957" style="mask-type:luminance" maskUnits="userSpaceOnUse" x="0" y="0" width="54" height="54">
<path d="M54 0H0V54H54V0Z" fill="white"/>
</mask>
<g mask="url(#mask0_1209_1957)">
<path d="M35.371 8.5212H45.0236V2.11442H35.371V8.5212ZM45.8158 10.0825H34.5737C34.1348 10.0825 33.7816 9.73011 33.7816 9.3043V1.33621C33.7816 0.905498 34.1348 0.553101 34.5737 0.553101H45.8158C46.2547 0.553101 46.6079 0.905498 46.6079 1.33621V9.3043C46.6079 9.73501 46.2547 10.0825 45.8158 10.0825Z" fill="white"/>
<path d="M34.5737 38.6119C34.1348 38.6119 33.7816 38.2595 33.7816 37.8337V9.29933C33.7816 8.86862 34.1348 8.52112 34.5737 8.52112C35.0127 8.52112 35.3659 8.86862 35.3659 9.29933V37.8337C35.3659 38.2644 35.0127 38.6119 34.5737 38.6119Z" fill="white"/>
<path d="M1.58942 52.4387H52.4106V39.4049H28.9073V43.5847C28.9073 44.0155 28.5491 44.363 28.1101 44.363H15.2484V48.5428C15.2484 48.9735 14.8952 49.3259 14.4562 49.3259H1.58942V52.4387ZM53.2078 54H0.792188C0.358251 54 0 53.6525 0 53.2218V48.5477C0 48.117 0.353205 47.7695 0.792188 47.7695H13.6539V43.5896C13.6539 43.1589 14.0071 42.8114 14.4461 42.8114H27.3078V38.6316C27.3078 38.2009 27.661 37.8534 28.1 37.8534H53.1977C53.6367 37.8534 53.9899 38.2009 53.9899 38.6316V53.2316C53.9899 53.6623 53.6367 54.0098 53.1977 54.0098" fill="white"/>
<path d="M20.8391 43.9126H20.7836C19.1891 43.8832 17.9025 42.5862 17.9176 41.0151L17.9731 34.8824L7.51823 31.1235C5.14671 30.2719 3.6683 27.947 3.92563 25.4802L5.24258 12.8575C5.48983 10.4838 7.5031 8.6973 9.94021 8.73156C11.8627 8.75114 13.558 9.90133 14.2544 11.6633C14.4158 12.0647 14.2089 12.5198 13.8002 12.6716C13.3915 12.8282 12.9324 12.6324 12.7709 12.2262C12.3117 11.0613 11.1916 10.3027 9.92003 10.288H9.88975C8.30033 10.288 6.97833 11.4529 6.82192 13.0142L5.50496 25.6369C5.32332 27.3939 6.37284 29.0483 8.06318 29.6552L19.0428 33.6049C19.3607 33.7175 19.5676 34.0161 19.5676 34.344L19.507 41.0249C19.4969 41.7394 20.0873 42.3317 20.8139 42.3464C21.1671 42.3366 21.5102 42.2191 21.7675 41.9744C22.0249 41.7297 22.1661 41.3968 22.1712 41.0444L22.2217 31.9066C22.2317 30.7809 21.601 29.7628 20.5818 29.2489L12.2562 25.0348C11.9636 24.888 11.7971 24.5797 11.8324 24.2566L12.3521 19.3818C12.3975 18.956 12.7911 18.6476 13.225 18.6868C13.664 18.7357 13.9768 19.1175 13.9314 19.5433L13.4672 23.8895L21.3084 27.8589C22.8625 28.642 23.8212 30.1984 23.806 31.9115L23.7556 41.0493C23.7556 41.8227 23.4377 42.547 22.8776 43.0854C22.3276 43.6091 21.6061 43.9028 20.8391 43.9028" fill="white"/>
<path d="M4.13251 48.8854C4.09214 48.8854 4.05682 48.8854 4.01646 48.8854C3.95591 48.8854 3.9004 48.8756 3.83986 48.8609C3.12335 48.763 2.45731 48.4155 1.98301 47.8771C1.43806 47.2653 1.17568 46.4529 1.25641 45.6453L3.90545 26.0334C3.966 25.6076 4.36462 25.3139 4.79855 25.3629C5.23249 25.4216 5.54028 25.8132 5.47974 26.239L2.8307 45.8264C2.79538 46.1886 2.91648 46.5605 3.17886 46.8542C3.44124 47.1479 3.79949 47.3143 4.19306 47.329C4.88938 47.2996 5.52515 46.8151 5.64625 46.1935L9.56682 31.2068C9.67783 30.7908 10.1118 30.5412 10.5356 30.6439C10.9595 30.7516 11.2168 31.1774 11.1058 31.5935L7.20035 46.5312C6.94806 47.8527 5.61093 48.8854 4.13756 48.8854" fill="white"/>
<path d="M10.8383 1.56132C8.79984 1.56132 7.13978 3.19115 7.13978 5.19297C7.13978 7.19478 8.79984 8.82462 10.8383 8.82462C12.8768 8.82462 14.5369 7.19478 14.5369 5.19297C14.5369 3.19115 12.8768 1.56132 10.8383 1.56132ZM10.8383 10.3908C7.92187 10.3908 5.55035 8.06109 5.55035 5.19786C5.55035 2.33463 7.92187 0 10.8383 0C13.7548 0 16.1263 2.32974 16.1263 5.19297C16.1263 8.0562 13.7548 10.3859 10.8383 10.3859" fill="white"/>
<path d="M16.2475 22.5633C15.5663 22.5633 14.8952 22.2941 14.4057 21.7655L8.99161 16.0146L7.82604 14.6931C6.55954 13.259 6.45863 11.174 7.57375 9.62736C7.82604 9.27496 8.33566 9.17707 8.69391 9.4218C9.05216 9.67141 9.14803 10.1413 8.89574 10.4937C8.18429 11.4872 8.24484 12.7794 9.03198 13.6701L10.1774 14.9721L15.5764 20.7034C15.8942 21.0411 16.4089 21.095 16.7874 20.8258L24.1693 15.5251C24.3358 15.4077 24.4418 15.2315 24.4721 15.0308C24.4973 14.8301 24.4469 14.6343 24.3207 14.4728C24.0836 14.1743 23.6597 14.096 23.3317 14.2917C21.2983 15.5202 17.0346 17.7668 16.8529 17.8646C16.4745 18.0653 15.9952 17.9283 15.7832 17.5563L12.342 11.5019C12.1301 11.125 12.2663 10.6503 12.6498 10.4398C13.0333 10.2294 13.5177 10.3664 13.7296 10.7433L16.7874 16.1222C18.1043 15.4174 20.9854 13.8708 22.4992 12.9605C23.5184 12.3487 24.8404 12.5836 25.5771 13.5184C25.9656 14.0128 26.1321 14.6294 26.0464 15.251C25.9555 15.8726 25.6225 16.4159 25.1079 16.7879L17.7208 22.0885C17.2768 22.4067 16.7621 22.5633 16.2475 22.5633Z" fill="white"/>
<path d="M41.6984 13.2932H50.5739V6.41165H46.6079V9.30424C46.6079 9.73495 46.2547 10.0825 45.8158 10.0825H41.6984V13.2932ZM51.3712 14.8545H40.9062C40.4672 14.8545 40.114 14.5021 40.114 14.0763V9.30424C40.114 8.87353 40.4672 8.52114 40.9062 8.52114H45.0236V5.63344C45.0236 5.20273 45.3768 4.85522 45.8158 4.85522H51.3712C51.8101 4.85522 52.1634 5.20273 52.1634 5.63344V14.0763C52.1634 14.507 51.8101 14.8545 51.3712 14.8545Z" fill="white"/>
</g>
</g>
<defs>
<clipPath id="clip0_1209_1957">
<rect width="54" height="54" fill="white"/>
</clipPath>
</defs>
</svg>
