<svg width="35" height="64" viewBox="0 0 35 64" fill="none" xmlns="http://www.w3.org/2000/svg">
<path d="M17.4493 25.2375C20.5975 25.2375 23.1496 22.6854 23.1496 19.5372C23.1496 16.389 20.5975 13.8369 17.4493 13.8369C14.3011 13.8369 11.749 16.389 11.749 19.5372C11.749 22.6854 14.3011 25.2375 17.4493 25.2375Z" fill="#00A2E3"/>
<path d="M29.3043 25.6896C29.3127 20.8028 28.2558 15.9729 26.2072 11.5363C24.1586 7.09965 21.1676 3.16284 17.4424 0C13.7213 3.16548 10.734 7.10313 8.68796 11.5394C6.64194 15.9757 5.58627 20.8042 5.59428 25.6896C5.59317 32.03 7.38143 38.242 10.7535 43.6114H24.1452C25.9291 40.7993 27.2716 37.7305 28.1261 34.5117C28.9146 31.6376 29.311 28.6699 29.3043 25.6896ZM17.4493 27.55C15.8645 27.55 14.3153 27.08 12.9976 26.1996C11.6799 25.3191 10.6529 24.0677 10.0464 22.6035C9.43997 21.1394 9.28129 19.5283 9.59047 17.9739C9.89964 16.4196 10.6628 14.9919 11.7834 13.8712C12.904 12.7506 14.3318 11.9875 15.8861 11.6783C17.4404 11.3691 19.0515 11.5278 20.5157 12.1343C21.9798 12.7408 23.2313 13.7678 24.1117 15.0855C24.9922 16.4032 25.4621 17.9524 25.4621 19.5372C25.4597 21.6615 24.6147 23.6982 23.1125 25.2004C21.6104 26.7025 19.5737 27.5475 17.4493 27.55Z" fill="#00A2E3"/>
<path d="M17.4493 50.4624C16.2688 50.4639 15.1372 50.9335 14.3024 51.7683C13.4677 52.603 12.9981 53.7347 12.9966 54.9151C12.9966 56.6171 15.4421 60.6964 17.4493 63.5766C19.4566 60.686 21.902 56.616 21.902 54.9151C21.9005 53.7347 21.4309 52.603 20.5962 51.7683C19.7614 50.9335 18.6298 50.4639 17.4493 50.4624Z" fill="#00A2E3"/>
<path d="M13.2186 45.9194H21.8003V48.1498H13.2186V45.9194Z" fill="#00A2E3"/>
<path d="M0.187731 42.4241C0.0945758 42.5246 0.03277 42.6501 0.00988738 42.7852C-0.0129952 42.9203 0.00404122 43.0592 0.0589084 43.1847C0.113776 43.3103 0.204088 43.4171 0.318776 43.4921C0.433464 43.5671 0.567543 43.607 0.704575 43.607H8.08376C6.88819 41.5318 5.9054 39.3411 5.15036 37.0684L0.187731 42.4241Z" fill="#00A2E3"/>
<path d="M29.7576 37.0605C29.0037 39.3379 28.0177 41.5316 26.8149 43.6072H34.1941C34.331 43.6073 34.465 43.5675 34.5796 43.4927C34.6943 43.4178 34.7846 43.3112 34.8396 43.1858C34.8945 43.0604 34.9117 42.9217 34.8891 42.7867C34.8665 42.6517 34.805 42.5262 34.7121 42.4255L29.7576 37.0605Z" fill="#00A2E3"/>
</svg>
