<svg width="49" height="49" viewBox="0 0 49 49" fill="none" xmlns="http://www.w3.org/2000/svg">
<g clip-path="url(#clip0_1209_1988)">
<mask id="mask0_1209_1988" style="mask-type:luminance" maskUnits="userSpaceOnUse" x="0" y="0" width="49" height="49">
<path d="M49 0H0V49H49V0Z" fill="white"/>
</mask>
<g mask="url(#mask0_1209_1988)">
<path d="M32.4028 49H4.19048C1.88035 49 0 47.1255 0 44.8184V10.43C0 10.149 0.11103 9.88282 0.308018 9.68317L9.71333 0.306874C9.91031 0.107221 10.1825 0 10.4619 0H32.4064C33.5239 0 34.5769 0.432581 35.372 1.2238C36.1635 2.01132 36.5969 3.06134 36.5969 4.17792V22.2021H34.4873V4.17792C34.4873 3.62333 34.2688 3.10571 33.8784 2.7138C33.4845 2.32189 32.9616 2.10375 32.4064 2.10375H10.8953L2.11315 10.8663V44.8184C2.11315 45.9608 3.04795 46.8926 4.19407 46.8926H32.4064C33.5525 46.8926 34.4873 45.9608 34.4873 44.8184V37.0023H36.5969V44.8184C36.5969 47.1255 34.7165 48.9963 32.4064 48.9963" fill="white"/>
<path d="M8.89314 13.0477H1.05658V10.9439H8.89314C10.0393 10.9439 10.9741 10.0122 10.9741 8.86975V1.05371H13.0836V8.86975C13.0836 11.1769 11.2033 13.0477 8.89314 13.0477Z" fill="white"/>
<path d="M16.7297 20.8638H8.89312C8.30932 20.8638 7.83655 20.3905 7.83655 19.81C7.83655 19.2296 8.30932 18.76 8.89312 18.76H16.7297C17.3135 18.76 17.7863 19.2333 17.7863 19.81C17.7863 20.3868 17.3135 20.8638 16.7297 20.8638Z" fill="#49C8F5"/>
<path d="M15.1609 27.1158H8.89312C8.30932 27.1158 7.83655 26.6426 7.83655 26.0621C7.83655 25.4816 8.30932 25.0121 8.89312 25.0121H15.1609C15.7447 25.0121 16.2175 25.4853 16.2175 26.0621C16.2175 26.6389 15.7447 27.1158 15.1609 27.1158Z" fill="white"/>
<path d="M15.1609 33.3679H8.89312C8.30932 33.3679 7.83655 32.8947 7.83655 32.3142C7.83655 31.7337 8.30932 31.2642 8.89312 31.2642H15.1609C15.7447 31.2642 16.2175 31.7374 16.2175 32.3142C16.2175 32.891 15.7447 33.3679 15.1609 33.3679Z" fill="#49C8F5"/>
<path d="M16.7297 39.62H8.89312C8.30932 39.62 7.83655 39.1467 7.83655 38.5663C7.83655 37.9858 8.30932 37.5162 8.89312 37.5162H16.7297C17.3135 37.5162 17.7863 37.9895 17.7863 38.5663C17.7863 39.143 17.3135 39.62 16.7297 39.62Z" fill="white"/>
<path d="M40.243 41.184C39.9708 41.184 39.7021 41.0805 39.4944 40.8771L35.1714 36.5661C34.7595 36.1557 34.7595 35.4902 35.1714 35.0798C35.5833 34.6694 36.253 34.6694 36.6649 35.0798L40.9879 39.3908C41.3998 39.8012 41.3998 40.4704 40.9879 40.8771C40.7802 41.0805 40.5116 41.184 40.2394 41.184" fill="#49C8F5"/>
<path d="M29.2689 20.8638C24.6665 20.8638 20.9202 24.598 20.9202 29.19C20.9202 33.782 24.6665 37.5163 29.2689 37.5163C33.8713 37.5163 37.6176 33.7783 37.6176 29.19C37.6176 24.6017 33.8713 20.8638 29.2689 20.8638ZM29.2689 39.62C23.5025 39.62 18.8106 34.9393 18.8106 29.19C18.8106 23.4408 23.5025 18.76 29.2689 18.76C35.0353 18.76 39.7272 23.4371 39.7272 29.19C39.7272 34.943 35.0353 39.62 29.2689 39.62Z" fill="#49C8F5"/>
<path d="M41.8081 40.5332C41.5001 40.5332 41.2064 40.6552 40.988 40.8734C40.7695 41.0952 40.6477 41.3836 40.6477 41.6942C40.6477 42.0047 40.7695 42.2931 40.988 42.5113L44.9062 46.4193C45.1247 46.6374 45.4148 46.7594 45.7264 46.7594C46.038 46.7594 46.3281 46.6374 46.5466 46.4193C46.7651 46.2012 46.8869 45.9091 46.8869 45.5985C46.8869 45.2879 46.7651 44.9995 46.5466 44.7814L42.6283 40.8734C42.4098 40.6552 42.1197 40.5332 41.8081 40.5332ZM45.7264 48.8632C44.8525 48.8632 44.0323 48.523 43.4127 47.9056L39.4944 43.9976C38.8784 43.3838 38.5345 42.563 38.5345 41.6905C38.5345 40.8179 38.8748 40.0008 39.4944 39.3834C40.114 38.7659 40.9342 38.4258 41.8081 38.4258C42.6821 38.4258 43.5022 38.7659 44.1219 39.3834L48.0401 43.2914C48.6562 43.9051 49 44.7259 49 45.5985C49 46.4711 48.6598 47.2882 48.0401 47.9056C47.4205 48.523 46.6003 48.8632 45.7264 48.8632Z" fill="white"/>
</g>
</g>
<defs>
<clipPath id="clip0_1209_1988">
<rect width="49" height="49" fill="white"/>
</clipPath>
</defs>
</svg>
