<svg width="55" height="46" viewBox="0 0 55 46" fill="none" xmlns="http://www.w3.org/2000/svg">
<path fill-rule="evenodd" clip-rule="evenodd" d="M27.3161 2.81046C25.713 2.81031 24.1443 3.27567 22.8005 4.15001C21.4568 5.02435 20.3959 6.27005 19.7466 7.73583C19.0973 9.2016 18.8876 10.8244 19.143 12.407C19.3983 13.9897 20.1077 15.4642 21.185 16.6514C22.094 17.6309 22.5924 18.9218 22.5776 20.258V21.5171H26.405V14.0213C25.8114 13.8069 25.3125 13.3901 24.996 12.8442C24.6795 12.2983 24.5656 11.6583 24.6744 11.0367C24.7832 10.4151 25.1077 9.85177 25.5909 9.44584C26.074 9.03992 26.6849 8.81738 27.3159 8.81738C27.9469 8.81738 28.5578 9.03992 29.0409 9.44584C29.5241 9.85177 29.8486 10.4151 29.9574 11.0367C30.0662 11.6583 29.9523 12.2983 29.6358 12.8442C29.3193 13.3901 28.8203 13.8069 28.2268 14.0213V21.5171H32.0549V20.258C32.0402 18.9218 32.5387 17.6309 33.4476 16.6514C34.5244 15.464 35.2333 13.9895 35.4883 12.407C35.7433 10.8245 35.5335 9.20196 34.8842 7.73639C34.235 6.27083 33.1743 5.02524 31.8308 4.15083C30.4874 3.27642 28.919 2.81079 27.3161 2.81046ZM29.3468 28.6035L29.9459 28.1393H24.6868L25.286 28.6035H29.3468ZM23.1753 26.3187H31.4573V25.7386H23.1753V26.3187ZM31.4573 23.3385H23.1753V23.9179H31.4573V23.3385ZM27.3161 12.3595C27.1462 12.3591 26.9802 12.3084 26.8392 12.2137C26.6981 12.119 26.5882 11.9847 26.5234 11.8276C26.4587 11.6706 26.4419 11.4978 26.4753 11.3312C26.5086 11.1646 26.5906 11.0117 26.7108 10.8917C26.8311 10.7716 26.9842 10.6899 27.1509 10.6569C27.3175 10.6238 27.4902 10.6409 27.6472 10.706C27.8041 10.7711 27.9383 10.8812 28.0326 11.0224C28.127 11.1637 28.1775 11.3298 28.1775 11.4997C28.1775 11.6127 28.1552 11.7246 28.1119 11.8291C28.0686 11.9335 28.0051 12.0283 27.9251 12.1082C27.8451 12.1881 27.7501 12.2514 27.6456 12.2945C27.5411 12.3376 27.4292 12.3597 27.3161 12.3595ZM20.7574 20.258C20.7714 19.3747 20.4411 18.5207 19.8365 17.8767C18.5223 16.4282 17.6569 14.6293 17.3455 12.6985C17.034 10.7677 17.2899 8.78792 18.082 6.99971C18.8741 5.21149 20.1684 3.69172 21.8076 2.62496C23.4469 1.5582 25.3606 0.990344 27.3164 0.990344C29.2722 0.990344 31.1859 1.5582 32.8252 2.62496C34.4645 3.69172 35.7587 5.21149 36.5508 6.99971C37.3429 8.78792 37.5988 10.7677 37.2874 12.6985C36.9759 14.6293 36.1105 16.4282 34.7963 17.8767C34.1917 18.5206 33.8617 19.3748 33.8763 20.258V21.5928C33.876 21.8412 33.8226 22.0866 33.7197 22.3126C33.6167 22.5386 33.4666 22.74 33.2794 22.9032V27.412C33.2796 27.5508 33.2478 27.6878 33.1865 27.8124C33.1251 27.9369 33.036 28.0456 32.9258 28.1301L30.2166 30.2333C30.057 30.3572 29.8607 30.4245 29.6587 30.4246H24.9744C24.7723 30.4246 24.576 30.3573 24.4164 30.2333L21.7062 28.1301C21.5964 28.0454 21.5075 27.9366 21.4463 27.8121C21.3851 27.6876 21.3532 27.5507 21.3532 27.412V22.9032C21.1661 22.7399 21.0162 22.5385 20.9134 22.3125C20.8106 22.0865 20.7573 21.8411 20.7571 21.5928V20.258H20.7574ZM28.2266 34.7168C28.2261 34.4751 28.1297 34.2434 27.9585 34.0728C27.7873 33.9021 27.5553 33.8064 27.3136 33.8066C27.0718 33.8069 26.8401 33.9031 26.6692 34.0741C26.4984 34.2451 26.4024 34.477 26.4024 34.7187C26.4024 34.9605 26.4984 35.1923 26.6692 35.3633C26.8401 35.5344 27.0718 35.6306 27.3136 35.6308C27.5553 35.6311 27.7873 35.5353 27.9585 35.3647C28.1297 35.194 28.2261 34.9623 28.2266 34.7206V34.7168ZM54.6322 0V31.4125H0V0H54.6322ZM0 36.2033V33.2343H54.6322V36.2033H0ZM37.2964 46H17.3355C19.7596 43.3964 21.7323 40.78 23.3544 38.0252H31.2782C32.9001 40.78 34.8732 43.3969 37.2964 46Z" fill="#00A2E3"/>
</svg>
