<svg width="48" height="44" viewBox="0 0 48 44" fill="none" xmlns="http://www.w3.org/2000/svg">
<path d="M46.8085 0.840088H0.891602V26.5885H46.8085V0.840088Z" fill="#50C6F3"/>
<mask id="mask0_1209_2026" style="mask-type:luminance" maskUnits="userSpaceOnUse" x="0" y="0" width="48" height="44">
<path d="M47.6637 0H0.000488281V43.9968H47.6637V0Z" fill="white"/>
</mask>
<g mask="url(#mask0_1209_2026)">
<path d="M20.3035 9.43038C20.2774 9.27968 20.2611 9.11294 20.2611 8.92054C20.2611 6.98701 21.8671 5.4126 23.8386 5.4126C25.8102 5.4126 27.4096 6.98701 27.4096 8.92054C27.4096 9.11294 27.3966 9.27968 27.3639 9.44962C27.106 11.1331 25.6209 12.406 23.8941 12.4349H23.7766C22.0466 12.406 20.5581 11.1331 20.297 9.43359" fill="#50C6F3"/>
<path d="M20.1992 13.7946H23.7767C23.7963 13.7946 23.8191 13.7946 23.8387 13.7946C23.8583 13.7946 23.8779 13.7946 23.8975 13.7946H27.4684C28.7447 13.7946 30.0569 15.7249 30.6379 17.3763H17.0297C17.6107 15.7249 18.9163 13.7946 20.1992 13.7946Z" fill="#50C6F3"/>
</g>
<path d="M34.3004 21.8814H31.5454H16.119H13.3706V18.7358H34.3004V21.8814Z" fill="white"/>
<path d="M30.8273 23.2443H16.811V28.6152H30.8273V23.2443Z" fill="white"/>
<path d="M8.41547 30.6736C6.44392 30.6736 4.83795 32.2448 4.83795 34.1815C4.83795 34.3739 4.85101 34.5406 4.88038 34.6914C5.14478 36.4133 6.66261 37.6959 8.41873 37.6959C10.1748 37.6959 11.6862 36.4101 11.944 34.7074C11.9734 34.5374 11.9865 34.3707 11.9865 34.1783C11.9865 32.2416 10.3838 30.6704 8.41547 30.6704M8.41547 39.0586C5.94124 39.0586 3.87829 37.3143 3.50944 34.9126C3.47027 34.701 3.45068 34.4573 3.45068 34.1815C3.45068 31.4944 5.67684 29.3108 8.41547 29.3108C11.1541 29.3108 13.3737 31.4944 13.3737 34.1815C13.3737 34.4573 13.3541 34.701 13.3117 34.9318C12.9526 37.2758 10.8473 39.0586 8.41873 39.0586" fill="white"/>
<path d="M0.695747 43.9968C0.650049 43.9968 0.604351 43.9936 0.558652 43.984C0.183274 43.907 -0.0615377 43.5511 0.0135379 43.1823C0.405237 41.268 2.20379 37.6927 4.77594 37.6927H12.0452C14.5945 37.6927 16.3996 41.2488 16.7978 43.1535C16.8762 43.5222 16.6346 43.8814 16.2593 43.9583C15.8806 44.0353 15.5183 43.798 15.4399 43.4292C15.0744 41.6881 13.5337 39.0555 12.0452 39.0555H4.77594C3.27117 39.0555 1.73375 41.7009 1.37469 43.4517C1.30941 43.7755 1.0189 44 0.695747 44" fill="white"/>
<path d="M23.8387 30.6736C21.8671 30.6736 20.2612 32.2448 20.2612 34.1815C20.2612 34.3739 20.2742 34.5406 20.3036 34.6914C20.568 36.4133 22.0858 37.6959 23.8419 37.6959C25.5981 37.6959 27.1094 36.4101 27.3672 34.7074C27.3966 34.5374 27.4129 34.3707 27.4129 34.1783C27.4129 32.2416 25.8102 30.6704 23.8419 30.6704M23.8387 39.0586C21.3645 39.0586 19.3015 37.3143 18.9327 34.9126C18.8935 34.701 18.8739 34.4573 18.8739 34.1815C18.8739 31.4944 21.1001 29.3108 23.8387 29.3108C26.5773 29.3108 28.7969 31.4944 28.7969 34.1815C28.7969 34.4541 28.7774 34.6978 28.7349 34.9318C28.3759 37.2758 26.2705 39.0586 23.8387 39.0586Z" fill="white"/>
<path d="M16.1189 43.9968C16.0732 43.9968 16.0275 43.9936 15.9818 43.984C15.6064 43.907 15.3649 43.5511 15.4399 43.1823C15.8316 41.268 17.6335 37.6927 20.2023 37.6927H27.4716C30.0242 37.6927 31.826 41.2488 32.2242 43.1535C32.3026 43.5222 32.061 43.8814 31.6857 43.9583C31.307 44.0353 30.9447 43.798 30.8663 43.4292C30.5008 41.6881 28.9601 39.0555 27.4716 39.0555H20.2023C18.6976 39.0555 17.1602 41.7009 16.8011 43.4517C16.7358 43.7755 16.4453 43.9968 16.1222 43.9968" fill="white"/>
<path d="M39.2651 30.6736C37.2935 30.6736 35.6876 32.2448 35.6876 34.1815C35.6876 34.3739 35.7006 34.5406 35.73 34.6914C35.9944 36.4133 37.5122 37.6959 39.2683 37.6959C41.0245 37.6959 42.5358 36.4101 42.7936 34.7074C42.823 34.5374 42.8393 34.3707 42.8393 34.1783C42.8393 32.2416 41.2366 30.6704 39.2683 30.6704M39.2651 39.0586C36.83 39.0586 34.7214 37.2758 34.359 34.9126C34.3199 34.701 34.3003 34.4573 34.3003 34.1815C34.3003 31.4944 36.5264 29.3108 39.2651 29.3108C42.0037 29.3108 44.2233 31.4944 44.2233 34.1815C44.2233 34.4573 44.2037 34.701 44.1613 34.9318C43.8023 37.2758 41.6969 39.0586 39.2651 39.0586Z" fill="white"/>
<path d="M31.5454 43.9968C31.4997 43.9968 31.454 43.9936 31.4083 43.984C31.0329 43.907 30.7881 43.5511 30.8631 43.1823C31.2548 41.268 33.0534 37.6927 35.6256 37.6927H42.8948C45.4441 37.6927 47.2492 41.2488 47.6474 43.1535C47.7258 43.5222 47.4842 43.8814 47.1089 43.9583C46.7335 44.0353 46.3679 43.798 46.2896 43.4292C45.924 41.6881 44.3833 39.0555 42.8948 39.0555H35.6256C34.1208 39.0555 32.5834 41.7009 32.2243 43.4517C32.159 43.7755 31.8685 44 31.5454 44" fill="white"/>
<path d="M23.8387 5.41258C21.8671 5.41258 20.2612 6.98378 20.2612 8.92053C20.2612 9.11292 20.2742 9.27966 20.3036 9.43037C20.568 11.1523 22.0858 12.4349 23.8419 12.4349C25.5981 12.4349 27.1094 11.1491 27.3672 9.4464C27.3966 9.27645 27.4129 9.10971 27.4129 8.91732C27.4129 6.98058 25.8102 5.40937 23.8419 5.40937M23.8387 13.7977C21.3645 13.7977 19.3015 12.0533 18.9327 9.65162C18.8935 9.43999 18.8739 9.19629 18.8739 8.92053C18.8739 6.23345 21.1001 4.0498 23.8387 4.0498C26.5773 4.0498 28.7969 6.23345 28.7969 8.92053C28.7969 9.19308 28.7774 9.43678 28.7349 9.67086C28.3759 12.0148 26.2705 13.7977 23.8387 13.7977Z" fill="white"/>
<path d="M16.1189 18.7358C16.0732 18.7358 16.0275 18.7326 15.9818 18.723C15.6064 18.646 15.3649 18.2901 15.4399 17.9213C15.8316 16.007 17.6335 12.4318 20.2023 12.4318H27.4716C30.0242 12.4318 31.826 15.9878 32.2242 17.8925C32.3026 18.2612 32.061 18.6236 31.6857 18.6973C31.307 18.7743 30.9447 18.537 30.8664 18.1682C30.5008 16.4271 28.9601 13.7945 27.4716 13.7945H20.2023C18.7008 13.7945 17.1602 16.4399 16.8011 18.1907C16.7358 18.5146 16.4453 18.7358 16.1222 18.7358" fill="white"/>
<path d="M13.3705 21.8781H34.297V18.7357H13.3705V21.8781ZM34.9922 23.2409H12.6785C12.2965 23.2409 11.9865 22.9363 11.9865 22.5579V18.0527C11.9865 17.6776 12.2965 17.3698 12.6785 17.3698H34.9922C35.3741 17.3698 35.6875 17.6744 35.6875 18.0527V22.5579C35.6875 22.9331 35.3774 23.2409 34.9922 23.2409Z" fill="#50C6F3"/>
<path d="M31.5453 43.3908C31.1634 43.3908 30.8501 43.0862 30.8501 42.7078V23.2377H16.8109V42.7078C16.8109 43.083 16.5008 43.3908 16.1157 43.3908C15.7305 43.3908 15.4204 43.0862 15.4204 42.7078V22.558C15.4204 22.1828 15.7305 21.8782 16.1157 21.8782H31.5421C31.924 21.8782 32.2374 22.1828 32.2374 22.558V42.7078C32.2374 43.083 31.9273 43.3908 31.5421 43.3908" fill="white"/>
<path d="M46.9684 43.9712H0.69249C0.310583 43.9712 0.000488281 43.6666 0.000488281 43.2882C0.000488281 42.9098 0.310583 42.6084 0.69249 42.6084H46.9684C47.3504 42.6084 47.6637 42.913 47.6637 43.2882C47.6637 43.6633 47.3536 43.9712 46.9684 43.9712Z" fill="white"/>
<path d="M46.9684 27.5313H31.5453C31.1601 27.5313 30.85 27.2267 30.85 26.8483C30.85 26.4699 31.1601 26.1685 31.5453 26.1685H46.2765V1.36278H1.38776V26.1717H16.1189C16.5008 26.1717 16.8109 26.4763 16.8109 26.8515C16.8109 27.2267 16.5008 27.5345 16.1189 27.5345H0.69249C0.310583 27.5313 0.000488281 27.2267 0.000488281 26.8515V0.679785C0.000488281 0.304621 0.310583 0 0.69249 0H46.9684C47.3504 0 47.6637 0.304621 47.6637 0.682991V26.8515C47.6637 27.2299 47.3536 27.5345 46.9684 27.5345" fill="white"/>
</svg>
