<svg width="29" height="20" viewBox="0 0 29 20" fill="none" xmlns="http://www.w3.org/2000/svg">
<path d="M7.375 5.625H17.375M7.375 10H17.375M7.375 14.375H17.375M3.625 5.625H3.63083V5.63167H3.625V5.625ZM3.9375 5.625C3.9375 5.70788 3.90458 5.78737 3.84597 5.84597C3.78737 5.90458 3.70788 5.9375 3.625 5.9375C3.54212 5.9375 3.46263 5.90458 3.40403 5.84597C3.34542 5.78737 3.3125 5.70788 3.3125 5.625C3.3125 5.54212 3.34542 5.46263 3.40403 5.40403C3.46263 5.34542 3.54212 5.3125 3.625 5.3125C3.70788 5.3125 3.78737 5.34542 3.84597 5.40403C3.90458 5.46263 3.9375 5.54212 3.9375 5.625ZM3.625 10H3.63083V10.0067H3.625V10ZM3.9375 10C3.9375 10.0829 3.90458 10.1624 3.84597 10.221C3.78737 10.2796 3.70788 10.3125 3.625 10.3125C3.54212 10.3125 3.46263 10.2796 3.40403 10.221C3.34542 10.1624 3.3125 10.0829 3.3125 10C3.3125 9.91712 3.34542 9.83763 3.40403 9.77903C3.46263 9.72042 3.54212 9.6875 3.625 9.6875C3.70788 9.6875 3.78737 9.72042 3.84597 9.77903C3.90458 9.83763 3.9375 9.91712 3.9375 10ZM3.625 14.375H3.63083V14.3817H3.625V14.375ZM3.9375 14.375C3.9375 14.4579 3.90458 14.5374 3.84597 14.596C3.78737 14.6546 3.70788 14.6875 3.625 14.6875C3.54212 14.6875 3.46263 14.6546 3.40403 14.596C3.34542 14.5374 3.3125 14.4579 3.3125 14.375C3.3125 14.2921 3.34542 14.2126 3.40403 14.154C3.46263 14.0954 3.54212 14.0625 3.625 14.0625C3.70788 14.0625 3.78737 14.0954 3.84597 14.154C3.90458 14.2126 3.9375 14.2921 3.9375 14.375Z" stroke="white" stroke-width="1.5" stroke-linecap="round" stroke-linejoin="round"/>
<path d="M25 5V7.5M25 7.5V10M25 7.5H27.5M25 7.5H22.5" stroke="white" stroke-width="1.5" stroke-linecap="round" stroke-linejoin="round"/>
</svg>
