<svg width="20" height="20" viewBox="0 0 20 20" fill="none" xmlns="http://www.w3.org/2000/svg">
<path d="M10.7501 2.75C10.7501 2.55109 10.6711 2.36032 10.5304 2.21967C10.3898 2.07902 10.199 2 10.0001 2C9.8012 2 9.61044 2.07902 9.46979 2.21967C9.32914 2.36032 9.25012 2.55109 9.25012 2.75V11.364L6.29512 8.235C6.2281 8.16102 6.14699 8.10116 6.05654 8.05893C5.96609 8.0167 5.86812 7.99295 5.76838 7.98907C5.66863 7.9852 5.56911 8.00127 5.47566 8.03636C5.38221 8.07144 5.2967 8.12483 5.22414 8.19339C5.15159 8.26195 5.09345 8.3443 5.05314 8.43562C5.01283 8.52694 4.99115 8.62539 4.98938 8.72519C4.9876 8.825 5.00577 8.92416 5.04282 9.01685C5.07987 9.10954 5.13504 9.19391 5.20512 9.265L9.45512 13.765C9.52521 13.8391 9.6097 13.8982 9.70341 13.9386C9.79712 13.9789 9.89808 13.9998 10.0001 13.9998C10.1022 13.9998 10.2031 13.9789 10.2968 13.9386C10.3905 13.8982 10.475 13.8391 10.5451 13.765L14.7951 9.265C14.9268 9.11961 14.9963 8.9284 14.9887 8.73237C14.9811 8.53635 14.897 8.35111 14.7544 8.21637C14.6118 8.08163 14.4221 8.00813 14.2259 8.01161C14.0298 8.01509 13.8428 8.09529 13.7051 8.235L10.7501 11.364V2.75Z" fill="white"/>
<path d="M3.5 12.75C3.5 12.5511 3.42098 12.3603 3.28033 12.2197C3.13968 12.079 2.94891 12 2.75 12C2.55109 12 2.36032 12.079 2.21967 12.2197C2.07902 12.3603 2 12.5511 2 12.75V15.25C2 15.9793 2.28973 16.6788 2.80546 17.1945C3.32118 17.7103 4.02065 18 4.75 18H15.25C15.9793 18 16.6788 17.7103 17.1945 17.1945C17.7103 16.6788 18 15.9793 18 15.25V12.75C18 12.5511 17.921 12.3603 17.7803 12.2197C17.6397 12.079 17.4489 12 17.25 12C17.0511 12 16.8603 12.079 16.7197 12.2197C16.579 12.3603 16.5 12.5511 16.5 12.75V15.25C16.5 15.94 15.94 16.5 15.25 16.5H4.75C4.06 16.5 3.5 15.94 3.5 15.25V12.75Z" fill="white"/>
</svg>
