<svg width="17" height="19" viewBox="0 0 17 19" fill="none" xmlns="http://www.w3.org/2000/svg">
<path d="M1.78125 0.650391H9.94922L10.0615 0.655273C10.3202 0.681235 10.5636 0.795895 10.749 0.981445V0.982422L15.6445 5.875C15.7494 5.98007 15.8329 6.105 15.8896 6.24219C15.9464 6.37952 15.9748 6.5272 15.9746 6.67578V17.2188C15.9746 17.5188 15.8557 17.8064 15.6436 18.0186C15.4314 18.2307 15.1438 18.3496 14.8438 18.3496H1.78125C1.48122 18.3496 1.1936 18.2307 0.981445 18.0186C0.769295 17.8064 0.650391 17.5188 0.650391 17.2188V1.78125C0.650391 1.48122 0.769295 1.1936 0.981445 0.981445C1.1936 0.769295 1.48122 0.650391 1.78125 0.650391Z" stroke="white" stroke-width="1.3"/>
<path d="M3.49409 8.66871C3.70683 7.8747 4.15027 7.16161 4.76833 6.61962C5.38639 6.07762 6.15131 5.73108 6.96635 5.6238C7.78139 5.51653 8.60994 5.65334 9.34721 6.01695C10.0845 6.38055 10.6974 6.95461 11.1083 7.66653L11.2675 8.02703M11.2675 8.02703C11.3785 8.00868 11.4795 7.95147 11.5523 7.86561C11.6251 7.77975 11.6651 7.67081 11.665 7.55824V5.58855M11.2675 8.02703C11.2421 8.03114 11.2163 8.0332 11.19 8.0332H9.22021M3.35254 13.9005V11.9308C3.35254 11.8048 3.40258 11.684 3.49166 11.5949C3.58074 11.5059 3.70156 11.4558 3.82754 11.4558M3.82754 11.4558H5.79736M3.82754 11.4558L3.90924 11.8225C4.32022 12.5344 4.9331 13.1085 5.67037 13.4721C6.40764 13.8357 7.23619 13.9725 8.05123 13.8652C8.86626 13.7579 9.63118 13.4114 10.2492 12.8694C10.8673 12.3274 11.3107 11.6143 11.5235 10.8203" stroke="white" stroke-width="1.3" stroke-linecap="round" stroke-linejoin="round"/>
</svg>
