<svg viewBox="42.70412719 42.71704433497536 311.91454 87.87266009852216" xmlns="http://www.w3.org/2000/svg" data-name="Layer 1" id="Layer_1" style="max-height: 500px" width="311.91454" height="87.87266009852216">
  <defs>
    <style>
      .cls-1 {
        fill: #19a1db;
      }

      .cls-2 {
        fill: #fff;
      }

      .cls-3 {
        fill: #12416c;
      }
    </style>
  </defs>
  <g>
    <path d="M53.78,44.93h59.94c5.6,0,10.13,4.54,10.13,10.13v59.94c0,5.6-4.54,10.13-10.13,10.13h-59.94c-5.6,0-10.13-4.54-10.13-10.13v-59.94c0-5.6,4.54-10.13,10.13-10.13Z" class="cls-1" data-name="Rounded Square" id="Rounded_Square"/>
    <g data-name="&amp;lt;Group&amp;gt;Thistle" id="_Group_Thistle">
      <path d="M84.92,78.93l-1.13-2.5-1.13,2.5-1.11,2.44c-.59,1.29-.48,2.8.29,3.99l.82,1.28,1.13,1.78,1.13-1.78.81-1.28c.77-1.19.88-2.7.29-3.99l-1.11-2.44Z" class="cls-2" data-name="Path 2382" id="Path_2382"/>
      <path d="M84.76,65.97l-.98-2.01-.98,2.01-.95,1.96c-.51,1.04-.41,2.27.25,3.21l.7,1.03.98,1.43.98-1.43.7-1.03c.66-.94.76-2.18.25-3.21l-.95-1.96Z" class="cls-2" data-name="Path 2383" id="Path_2383"/>
      <path d="M84.27,58.62l-.48-1-.48,1-.47.97c-.25.51-.2,1.12.12,1.59l.35.51.49.71.48-.71.35-.51c.33-.47.38-1.08.12-1.59l-.47-.97Z" class="cls-2" data-name="Path 2384" id="Path_2384"/>
      <path d="M79.52,60.99l-1.16-1.94-.79,2.07-.77,2.02c-.41,1.08-.2,2.3.54,3.19l.79.98,1.11,1.36.84-1.49.61-1.07c.58-1,.56-2.24-.04-3.22l-1.13-1.89Z" class="cls-2" data-name="Path 2385" id="Path_2385"/>
      <path d="M80.9,87.56c-1.12-.97-1.79-2.35-1.87-3.82-.14-2.51.43-3.91-2.44-7.12,0,1.69-.25,3.36-.77,4.97-.81,2.2.96,6.16,5.08,5.98" class="cls-2" data-name="Path 2386" id="Path_2386"/>
      <path d="M78.45,88.29s-2.25-.41-4.26-3.45c-2.01-3.04-4.93-4.68-8.72-3.82,1.55,1.1,2.92,2.43,4.07,3.94,2.01,2.59,5.22,4.14,8.91,3.32" class="cls-2" data-name="Path 2387" id="Path_2387"/>
      <path d="M80.32,79.1c-.49-1.15-1.15-2.21-1.96-3.16-1.44-1.72.29-4.47,1.01-5.37.45.9,1,1.76,1.63,2.54,1.2,1.56,1.01,2.83-.67,5.99" class="cls-2" data-name="Path 2388" id="Path_2388"/>
      <path d="M76.2,73.57s-.05-.45.77-2.05,0-3.73-2.25-5.37c-.21,1.01-.48,2.01-.81,3-.53,1.52.19,2.87,2.3,4.43" class="cls-2" data-name="Path 2389" id="Path_2389"/>
      <path d="M69.95,74.55s-.2-.42.04-2.16-1.26-3.57-3.97-4.59c.14,1.02.22,2.04.23,3.07,0,1.58,1.15,2.7,3.69,3.67" class="cls-2" data-name="Path 2390" id="Path_2390"/>
      <path d="M72.21,79.92s-.41-.28-1.19-1.9c-.78-1.61-3.14-2.59-6.08-2.34.7.82,1.35,1.68,1.95,2.58.91,1.38,2.55,1.87,5.32,1.66" class="cls-2" data-name="Path 2391" id="Path_2391"/>
      <path d="M74.24,79.68c.79-1.29.97-2.87.48-4.31-.52-1.56-2.97-4.1-2.97-4.1,0,0-2.06,5.83,2.49,8.41" class="cls-2" data-name="Path 2392" id="Path_2392"/>
      <path d="M88.04,60.99l1.16-1.94.79,2.07.77,2.02c.41,1.08.2,2.3-.54,3.19l-.79.98-1.1,1.36-.84-1.49-.61-1.07c-.58-1-.56-2.24.04-3.22l1.13-1.89Z" class="cls-2" data-name="Path 2393" id="Path_2393"/>
      <path d="M86.67,87.56c1.12-.97,1.79-2.35,1.87-3.83.14-2.51-.43-3.91,2.44-7.12,0,1.69.25,3.36.77,4.97.81,2.2-.96,6.16-5.08,5.98" class="cls-2" data-name="Path 2394" id="Path_2394"/>
      <path d="M89.11,88.29s2.25-.41,4.26-3.45c2.01-3.04,4.93-4.68,8.72-3.82-1.55,1.1-2.92,2.43-4.07,3.94-2.01,2.59-5.22,4.14-8.91,3.32" class="cls-2" data-name="Path 2395" id="Path_2395"/>
      <path d="M87.25,79.1c.49-1.15,1.15-2.21,1.96-3.16,1.44-1.72-.29-4.47-1.01-5.37-.45.9-.99,1.76-1.63,2.54-1.2,1.56-1.01,2.83.67,5.99" class="cls-2" data-name="Path 2396" id="Path_2396"/>
      <path d="M91.37,73.57s.05-.45-.77-2.05c-.81-1.6,0-3.73,2.25-5.37.21,1.01.48,2.01.81,3,.53,1.52-.19,2.87-2.3,4.43" class="cls-2" data-name="Path 2397" id="Path_2397"/>
      <path d="M95.07,69.09s.11-.36-.31-1.79.58-3.07,2.69-4.12c.01.86.08,1.72.21,2.57.2,1.32-.6,2.34-2.59,3.34" class="cls-2" data-name="Path 2398" id="Path_2398"/>
      <path d="M95.36,79.92s.41-.28,1.19-1.9,3.14-2.59,6.08-2.34c-.7.82-1.35,1.68-1.95,2.58-.91,1.38-2.55,1.87-5.32,1.66" class="cls-2" data-name="Path 2399" id="Path_2399"/>
      <path d="M93.33,79.68c-.79-1.29-.97-2.87-.48-4.31.52-1.56,2.97-4.1,2.97-4.1,0,0,2.06,5.83-2.49,8.41" class="cls-2" data-name="Path 2400" id="Path_2400"/>
      <path d="M72.62,69.09s-.11-.36.31-1.79-.58-3.07-2.69-4.12c-.01.86-.08,1.72-.21,2.57-.2,1.32.6,2.34,2.59,3.34" class="cls-2" data-name="Path 2401" id="Path_2401"/>
      <path d="M88.06,89.9s-1.65,3.27-1.39,13.32c.12,4.4,1.85,17.42,1.85,17.42h-9.47s1.69-12.14,1.85-17.42c.28-8.98-1.39-13.32-1.39-13.32l4.24,1.39,4.31-1.39Z" class="cls-2" data-name="Path 2402" id="Path_2402"/>
      <path d="M83.78,56.52c-.19-.63-.32-1.27-.39-1.92-.07-.64-.11-1.28-.11-1.92,0-.64.03-1.28.11-1.92.07-.65.2-1.3.39-1.92.19.63.32,1.27.39,1.92.07.64.11,1.28.11,1.92,0,.64-.04,1.28-.11,1.92-.07.65-.2,1.3-.39,1.92" class="cls-2" data-name="Path 2403" id="Path_2403"/>
      <path d="M81.86,58.29c-.27-.59-.47-1.2-.62-1.83-.3-1.23-.46-2.49-.47-3.76-.01-.65.04-1.29.15-1.93.27.59.48,1.2.62,1.83.15.61.26,1.24.34,1.87.08.63.12,1.26.13,1.89.01.65-.04,1.29-.15,1.93" class="cls-2" data-name="Path 2404" id="Path_2404"/>
      <path d="M79.77,57.79c-.32-.48-.59-.99-.79-1.52-.21-.52-.38-1.05-.52-1.6-.14-.54-.25-1.09-.32-1.65-.08-.57-.09-1.15-.04-1.72.32.48.59.99.8,1.52.21.52.38,1.05.52,1.6.14.54.24,1.09.31,1.65.08.57.09,1.15.04,1.72" class="cls-2" data-name="Path 2405" id="Path_2405"/>
      <path d="M77.54,57.7c-.35-.37-.65-.79-.91-1.23-.25-.43-.46-.88-.65-1.34-.18-.46-.33-.93-.45-1.42-.12-.5-.18-1.01-.18-1.52.35.37.66.79.91,1.23.25.43.46.88.64,1.34.18.46.33.93.44,1.42.12.5.18,1.01.18,1.52" class="cls-2" data-name="Path 2406" id="Path_2406"/>
      <path d="M76.09,59.44c-.44-.4-.83-.84-1.17-1.32-.34-.47-.65-.95-.92-1.46-.28-.5-.53-1.03-.74-1.56-.22-.55-.39-1.12-.49-1.7.44.4.83.84,1.17,1.32.34.47.65.95.92,1.46.28.5.52,1.03.74,1.56.22.55.39,1.11.49,1.7" class="cls-2" data-name="Path 2407" id="Path_2407"/>
      <path d="M75.21,61.75c-.55-.45-1.07-.94-1.53-1.48-.46-.52-.9-1.07-1.3-1.64-.41-.57-.79-1.16-1.13-1.76-.36-.62-.66-1.26-.9-1.93.55.44,1.07.94,1.54,1.47.46.52.9,1.07,1.3,1.64.41.57.78,1.16,1.13,1.76.36.62.66,1.26.9,1.93" class="cls-2" data-name="Path 2408" id="Path_2408"/>
      <path d="M74.05,64.11c-.59-.54-1.14-1.13-1.64-1.75l-1.47-1.81-1.46-1.82c-.51-.62-.96-1.28-1.37-1.97.68.42,1.32.9,1.93,1.43,1.21,1.06,2.23,2.32,3.01,3.73.39.7.72,1.43.99,2.19" class="cls-2" data-name="Path 2409" id="Path_2409"/>
      <path d="M85.73,58.29c-.11-.64-.16-1.28-.15-1.93,0-.63.05-1.26.13-1.89.08-.63.19-1.25.34-1.87.15-.63.36-1.24.62-1.83.11.64.16,1.28.15,1.93-.02,1.27-.18,2.53-.47,3.76-.15.63-.35,1.24-.62,1.83" class="cls-2" data-name="Path 2410" id="Path_2410"/>
      <path d="M87.82,57.79c-.05-.57-.03-1.15.04-1.72.07-.56.17-1.11.31-1.65.14-.54.31-1.08.52-1.6.21-.54.48-1.05.8-1.52.05.57.04,1.15-.04,1.72-.07.56-.17,1.11-.32,1.65-.14.54-.31,1.08-.52,1.6-.21.54-.48,1.05-.79,1.52" class="cls-2" data-name="Path 2411" id="Path_2411"/>
      <path d="M90.04,57.7c0-.51.06-1.02.18-1.52.11-.48.26-.96.45-1.42.18-.46.4-.91.64-1.34.25-.45.56-.86.91-1.23,0,.51-.06,1.02-.18,1.52-.11.48-.26.96-.45,1.42-.18.46-.4.91-.65,1.34-.25.45-.55.86-.91,1.23" class="cls-2" data-name="Path 2412" id="Path_2412"/>
      <path d="M91.5,59.44c.1-.58.27-1.15.49-1.7.21-.53.46-1.06.74-1.56.28-.5.59-.99.92-1.46.34-.48.74-.92,1.17-1.32-.1.58-.27,1.15-.49,1.7-.21.53-.46,1.06-.74,1.56-.28.5-.59.99-.92,1.46-.34.48-.73.92-1.17,1.32" class="cls-2" data-name="Path 2413" id="Path_2413"/>
      <path d="M92.38,61.75c.24-.67.54-1.31.9-1.93.35-.61.72-1.2,1.13-1.76.41-.57.84-1.12,1.3-1.64.47-.54.98-1.03,1.53-1.48-.24.67-.54,1.31-.9,1.93-.35.61-.72,1.2-1.13,1.76-.41.57-.84,1.11-1.3,1.64-.47.54-.98,1.03-1.53,1.48" class="cls-2" data-name="Path 2414" id="Path_2414"/>
      <path d="M93.53,64.11c.27-.75.6-1.48.99-2.19.78-1.41,1.8-2.67,3.01-3.73.6-.53,1.25-1.01,1.93-1.43-.4.69-.86,1.35-1.37,1.97l-1.46,1.82-1.47,1.81c-.5.63-1.05,1.21-1.64,1.75" class="cls-2" data-name="Path 2415" id="Path_2415"/>
      <path d="M97.62,74.48s.2-.42-.04-2.16c-.24-1.74,1.26-3.57,3.97-4.59-.14,1.02-.22,2.04-.23,3.07,0,1.58-1.15,2.7-3.69,3.67" class="cls-2" data-name="Path 2416" id="Path_2416"/>
      <path d="M62.28,94.15s3.23,1.21,9.59,7.66c2.67,2.71,4.72,4.95,6.01,6.78-.89-6.8-4.1-12.54-9.52-17-.86-.76-1.76-1.47-2.71-2.12-2.28-1.64-4.13-3.8-5.39-6.32,0,0,0,3.13.05,3.46-.36-.17-.72-.34-1.06-.51-1.68-1.22-4.84-4.09-5.92-7.11-.23,1.03-.38,2.07-.44,3.12-2.25-1.73-4.2-3.81-5.79-6.16.19,4.35,1.31,8.61,3.29,12.49-.36-.26-2.38-1.71-3.11-2.56,0,0,1.27,4.79,4.85,8.26,2.05,1.97,4.42,3.58,7.01,4.75.06.05.12.09.18.14l-3.27-.33s2.54,2.72,7.91,5.31c4.21,2.04,7.81,3.41,11.15,5.87-2.53-3.93-6.7-10.2-12.82-15.75" class="cls-2" data-name="Path 2417" id="Path_2417"/>
      <path d="M104.9,94.15s-3.23,1.21-9.59,7.66c-2.67,2.71-4.72,4.95-6.01,6.78.89-6.8,4.1-12.54,9.52-17,.86-.76,1.76-1.47,2.71-2.12,2.28-1.64,4.13-3.8,5.39-6.32,0,0,0,3.13-.05,3.46.36-.17.72-.34,1.06-.51,1.68-1.22,4.84-4.09,5.92-7.11.23,1.03.38,2.07.44,3.12,2.25-1.73,4.2-3.81,5.8-6.16-.19,4.35-1.31,8.61-3.29,12.49.36-.26,2.38-1.71,3.12-2.56,0,0-1.27,4.79-4.85,8.26-2.05,1.97-4.42,3.58-7.01,4.75-.06.05-.12.09-.18.14l3.27-.33s-2.54,2.72-7.91,5.31c-4.21,2.04-7.81,3.41-11.15,5.87,2.53-3.93,6.7-10.2,12.82-15.75" class="cls-2" data-name="Path 2418" id="Path_2418"/>
    </g>
  </g>
  <g data-name="&amp;lt;Group&amp;gt;Britannica" id="_Group_Britannica">
    <g>
      <path d="M293.91,72.22c0-.15-.12-.27-.26-.27-1.09-.05-1.64-.18-2.07-.46-.63-.38-.68-.63-.68-3.43v-6.74c0-2.37-.42-3.81-1.48-5.04-1.08-1.25-2.67-1.93-4.32-1.86-2.63,0-4.7,1.23-6.44,3.73v-3.54c0-.08-.06-.14-.14-.14,0,0,0,0-.01,0l-.78.07c-.25,0-1.06.08-2.12.17-2.41.16-3.41.24-4.98.25-.15,0-.27.12-.27.27v1.02c0,.15.12.27.27.27,2.7.01,2.86.21,2.86,2.88v8.64c0,2.8-.04,3.05-.68,3.43-.48.32-1.02.41-2.19.46-.15,0-.26.13-.26.27v.84c0,.3.25.55.55.55h9.49c.3,0,.55-.25.55-.55h0v-.84c0-.14-.11-.26-.26-.27-1.62-.11-1.74-.54-1.74-3.97v-4.92c0-3.18,1.57-5.34,3.77-5.34,1.91,0,2.71,1.06,2.71,3.6v6.65c0,3.48-.12,3.87-1.9,3.97-.15,0-.26.13-.26.27v.84c0,.3.25.55.55.55h9.54c.3,0,.55-.25.55-.55h0s0-.84,0-.84Z" class="cls-3"/>
      <path d="M172.82,60.27c-1.53-.68-3.05-1.06-5.76-1.36,5.38-.97,7.88-3.18,7.88-6.99,0-4.53-3.35-6.57-10.76-6.57h-15.44c-.15,0-.27.12-.27.27v1.04c0,.24.18.44.42.47,2.03.04,2.29.08,2.8.38.76.47.89,1.02.89,3.69v16.57c0,3.47-.34,3.98-2.54,4.03l-1.14.04c-.23,0-.42.19-.42.42v1.08c0,.15.12.27.28.27h16.16c3.64,0,5.93-.47,8.18-1.69,2.33-1.36,3.73-3.52,3.73-5.93s-1.44-4.53-3.98-5.72ZM158.93,49.21c0-1.95.17-2.12,1.86-2.12h2.41c1.57,0,2.46.21,3.3.8,1.36.97,2.08,2.54,2.08,4.49,0,2.08-.72,3.64-2.16,4.66-1.1.76-1.86.97-3.69.97h-3.81v-8.81ZM163.63,71.75h-2.8c-1.57,0-1.91-.38-1.91-2.29v-9.53h3.9c4.45,0,6.91,2.12,6.91,5.93,0,3.6-2.41,5.89-6.1,5.89Z" class="cls-3"/>
      <path d="M189.83,72.24c0-.15-.12-.27-.27-.27-1.49,0-2.05-.05-2.57-.25-1.02-.38-1.06-.55-1.06-3.64v-3.01c0-2.46.97-5.21,2.41-6.86.3-.41.67-.75,1.1-1.02.06,0,.12.03.13.1,0,0,0,0,0,0,0,.01,0,.02,0,.03,0,.03-.02.06-.04.08-.14.37-.21.75-.21,1.14-.06,1.5,1.11,2.78,2.61,2.84.06,0,.12,0,.18,0,1.76-.03,3.17-1.49,3.14-3.25,0-.02,0-.03,0-.05,0-2.08-1.61-3.52-3.9-3.52-1.38,0-2.71.54-3.69,1.53-.97.89-1.48,1.82-2.16,3.9l-.12-5.22c0-.15-.13-.27-.29-.27,0,0-.01,0-.02,0-.17.01-.34.04-.51.07l-2.08.21c-.85.08-1.69.13-2.5.13l-1.91.04c-.19,0-.37,0-.55.02-.14.01-.25.13-.25.28v1.07c0,.14.11.26.26.28.13.01.25.01.38.01,2.16.04,2.54.42,2.54,2.67v8.81c0,2.8-.04,3.05-.68,3.43-.48.32-1.06.41-2.24.46-.15,0-.26.13-.26.27v.84c0,.3.25.55.55.55h11.44c.3,0,.55-.25.55-.55h0s0-.83,0-.83Z" class="cls-3"/>
      <path d="M204.87,54.62v13.45c0,2.84.04,3.05.68,3.43.47.32.98.41,2.11.46.15,0,.26.13.26.27v.84c0,.3-.25.55-.55.55h-10.42c-.3,0-.55-.25-.55-.55h0v-.84c0-.15.12-.27.26-.27,1.09-.05,1.6-.18,2.07-.46.63-.38.68-.63.68-3.43v-9.02c0-2.22-.12-2.36-2.74-2.49-.15,0-.26-.13-.26-.27v-1.04c0-.15.12-.27.27-.27,3.58-.08,4.74-.17,8.05-.49.08,0,.14.05.15.12,0,0,0,0,0,.01" class="cls-3"/>
      <path d="M202.09,44.93c1.73.03,3.11,1.45,3.08,3.18-.03,1.67-1.38,3.02-3.05,3.05-1.7.02-3.11-1.32-3.18-3.02-.05-1.72,1.3-3.16,3.02-3.21.04,0,.08,0,.12,0h.01" class="cls-3"/>
      <path d="M303.67,54.48c-3.31.32-4.47.41-8.05.49-.15,0-.27.13-.27.27v1.04c0,.15.12.27.26.27,2.63.12,2.74.27,2.74,2.49v9.02c0,2.8-.04,3.05-.68,3.43-.47.28-.98.4-2.07.46-.15,0-.26.13-.26.27v.84c0,.3.25.55.55.55h10.43c.3,0,.55-.25.55-.55h0v-.84c0-.15-.12-.27-.26-.27-1.13-.05-1.64-.14-2.11-.46-.63-.38-.68-.59-.68-3.43v-13.45c0-.08-.06-.14-.14-.14,0,0,0,0-.01,0" class="cls-3"/>
      <path d="M301.03,44.93c-1.72-.01-3.12,1.37-3.14,3.09,0,.04,0,.08,0,.12.07,1.7,1.48,3.04,3.18,3.02,1.67-.03,3.02-1.38,3.05-3.05.03-1.73-1.35-3.15-3.08-3.18,0,0,0,0,0,0h-.01" class="cls-3"/>
      <path d="M221.51,66.84c-.13,2.54-.3,3.47-.8,4.49-.97,1.91-2.71,2.88-5.13,2.88-1.74,0-3.09-.55-3.98-1.57-.93-1.14-1.14-1.91-1.14-4.53v-11.44h-2.24c-.08,0-.14-.06-.14-.14v-1.08c0-.06.04-.11.09-.13,2.62-.87,4.37-3.23,5.2-6.96h2.54v6.61h4.92v1.69h-4.92v12.08c0,2.16.42,2.97,1.53,2.97,1.53,0,2.2-1.4,2.41-4.87h1.65Z" class="cls-3"/>
      <path d="M243.79,69.93c-.63.72-1.14,1.02-1.69,1.02-.76,0-1.1-.51-1.1-1.65v-8.43c0-2.37-.47-3.43-2.03-4.58-1.57-1.19-3.98-1.86-6.74-1.86-4.53,0-8.22,2.37-8.22,5.34.06,1.54,1.34,2.74,2.88,2.71,1.5.02,2.73-1.18,2.76-2.68,0-.05,0-.11,0-.16,0-.84-.37-1.63-1.02-2.16-.13-.08-.17-.17-.17-.21,0-.47,1.95-1.19,3.22-1.19,2.41,0,3.69,1.31,3.69,3.81v2.29c-3.35.55-4.19.72-5.97,1.27-4.19,1.31-6.23,3.3-6.23,6.06s2.33,4.66,6.02,4.66c3.01,0,4.83-.8,6.65-3.01.8,1.99,2.2,3.01,4.15,3.01,1.82,0,3.47-1.19,4.75-3.35l-.93-.89ZM235.36,66.92c0,2.67-1.53,4.62-3.6,4.62-1.44.04-2.63-1.1-2.67-2.53,0-.07,0-.15,0-.22.07-1.78,1.14-3.37,2.75-4.11.76-.34,1.44-.47,3.52-.76v3.01Z" class="cls-3"/>
      <path d="M268.93,73.07c0,.3-.25.55-.55.55h-9.54c-.3,0-.55-.25-.55-.55h0v-.84c0-.15.11-.27.26-.27,1.78-.1,1.9-.49,1.9-3.97v-6.65c0-2.54-.8-3.6-2.71-3.6-2.2,0-3.77,2.16-3.77,5.34v4.92c0,3.43.12,3.86,1.74,3.97.14.01.26.13.26.27v.84c0,.3-.25.55-.55.55h-9.49c-.3,0-.55-.25-.55-.55h0v-.84c0-.15.12-.27.26-.27,1.17-.05,1.72-.14,2.19-.46.63-.38.68-.63.68-3.43v-8.64c0-2.67-.16-2.87-2.86-2.88-.15,0-.27-.12-.27-.27v-1.02c0-.15.12-.27.28-.27,1.57,0,2.57-.09,4.98-.25,1.06-.08,1.86-.17,2.12-.17l.78-.07c.08,0,.14.05.15.12,0,0,0,0,0,.01v3.54c1.74-2.5,3.81-3.73,6.44-3.73,1.65-.07,3.24.62,4.32,1.86,1.06,1.23,1.48,2.67,1.48,5.04v6.74c0,2.8.04,3.05.68,3.43.43.28.98.4,2.07.46.15,0,.26.13.26.27v.84Z" class="cls-3"/>
      <path d="M323.89,66.84c-1.61,3.35-3.39,4.79-5.93,4.79-3.09,0-4.75-2.75-4.75-7.88s1.48-7.58,4.58-7.58c1.4,0,3.3.68,3.3,1.14,0,.13-.08.21-.34.21-1.23.21-2.12,1.29-2.08,2.54-.03,1.63,1.27,2.98,2.91,3.01h.06c1.78,0,3.05-1.36,3.05-3.22,0-3.05-3.05-5.25-7.37-5.25-5.93,0-10.04,4.15-10.04,10.08s3.73,9.58,9.19,9.58c4.45,0,7.5-2.33,8.9-6.74l-1.48-.68Z" class="cls-3"/>
      <path d="M348.22,69.93c-.64.72-1.14,1.02-1.69,1.02-.76,0-1.1-.51-1.1-1.65v-8.43c0-2.37-.47-3.43-2.03-4.58-1.57-1.19-3.98-1.86-6.74-1.86-4.53,0-8.22,2.37-8.22,5.34.06,1.54,1.34,2.74,2.88,2.71.05,0,.11,0,.16,0,1.5-.07,2.66-1.34,2.59-2.84,0-.84-.37-1.63-1.02-2.16-.13-.08-.17-.17-.17-.21,0-.47,1.95-1.19,3.22-1.19,2.42,0,3.69,1.31,3.69,3.81v2.29c-3.35.55-4.19.72-5.97,1.27-4.19,1.31-6.23,3.3-6.23,6.06s2.33,4.66,6.02,4.66c3.01,0,4.83-.81,6.65-3.01.81,1.99,2.2,3.01,4.15,3.01,1.82,0,3.47-1.19,4.75-3.35l-.93-.89ZM339.79,66.92c0,2.67-1.53,4.62-3.6,4.62-.07,0-.15,0-.22,0-1.44-.08-2.53-1.31-2.45-2.75.07-1.78,1.14-3.37,2.75-4.11.76-.34,1.44-.47,3.52-.76v3.01Z" class="cls-3"/>
    </g>
    <g data-name="Group 1989" id="Group_1989">
      <g data-name="Group 1973" id="Group_1973">
        <path d="M347.78,54.63c-.76,0-1.38.61-1.38,1.37,0,0,0,0,0,0-.02.75.57,1.36,1.32,1.38.02,0,.04,0,.06,0,.76,0,1.38-.62,1.38-1.38,0-.76-.62-1.38-1.38-1.38h0M347.78,54.88c.6,0,1.09.5,1.08,1.1,0,.01,0,.02,0,.04.03.59-.44,1.1-1.03,1.12-.59.03-1.1-.44-1.12-1.03,0-.03,0-.06,0-.09-.03-.59.42-1.1,1.01-1.13.02,0,.04,0,.06,0M348.57,56.62c-.05-.03-.1-.06-.14-.11-.14-.15-.26-.32-.35-.5.17-.04.28-.19.29-.36,0-.31-.28-.37-.52-.37h-.73v.16c.17.01.19.01.19.2v.73c0,.19-.02.19-.2.2v.17h.72v-.17c-.18-.01-.2-.01-.2-.2v-.26h.04c.06,0,.12.02.15.07.06.12.12.23.19.34.12.16.32.25.52.22l.04-.13ZM347.63,55.95v-.38c0-.11.04-.13.14-.13.13,0,.25.09.26.22,0,0,0,.02,0,.02.01.09-.04.18-.12.22-.06.03-.12.05-.18.04h-.09Z" class="cls-3" data-name="Path 2651" id="Path_2651"/>
      </g>
    </g>
  </g>
  <g>
    <path d="M235.85,80.06v30.73c0,9.72-7.87,17.6-17.6,17.6h-4.98c-9.72,0-17.6-7.88-17.6-17.6v-30.73h16.1v27.5c0,2.22,1.8,4.03,4.03,4.03h.44c2.23,0,4.03-1.81,4.03-4.03v-27.5h15.57Z" class="cls-1"/>
    <rect height="48.34" width="15.58" y="80.06" x="244.93" class="cls-1"/>
    <polygon points="303.95 113.61 303.95 128.39 269.58 128.39 269.58 80.06 285.16 80.06 285.16 113.61 303.95 113.61" class="cls-1"/>
    <path d="M328.69,80.06h-17.69v48.33h17.69c6.68,0,12.71-2.7,17.09-7.08,4.38-4.38,7.08-10.41,7.08-17.09,0-13.34-10.83-24.16-24.17-24.16ZM336.08,110.86c-1.7,1.7-4.05,2.75-6.64,2.75h-5.8v-18.77h5.8c5.19,0,9.39,4.2,9.39,9.38,0,2.59-1.05,4.94-2.75,6.64Z" class="cls-1"/>
    <path d="M149.53,79.9h22.27c5.79,0,10.49,4.7,10.49,10.49h0c0,5.79-4.7,10.49-10.49,10.49h-22.27v-20.98h0Z" class="cls-1"/>
    <path d="M149.53,103.51h26.19c6.84,0,12.39,5.55,12.39,12.39h0c0,6.84-5.55,12.39-12.39,12.39h-26.19v-24.78h0Z" class="cls-1"/>
  </g>
</svg>