<svg width="22" height="20" viewBox="0 0 22 20" fill="none" xmlns="http://www.w3.org/2000/svg">
<path d="M14.8462 12.0769V9.65385C14.8462 8.82759 14.5179 8.03518 13.9337 7.45094C13.3494 6.86669 12.557 6.53846 11.7308 6.53846H10.3462C10.0707 6.53846 9.8066 6.42905 9.61185 6.2343C9.4171 6.03955 9.30769 5.77542 9.30769 5.5V4.11538C9.30769 3.28913 8.97947 2.49672 8.39522 1.91248C7.81097 1.32823 7.01856 1 6.19231 1H4.46154M4.46154 12.7692H11.3846M4.46154 15.5385H7.92308M6.53846 1H2.03846C1.46523 1 1 1.46523 1 2.03846V17.9615C1 18.5348 1.46523 19 2.03846 19H13.8077C14.3809 19 14.8462 18.5348 14.8462 17.9615V9.30769C14.8462 7.10436 13.9709 4.99126 12.4129 3.43327C10.8549 1.87527 8.7418 1 6.53846 1Z" stroke="white" stroke-width="1.3" stroke-linecap="round" stroke-linejoin="round"/>
<path d="M18.1614 1V3.36842M18.1614 3.36842V5.73684M18.1614 3.36842H20.5298M18.1614 3.36842H15.793" stroke="white" stroke-width="1.5" stroke-linecap="round" stroke-linejoin="round"/>
</svg>
